<?xml version="1.0" standalone="no"?>
<!DOCTYPE svg PUBLIC "-//W3C//DTD SVG 1.1//EN" "http://www.w3.org/Graphics/SVG/1.1/DTD/svg11.dtd" >
<svg xmlns="http://www.w3.org/2000/svg" xmlns:xlink="http://www.w3.org/1999/xlink" version="1.1">
<metadata></metadata>
<defs>
<font id="pf_din_text_comp_prolight" horiz-adv-x="3723" >
<font-face units-per-em="2048" ascent="1536" descent="-512" />
<missing-glyph horiz-adv-x="376" />
<glyph unicode="fj" horiz-adv-x="757" d="M23 907v99h106v223q0 125 72.5 194.5t193.5 69.5q76 0 139.5 -21.5t110.5 -70.5l-74 -88q-35 35 -82 48t-88 13q-78 0 -111.5 -39t-33.5 -98v-231h397v-1174q0 -106 -49 -174t-172 -68h-43v117h23q76 0 96 36t20 101v1063h-272v-907h-127v907h-106z" />
<glyph unicode="ffj" horiz-adv-x="1150" d="M23 907v101h106v223q0 121 75.5 189.5t190.5 68.5q51 0 99.5 -10.5t89.5 -36.5q37 41 89 60.5t118 19.5q78 0 140 -20.5t109 -71.5l-75 -89q-39 35 -84 48.5t-84 13.5q-74 0 -110 -39t-36 -98v-258h396v-1176q0 -106 -49.5 -174t-172.5 -68h-43v117h21q76 0 97.5 40 t21.5 124v1036h-271v-907h-127v907h-268v-907h-127v907h-106zM256 1008h268v260q0 16 1 33.5t10 35.5q-35 18 -72 25.5t-62 7.5q-76 0 -110.5 -41t-34.5 -100v-221z" />
<glyph unicode="&#xfb00;" horiz-adv-x="845" d="M23 907v99h106v231q0 61 20.5 108.5t57.5 80t86 49t104 16.5q45 0 88 -8t84 -31q29 39 74 56.5t100 17.5h72v-117h-51q-63 0 -90 -35t-27 -88v-280h164v-99h-164v-907h-125v907h-264v-907h-129v907h-106zM258 1006h264v262q0 14 1 33.5t5 41.5q-35 18 -68.5 23.5 t-56.5 5.5q-78 0 -111.5 -39t-33.5 -98v-229z" />
<glyph unicode="&#xfb01;" horiz-adv-x="757" d="M23 907v99h106v233q0 123 76 189.5t190 66.5q158 0 250 -94l-74 -88q-35 37 -82 49t-88 12q-78 0 -110.5 -39t-32.5 -98v-231h395v-1006h-125v907h-270v-907h-129v907h-106z" />
<glyph unicode="&#xfb02;" horiz-adv-x="817" d="M23 907v99h106v229q0 129 70.5 201.5t193.5 72.5q37 0 101.5 -5t160.5 -31v-1221q0 -74 20.5 -113t90.5 -39h25v-114h-31q-57 0 -100.5 11t-73 38.5t-44 74t-14.5 117.5v1143q-43 10 -73.5 13t-55.5 3q-80 0 -110.5 -44t-30.5 -121v-215h172v-99h-172v-907h-129v907h-106 z" />
<glyph unicode="&#xfb03;" horiz-adv-x="1150" d="M23 907v101h106v223q0 125 75.5 192.5t192.5 67.5q49 0 97.5 -11.5t91.5 -37.5q74 82 205 82q84 0 144 -21.5t109 -72.5l-77 -89q-35 35 -82 48.5t-88 13.5q-74 0 -110 -39t-36 -98v-258h396v-1008h-125v907h-271v-907h-127v907h-266v-907h-129v907h-106zM258 1008h266 v260q0 16 2 31.5t6 31.5q-35 23 -70.5 31t-58.5 8q-80 0 -112.5 -41t-32.5 -100v-221z" />
<glyph unicode="&#xfb04;" horiz-adv-x="1210" d="M23 907v99h106v225q0 125 77.5 190.5t190.5 65.5q41 0 94.5 -10.5t98.5 -36.5q35 41 85 60.5t111 19.5q37 0 103.5 -6.5t159.5 -32.5v-1229q0 -74 21.5 -113t90.5 -39h25v-114h-33q-57 0 -100 11t-73 38.5t-44 74t-14 117.5v1155q-43 10 -74 14.5t-55 4.5q-78 0 -111 -46 t-33 -124v-225h178v-99h-178v-907h-125v907h-266v-907h-129v907h-106zM258 1006h266v239q0 23 2 44.5t9 41.5q-37 23 -73 29t-59 6q-78 0 -111.5 -39t-33.5 -98v-223z" />
<glyph unicode="ft" horiz-adv-x="847" d="M23 907v99h106v251q0 119 62.5 174.5t160.5 55.5h74v-117h-53q-61 0 -88 -35t-27 -88v-241h270v274h125v-274h142v-99h-142v-651q0 -76 32 -107.5t93 -31.5h21v-119h-47q-117 0 -170.5 66.5t-53.5 158.5v684h-270v-907h-129v907h-106z" />
<glyph horiz-adv-x="0" />
<glyph horiz-adv-x="682" />
<glyph unicode=" "  horiz-adv-x="376" />
<glyph unicode="&#x09;" horiz-adv-x="376" />
<glyph unicode="&#xa0;" horiz-adv-x="376" />
<glyph unicode="!" horiz-adv-x="438" d="M152 0v131h133v-131h-133zM154 1425h129l-13 -1081h-104z" />
<glyph unicode="&#x22;" horiz-adv-x="450" d="M78 1053v372h100v-372h-100zM276 1053v372h97v-372h-97z" />
<glyph unicode="#" horiz-adv-x="751" d="M10 459v84h140l63 352h-119v86h135l88 455h89l-89 -455h207l86 455h88l-86 -455h123v-86h-139l-66 -352h119v-84h-135l-86 -459h-88l86 459h-207l-84 -459h-88l86 459h-123zM236 543h206l66 352h-207z" />
<glyph unicode="$" horiz-adv-x="751" d="M43 301l125 27q0 -41 9 -79t28.5 -67.5t52.5 -49t82 -26.5v586q-94 43 -150.5 85t-87 87t-40 95.5t-9.5 111.5q0 152 70 251t217 114v172h68v-172q84 -4 139 -33t89 -73t48 -96t14 -101l-125 -31q0 88 -37.5 146.5t-127.5 68.5v-518q2 0 10 -3t10 -5q92 -37 145.5 -77 t81 -88t35.5 -107.5t8 -137.5q0 -84 -15 -154.5t-49 -122t-89.5 -81t-136.5 -35.5v-191h-68v191q-78 4 -134 29.5t-92 66.5t-53.5 96.5t-17.5 120.5zM178 1073q0 -41 6 -73.5t22.5 -60.5t48.5 -54.5t85 -53.5v484q-51 -6 -83 -30.5t-49.5 -58.5t-23.5 -75t-6 -78zM408 106 q55 6 87.5 31t49 62t21.5 83t5 97q0 61 -5 102t-21.5 73t-49 56.5t-87.5 51.5v-556z" />
<glyph unicode="%" horiz-adv-x="1187" d="M88 737v514q0 82 55.5 130.5t135.5 48.5q76 0 132 -45.5t56 -127.5v-520q0 -82 -56.5 -128t-131.5 -46q-86 0 -138.5 46t-52.5 128zM190 741q0 -35 23 -56t66 -21q41 0 62 24.5t21 59.5v505q0 33 -21.5 56.5t-61.5 23.5q-47 0 -68 -25.5t-21 -58.5v-508zM225 -35 l643 1497h86l-643 -1497h-86zM723 166v514q0 82 55.5 130t134.5 48q76 0 132.5 -45t56.5 -127v-520q0 -82 -56.5 -128t-132.5 -46q-86 0 -138 46t-52 128zM825 170q0 -35 22.5 -56.5t65.5 -21.5q41 0 62.5 24.5t21.5 59.5v506q0 33 -21.5 56.5t-62.5 23.5q-47 0 -67.5 -25.5 t-20.5 -58.5v-508z" />
<glyph unicode="&#x26;" horiz-adv-x="937" d="M84 340q0 125 56.5 227.5t160.5 200.5q-10 23 -26.5 48.5t-26.5 45.5q-35 63 -55.5 137t-20.5 142q0 61 18.5 114.5t52 93.5t83 63.5t108.5 23.5q100 0 164 -32t100 -104l-112 -59q-23 43 -61 61.5t-87 18.5q-37 0 -64.5 -16.5t-44 -43t-24.5 -59.5t-8 -63 q0 -109 84 -262l301 -521q23 57 34 116.5t15 119.5h117q-4 -82 -26.5 -178.5t-61.5 -175.5l139 -238h-147l-76 129q-74 -90 -148.5 -115.5t-150.5 -25.5q-59 0 -112.5 23.5t-93.5 68.5t-63.5 110.5t-23.5 149.5zM207 346q0 -51 13 -95t38 -78t62.5 -53.5t87.5 -19.5 q53 0 110 32t100 91l-256 443q-82 -84 -118.5 -162t-36.5 -158z" />
<glyph unicode="'" horiz-adv-x="319" d="M113 1053v372h98v-372h-98z" />
<glyph unicode="(" horiz-adv-x="436" d="M90 618q0 248 74 465t184 383l62 -28q-47 -86 -85 -184.5t-65 -203t-41 -212t-14 -211.5q0 -225 55 -439.5t148 -384.5l-56 -32q-53 80 -101 175t-84 202.5t-56.5 225.5t-20.5 244z" />
<glyph unicode=")" horiz-adv-x="436" d="M90 1438q6 2 30.5 13t29.5 15q111 -166 185.5 -383t74.5 -467q0 -125 -20.5 -242.5t-56.5 -225t-84.5 -202.5t-103.5 -175q-2 2 -9 6t-16 10t-17.5 10t-10.5 6q92 170 147.5 384t55.5 440q0 104 -14.5 210.5t-41 211t-64.5 204t-85 185.5z" />
<glyph unicode="*" horiz-adv-x="696" d="M49 1169l35 99l217 -92l-16 247h104l-16 -247l219 92l35 -99l-232 -65l158 -197l-88 -57l-127 213l-127 -215l-86 59l154 197z" />
<glyph unicode="+" horiz-adv-x="751" d="M25 551v100h303v328h96v-328h301v-100h-301v-330h-96v330h-303z" />
<glyph unicode="," horiz-adv-x="335" d="M88 -219l43 209h-35v155h144v-153l-80 -211h-72z" />
<glyph unicode="-" horiz-adv-x="684" d="M100 530v113h506v-113h-506z" />
<glyph unicode="." horiz-adv-x="335" d="M96 0v150h144v-150h-144z" />
<glyph unicode="/" horiz-adv-x="499" d="M12 -86l381 1571h99l-381 -1571h-99z" />
<glyph unicode="0" horiz-adv-x="751" d="M100 248v926q0 63 22.5 113t60.5 83t88.5 50.5t105.5 17.5q117 0 196.5 -67.5t79.5 -196.5v-926q0 -66 -22.5 -115t-60.5 -82t-88 -49t-105 -16t-105.5 16t-88.5 49t-60.5 82t-22.5 115zM223 244q0 -66 43 -104t111 -38q66 0 107.5 38t41.5 104v934q0 66 -42 103.5 t-107 37.5q-68 0 -111 -38t-43 -103v-934z" />
<glyph unicode="1" horiz-adv-x="751" d="M193 1130v136l208 159h129v-1425h-124v1292z" />
<glyph unicode="2" horiz-adv-x="751" d="M100 1104q0 160 70 246t213 88q150 0 214.5 -85t64.5 -225q0 -90 -17.5 -166.5t-58.5 -154.5l-344 -690h409v-117h-549v113l381 764q29 59 38 121.5t9 129.5q0 35 -5 70t-21.5 61.5t-46 43t-78.5 16.5q-72 0 -114 -56.5t-42 -181.5z" />
<glyph unicode="3" horiz-adv-x="751" d="M96 291l125 24q-4 -98 30 -155.5t122 -57.5q66 0 109.5 39t43.5 131v228q0 98 -40 140t-117 42h-60v113h64q74 0 113.5 38.5t39.5 133.5v192q0 33 -7 61.5t-24.5 50t-45 35t-68.5 13.5q-84 0 -122 -58.5t-38 -150.5q-6 2 -23.5 4t-39 5t-39 6t-23.5 3q2 68 20.5 124.5 t55.5 97.5t91 64.5t126 23.5q74 0 124 -21.5t81 -59.5t44 -89t13 -111v-166q0 -39 -4 -75.5t-17.5 -68.5t-38 -58.5t-65.5 -45.5v-4q43 -16 67.5 -41.5t38 -59.5t16.5 -75t3 -88l-2 -199q0 -147 -76.5 -218.5t-203.5 -71.5q-141 0 -209 78.5t-64 226.5z" />
<glyph unicode="4" horiz-adv-x="751" d="M49 236v114l299 1075h125l-301 -1075h297v398h127v-398h109v-114h-109v-236h-127v236h-420z" />
<glyph unicode="5" horiz-adv-x="751" d="M94 297l125 18q0 -96 31 -154.5t127 -58.5q66 0 106.5 39t42.5 133l4 381q0 78 -39.5 113t-107.5 35q-51 0 -90 -22.5t-57 -61.5h-111v706h528v-112h-417v-467h8q31 31 78 47t100 16q117 0 175 -65.5t58 -165.5l-4 -399q-2 -147 -76.5 -220t-199.5 -73q-143 0 -210 82 t-71 229z" />
<glyph unicode="6" horiz-adv-x="751" d="M100 248v250q0 82 11.5 137t27.5 98l269 692h127q-41 -106 -83 -216.5t-77 -202t-58.5 -153.5t-27.5 -75l6 -4q23 18 55.5 30.5t65.5 12.5q123 0 180 -73.5t57 -184.5v-311q0 -66 -22.5 -115t-60.5 -82t-88 -49t-105 -16t-105.5 16t-88.5 49t-60.5 82t-22.5 115zM223 240 q0 -66 43 -102t111 -36q66 0 107.5 36t41.5 102v325q0 63 -42 99t-107 36q-41 0 -69.5 -15t-47 -39.5t-28 -55.5t-9.5 -62v-288z" />
<glyph unicode="7" horiz-adv-x="751" d="M92 1141v284h567v-104l-374 -1321h-123l370 1313h-331v-172h-109z" />
<glyph unicode="8" horiz-adv-x="751" d="M100 248v274q0 78 31 133.5t84 87.5q-53 31 -84 86.5t-31 135.5v209q0 63 22.5 113t60.5 83t88.5 50.5t105.5 17.5t105 -17.5t88 -50.5t60.5 -83t22.5 -113v-209q0 -80 -32.5 -134.5t-83.5 -87.5q51 -33 83.5 -88t32.5 -133v-274q0 -66 -22.5 -115t-60.5 -82t-88 -49 t-105 -16t-105.5 16t-88.5 49t-60.5 82t-22.5 115zM223 240q0 -66 43 -102t111 -36q66 0 107.5 36t41.5 102v309q0 63 -42 102t-107 41q-68 0 -111 -40t-43 -103v-309zM223 940q0 -63 43 -101t111 -38q66 0 107.5 38t41.5 101v242q0 66 -42 102.5t-107 36.5q-68 0 -111 -37 t-43 -102v-242z" />
<glyph unicode="9" horiz-adv-x="751" d="M100 866v312q0 66 22.5 114.5t60.5 81.5t88.5 49.5t105.5 16.5q125 0 200.5 -65.5t75.5 -196.5v-250q0 -82 -11 -137.5t-28 -98.5l-270 -692h-129q41 106 83 217t77 202t58.5 153.5t27.5 74.5l-6 4q-20 -18 -53 -30.5t-68 -12.5q-123 0 -178.5 74t-55.5 184zM223 860 q0 -63 43 -100t109 -37q39 0 67.5 15.5t47 40t27.5 56t9 62.5v289q0 66 -42 101.5t-107 35.5q-66 0 -110 -36t-44 -101v-326z" />
<glyph unicode=":" horiz-adv-x="335" d="M96 0v150h144v-150h-144zM96 621v151h144v-151h-144z" />
<glyph unicode=";" horiz-adv-x="335" d="M88 -219l43 209h-35v155h144v-153l-80 -211h-72zM96 621v149h144v-149h-144z" />
<glyph unicode="&#x3c;" horiz-adv-x="751" d="M27 557v90l694 369v-109l-594 -305l594 -305v-109z" />
<glyph unicode="=" horiz-adv-x="751" d="M25 395v105h700v-105h-700zM25 700v103h700v-103h-700z" />
<glyph unicode="&#x3e;" horiz-adv-x="751" d="M29 188v109l596 305l-596 305v109l694 -369v-90z" />
<glyph unicode="?" horiz-adv-x="731" d="M63 1124q4 154 91.5 234t216.5 80q86 0 146.5 -23.5t97 -67.5t54 -106.5t17.5 -138.5q0 -111 -36 -201t-78 -163.5t-77.5 -134t-35.5 -114.5v-145h-123v164q0 39 12 83t35 79q47 80 80 133t54.5 98t30.5 89t9 104q0 100 -40 162.5t-146 62.5q-72 0 -125 -50t-56 -161z M332 0v131h129v-131h-129z" />
<glyph unicode="@" horiz-adv-x="1527" d="M119 686q0 168 44 307.5t129 238.5t210 153.5t286 54.5q152 0 269 -49.5t195.5 -136.5t118.5 -207.5t40 -262.5q0 -141 -27.5 -235t-72.5 -150.5t-103.5 -80t-122.5 -23.5q-16 0 -41.5 6t-53 21.5t-51.5 39t-34 60.5h-2q-31 -57 -91 -83t-118 -26q-53 0 -89 19.5 t-58.5 51.5t-31.5 73t-9 84t11 88t38 82t70 60.5t106 23.5h137v106q0 53 -27.5 87t-95.5 34q-43 0 -76.5 -21.5t-43.5 -62.5q-4 0 -19.5 4t-32 9t-32 9.5t-19.5 6.5q23 70 83.5 111.5t144.5 41.5q49 0 90 -11t71.5 -36.5t48 -66.5t17.5 -103v-371q0 -68 33.5 -103.5 t79.5 -35.5q41 0 79.5 15.5t68.5 57.5t47.5 119t17.5 199q0 131 -38 235.5t-105.5 175.5t-161 108.5t-203.5 37.5q-147 0 -256 -51t-178.5 -139t-103.5 -208t-34 -257q0 -152 36 -273.5t108.5 -209.5t180 -135.5t251.5 -47.5q94 0 177 16.5t169 67.5l39 -92 q-86 -41 -181.5 -65.5t-193.5 -24.5q-162 0 -290 48t-217 144.5t-136 240t-47 331.5zM608 543q0 -51 33 -91t98 -40q59 0 94 38.5t35 100.5v154h-112q-59 0 -103.5 -36t-44.5 -126z" />
<glyph unicode="A" horiz-adv-x="790" d="M25 0l307 1425h127l313 -1425h-125l-76 344h-354l-74 -344h-118zM238 463h311l-86 414l-66 340h-6l-67 -345z" />
<glyph unicode="B" horiz-adv-x="843" d="M109 0v1425h299q92 0 156.5 -24.5t104.5 -71.5t57 -115.5t17 -154.5q0 -111 -32.5 -184.5t-118.5 -118.5v-8q94 -29 130 -118t36 -212q0 -223 -92.5 -320.5t-272.5 -97.5h-284zM233 115h168q74 0 120 24.5t70.5 67.5t34 100.5t9.5 120.5q0 129 -50 198.5t-173 69.5h-179 v-581zM233 807h168q121 0 170.5 65.5t49.5 188.5q0 121 -53.5 185.5t-182.5 64.5h-152v-504z" />
<glyph unicode="C" horiz-adv-x="786" d="M96 315v752q0 76 16.5 143.5t53.5 117.5t97.5 80t150.5 30q150 0 231.5 -83t81.5 -233l-127 -24v9q0 105 -47 158q-49 56 -141 56q-53 0 -89 -20.5t-58.5 -54.5t-33 -77t-10.5 -88v-759q0 -41 10.5 -81t33 -71t58 -49.5t89.5 -18.5q84 0 135 52.5t53 171.5l129 -23 q-4 -158 -89 -237.5t-226 -79.5q-156 0 -237 85t-81 244z" />
<glyph unicode="D" horiz-adv-x="847" d="M109 0v1425h319q129 0 201.5 -44t101.5 -148q23 -84 23 -212v-306v-304t-25 -206q-18 -61 -51 -100t-74 -63t-90 -33t-104 -9h-301zM233 115h181q111 0 161 61.5t50 183.5v705q0 55 -10.5 100t-35 77t-65.5 50.5t-102 18.5h-179v-1196z" />
<glyph unicode="E" horiz-adv-x="739" d="M109 0v1425h596v-116h-472v-523h412v-116h-412v-555h472v-115h-596z" />
<glyph unicode="F" horiz-adv-x="737" d="M109 0v1425h596v-116h-472v-523h412v-116h-412v-670h-124z" />
<glyph unicode="G" horiz-adv-x="829" d="M98 313v744q0 82 15.5 151.5t52.5 120.5t98.5 80t151.5 29q150 0 229.5 -79t83.5 -231l-125 -30v2q0 113 -50 167t-140 54q-53 0 -89 -20.5t-58.5 -54.5t-33 -77t-10.5 -88v-762q0 -41 10.5 -80.5t33 -70.5t58 -49.5t89.5 -18.5h2q86 0 143 50.5t57 138.5v354h-172v111 h297v-453q0 -78 -25.5 -136.5t-70.5 -98t-103 -60t-126 -20.5q-154 0 -236 84t-82 243z" />
<glyph unicode="H" horiz-adv-x="860" d="M109 0v1425h124v-641h392v641h127v-1425h-127v674h-392v-674h-124z" />
<glyph unicode="I" horiz-adv-x="374" d="M123 0v1425h129v-1425h-129z" />
<glyph unicode="J" horiz-adv-x="692" d="M-10 88l86 82q27 -29 69.5 -49.5t83.5 -20.5q84 0 141.5 53.5t57.5 170.5v1101h125v-1089q0 -170 -81 -260t-245 -90q-70 0 -134 24.5t-103 77.5z" />
<glyph unicode="K" horiz-adv-x="831" d="M109 0v1425h122v-782h5l397 782h129l-287 -563l342 -862h-131l-285 725l-170 -317v-408h-122z" />
<glyph unicode="L" horiz-adv-x="690" d="M109 0v1425h124v-1310h443v-115h-567z" />
<glyph unicode="M" horiz-adv-x="1122" d="M106 0v1425h127q12 -31 37 -94t51.5 -134t51 -134.5t35.5 -93.5l149 -398h6q10 29 30.5 84.5t44.5 117t45.5 117.5t31.5 85q2 6 15 41t31.5 82t40 102t39 102.5t31 81t15.5 41.5h129v-1425h-125v1077h-8q-10 -25 -28.5 -73t-38 -101t-39 -101t-27.5 -73 q-2 -6 -13.5 -35.5t-28 -70.5t-36 -88.5t-35.5 -88t-28.5 -70.5t-14.5 -36h-70q-10 27 -31.5 80t-45 112.5t-45 112.5t-31.5 80l-131 348h-9v-1073h-125z" />
<glyph unicode="N" horiz-adv-x="903" d="M102 0v1425h119q12 -31 36 -88t53.5 -127.5t61 -147.5t61.5 -147.5t53.5 -128t37.5 -88.5l144 -356h8v1083h125v-1425h-119q-12 31 -35.5 87t-53.5 127t-61.5 147.5t-61.5 146.5t-54.5 126t-36.5 87l-146 356h-6v-1077h-125z" />
<glyph unicode="O" horiz-adv-x="837" d="M96 319v750q0 76 16.5 143.5t54.5 117.5t100.5 79t152.5 29q92 0 154.5 -26t99.5 -74t53 -114.5t16 -148.5v-723q0 -180 -80.5 -273t-244.5 -93t-243 88t-79 245zM219 317q0 -41 11.5 -79.5t35 -69.5t61.5 -49.5t91 -18.5q109 0 153.5 70t44.5 168v756q0 45 -10 86 t-32.5 72.5t-60.5 51t-93 19.5q-59 0 -98 -25.5t-61.5 -64.5t-32 -85t-9.5 -87v-744z" />
<glyph unicode="P" horiz-adv-x="800" d="M109 0v1425h284q106 0 177 -28.5t111 -82.5t56.5 -131t16.5 -171q0 -90 -16.5 -168t-57.5 -134.5t-113.5 -88t-183.5 -31.5h-150v-590h-124zM233 707h144q78 0 127 21.5t77.5 61t39 96t10.5 124.5q0 63 -9.5 118.5t-37 95.5t-76.5 63.5t-127 23.5h-148v-604z" />
<glyph unicode="Q" horiz-adv-x="835" d="M96 319v750q0 76 16.5 143.5t54.5 117.5t100.5 79t152.5 29q92 0 154.5 -26t99.5 -74t53 -114.5t16 -148.5v-723q0 -129 -43 -215l121 -94l-65 -80l-119 92q-75 -69 -213 -69h-4q-164 0 -244 88t-80 245zM219 317q0 -41 11.5 -79.5t35 -69.5t61.5 -49.5t91 -18.5 q78 0 121 35l-129 103l63 77l123 -96q10 25 15 55.5t5 63.5v756q0 45 -10 86t-32.5 72.5t-60.5 51t-93 19.5q-59 0 -98 -25.5t-61.5 -64.5t-32 -85t-9.5 -87v-744z" />
<glyph unicode="R" horiz-adv-x="831" d="M106 0v1425h295q188 0 268.5 -100t80.5 -293q0 -127 -44 -224t-159 -142q53 -162 110.5 -334t110.5 -332h-129l-209 639h-199v-639h-125zM231 752h158q131 0 183.5 70.5t52.5 209.5q0 63 -11.5 114.5t-39 88.5t-74.5 56.5t-119 19.5h-150v-559z" />
<glyph unicode="S" horiz-adv-x="790" d="M68 301l127 27q0 -43 10 -83t33.5 -71t61.5 -49.5t95 -18.5q70 0 110 23t60.5 59.5t26.5 86t6 104.5q0 68 -6 112t-28.5 75.5t-64.5 58t-114 57.5q-102 45 -162.5 88t-92.5 89t-42 98.5t-10 113.5q0 80 19.5 147.5t60.5 115.5t102.5 76t145.5 28q92 0 153.5 -28t98 -73 t52 -99t15.5 -105l-127 -31q0 96 -44 156.5t-155 60.5q-61 0 -99 -23.5t-59.5 -59.5t-28.5 -79t-7 -84q0 -47 8 -84t33.5 -69.5t75 -63.5t133.5 -65q92 -37 145 -77t81 -88t36 -107.5t8 -137.5q0 -90 -16.5 -163t-55.5 -124t-102.5 -79.5t-155.5 -28.5q-86 0 -147.5 24.5 t-101.5 66.5t-59 99t-19 125z" />
<glyph unicode="T" horiz-adv-x="655" d="M6 1311v114h641v-114h-256v-1311h-129v1311h-256z" />
<glyph unicode="U" horiz-adv-x="833" d="M92 319v1104h125v-1106q0 -41 11.5 -79.5t35 -69.5t61 -49.5t91.5 -18.5q109 0 153.5 70t44.5 168v1085h125v-1071q0 -180 -79.5 -273t-243.5 -93q-162 0 -243 88t-81 245z" />
<glyph unicode="V" horiz-adv-x="792" d="M37 1425h127l145 -753l80 -479h6l82 481l148 751h129l-291 -1427h-144z" />
<glyph unicode="W" horiz-adv-x="1189" d="M37 1425h129l104 -710l58 -465h6l72 461l131 714h118l127 -714l76 -461h6l56 463l104 712h129l-223 -1427h-129l-139 754l-66 381h-6l-64 -388l-139 -747h-127z" />
<glyph unicode="X" horiz-adv-x="741" d="M16 -2l289 739l-274 688h133l207 -563l204 563h136l-281 -688l295 -739h-133l-221 602l-224 -602h-131z" />
<glyph unicode="Y" horiz-adv-x="743" d="M23 1425h131l122 -374q6 -18 18.5 -57.5t27 -84.5t26.5 -84t19 -57h6l90 287l123 370h131q-12 -35 -35 -99t-50.5 -145t-58 -168t-58.5 -167t-49.5 -145.5t-33.5 -98.5v-604h-125v604q-12 33 -33.5 98.5t-49 145.5t-58.5 167t-58.5 168t-50 145.5t-34.5 98.5z" />
<glyph unicode="Z" horiz-adv-x="641" d="M33 0v115l446 1196h-418v114h545v-114l-446 -1196h434v-115h-561z" />
<glyph unicode="[" horiz-adv-x="417" d="M129 -213v1640h256v-84h-145v-1474h145v-82h-256z" />
<glyph unicode="\" horiz-adv-x="436" d="M20 1452h99l295 -1489h-97z" />
<glyph unicode="]" horiz-adv-x="417" d="M61 -131h146v1474h-146v84h254v-1642h-254v84z" />
<glyph unicode="^" horiz-adv-x="751" d="M20 729l314 690h90l313 -690h-106l-254 578l-252 -578h-105z" />
<glyph unicode="_" horiz-adv-x="1024" d="M0 -156h1024v-102h-1024v102z" />
<glyph unicode="`" horiz-adv-x="716" d="M199 1450l118 43l140 -326l-70 -28z" />
<glyph unicode="a" horiz-adv-x="720" d="M51 274q0 57 12.5 114.5t45 104t86 76t137.5 29.5h178v147q0 72 -33 115t-127 43q-45 0 -93 -25.5t-62 -84.5l-119 36q27 88 98.5 139.5t181.5 51.5q133 0 206 -60.5t73 -211.5v-748h-127v90h-2q-45 -63 -101.5 -82.5t-119.5 -19.5q-66 0 -110 24.5t-71.5 64.5t-40 91 t-12.5 106zM174 281q0 -78 36 -126.5t122 -48.5q82 0 130 45.5t48 131.5v204h-150q-78 0 -132 -46t-54 -160z" />
<glyph unicode="b" horiz-adv-x="733" d="M82 0v1487h123v-588h4q33 59 93 89t118 30q92 -2 140 -36t73 -91q23 -53 28 -126t7 -159v-143q0 -115 -13 -234q-8 -78 -34.5 -126t-62.5 -73.5t-75.5 -33.5t-70.5 -8q-82 0 -125 25.5t-78 72.5h-4v-86h-123zM205 295q0 -84 45 -136.5t123 -52.5q55 0 93 24t56 81 q12 41 15.5 110.5t3.5 165.5q0 106 -3 194.5t-22 131.5q-33 84 -139 84q-49 0 -82 -20.5t-53.5 -53t-28.5 -73.5t-8 -82v-373z" />
<glyph unicode="c" horiz-adv-x="679" d="M68 492q0 53 1 108t5 104.5t9 89.5t15 64q27 74 91.5 118t175.5 44q141 0 206.5 -74t65.5 -207l-129 -18v2q1 13 1 25q0 63 -35 107q-42 52 -116 52q-47 0 -84.5 -22.5t-58.5 -73.5q-16 -39 -19 -129t-6 -213q2 -80 4.5 -153.5t12.5 -110.5q16 -49 53 -78t96 -29 q74 0 114 45q38 43 38 129v9l129 -23q-6 -272 -287 -272q-61 0 -107 15t-78 42t-51.5 59.5t-27.5 69.5q-6 25 -10 62.5t-5 81.5t-2 89.5t-1 86.5z" />
<glyph unicode="d" horiz-adv-x="735" d="M63 479q0 123 4.5 220.5t28.5 164.5q25 68 78 112t156 44q72 0 119 -31t69 -69h4v567h125v-1487h-125v86h-4q-33 -47 -77 -72.5t-124 -25.5q-33 0 -72.5 8t-74.5 33.5t-62.5 74t-35.5 125.5q-6 63 -7.5 127t-1.5 123zM190 487q0 -96 3.5 -165.5t15.5 -110.5 q16 -57 52 -81t93 -24q80 0 125 52.5t45 136.5v407q0 82 -41 138.5t-127 56.5q-55 0 -93 -28.5t-54 -88.5q-10 -43 -14.5 -121.5t-4.5 -171.5z" />
<glyph unicode="e" horiz-adv-x="716" d="M66 492q0 53 1 106t5 102.5t9 89t15 66.5q29 76 92.5 120t176.5 44q123 0 191.5 -60.5t80.5 -171.5q2 -23 3 -45t1 -45v-225h-451q0 -20 1.5 -38.5t1.5 -39.5q0 -53 3 -108.5t13 -83.5q33 -102 147 -103q78 0 115 46.5t41 121.5l127 -24q-10 -125 -83 -191.5t-206 -66.5 q-63 0 -109 16t-78 42t-51.5 59.5t-27.5 68.5q-6 25 -10 62.5t-5 81.5t-2 89.5t-1 86.5zM193 575h323v107q0 43 -5 83t-22.5 70.5t-48 49t-82.5 18.5q-45 0 -83.5 -20.5t-61.5 -73.5q-12 -33 -15 -91.5t-5 -142.5z" />
<glyph unicode="f" horiz-adv-x="454" d="M23 899v107h106v251q0 119 62.5 174.5t160.5 55.5h74v-117h-53q-61 0 -88 -35t-27 -88v-241h164v-107h-164v-899h-129v899h-106z" />
<glyph unicode="g" horiz-adv-x="743" d="M68 422v98q0 61 1 124t7 132q8 78 35.5 126t64.5 73.5t77 35t71 9.5q82 0 125 -26.5t77 -73.5h4v86h123v-1076q0 -70 -12 -131t-44 -107t-89 -74t-146 -28q-123 0 -195.5 64.5t-76.5 187.5l125 23q2 -72 39 -116t117 -44t119.5 55.5t39.5 128.5v217h-4q-33 -59 -93 -87.5 t-118 -28.5q-92 0 -141 36.5t-74 96.5q-23 55 -27.5 134t-4.5 165zM195 518q0 -106 3 -194t21 -131q33 -84 139 -84q49 0 82 20.5t53.5 53t28.5 73.5t8 82v373q0 84 -45 136t-125 52q-53 0 -91 -23.5t-56 -80.5q-12 -41 -15 -111t-3 -166z" />
<glyph unicode="h" horiz-adv-x="745" d="M82 0v1487h127v-586h4q35 57 91 88t124 31q63 0 107.5 -20.5t73 -55.5t42 -84t13.5 -106v-754h-129v717q0 78 -36 127t-122 49q-82 0 -126 -54.5t-44 -131.5v-707h-125z" />
<glyph unicode="i" horiz-adv-x="333" d="M100 0v1008h127v-1008h-127zM100 1253v131h129v-131h-129z" />
<glyph unicode="j" horiz-adv-x="333" d="M-35 -295h23q76 0 96 45t20 129v1129h127v-1153q0 -55 -9 -103.5t-33.5 -84.5t-67.5 -56.5t-111 -20.5h-45v115zM104 1255v131h129v-131h-129z" />
<glyph unicode="k" horiz-adv-x="737" d="M86 0v1487h125v-1018h2q23 37 69 110.5t95 156.5t94 158t68 112h141l-234 -381q18 -39 57.5 -127t83.5 -185.5t84 -185.5t58 -127h-137q-10 23 -28.5 63.5t-40 90t-45 103.5t-45 103.5t-39 90.5t-27.5 63q-12 -18 -34 -54t-44.5 -76t-44 -77t-33.5 -55v-252h-125z" />
<glyph unicode="l" horiz-adv-x="387" d="M100 227v1260h125v-1235q0 -74 21.5 -113t91.5 -39h24v-114h-30q-57 0 -101.5 11t-73 38.5t-43 74t-14.5 117.5z" />
<glyph unicode="m" horiz-adv-x="1191" d="M96 0v1008h125v-107h6q35 57 82 88t117 31q82 0 132 -35t75 -94q39 59 97 95q55 34 124 34h8q61 0 106.5 -20.5t73 -56.5t41 -84t13.5 -105v-754h-127v717q0 72 -34 124t-118 52q-72 0 -115 -52.5t-45 -129.5v-711h-125v717q0 72 -32.5 124t-114.5 52q-80 0 -123 -56.5 t-43 -136.5v-700h-123z" />
<glyph unicode="n" horiz-adv-x="741" d="M78 0v1008h127v-107h4q35 57 91 88t124 31q63 0 107 -20.5t73 -55.5t42 -84t13 -106v-754h-129v717q0 78 -32.5 127t-118.5 49q-84 0 -130 -56.5t-46 -136.5v-700h-125z" />
<glyph unicode="o" horiz-adv-x="729" d="M68 405.5v86.5q0 53 1 107t5 103.5t9 89t15 64.5q27 74 93.5 119t177.5 45q115 0 177 -45t87 -113q18 -53 23.5 -135t5.5 -164v-100q0 -55 -2.5 -109.5t-8.5 -115.5q-8 -76 -37.5 -125.5t-71.5 -77t-91.5 -38.5t-96.5 -11q-125 0 -186.5 54t-81.5 132q-6 25 -10 62.5 t-6 81.5t-2 89.5zM193 455q0 -84 2 -149.5t14 -100.5q31 -104 158 -105q59 0 101 35t56 94q6 37 10.5 109t4.5 149q0 43 -1 90.5t-2 90.5t-5.5 77.5t-10.5 53.5q-16 53 -57 80.5t-96 27.5q-47 0 -88 -20.5t-64 -73.5q-14 -37 -18 -112.5t-4 -180.5v-65z" />
<glyph unicode="p" horiz-adv-x="731" d="M72 -395v1401h123v-86h4q35 47 77.5 73.5t124.5 26.5q33 0 73 -9.5t75 -35t62.5 -73.5t35.5 -126q6 -63 6 -127.5v-136.5q0 -113 -4 -208t-28 -163q-25 -68 -77 -110.5t-155 -42.5q-72 0 -120 29.5t-70 68.5h-4v-481h-123zM195 303q0 -82 39.5 -138t125.5 -56 q119 0 150 116q10 43 13 122t3 171q0 96 -3 166t-15 111q-16 57 -51 80.5t-92 23.5q-80 0 -125 -52t-45 -136v-408z" />
<glyph unicode="q" horiz-adv-x="741" d="M68 422v156q0 47 1 95t7 103q8 78 35.5 126t64.5 73.5t77 35t71 9.5q82 0 125 -26.5t77 -73.5h4v86h123v-1405h-123v505h-4q-33 -59 -93 -87.5t-118 -28.5q-98 0 -148 42t-73 109q-16 53 -21 128t-5 153zM195 518q0 -106 4 -194t20 -131q37 -84 139 -84q49 0 82 20.5 t53.5 53t28.5 73.5t8 82v373q0 84 -45 136t-125 52q-53 0 -91 -23.5t-56 -80.5q-12 -41 -15 -111t-3 -166z" />
<glyph unicode="r" horiz-adv-x="503" d="M106 0v1008h127v-127h5q35 80 88 110.5t131 30.5h15t15 -2v-148q-14 2 -27.5 3.5t-27.5 1.5q-94 0 -146.5 -56.5t-52.5 -173.5v-647h-127z" />
<glyph unicode="s" horiz-adv-x="677" d="M57 252l127 20v-7q0 -73 39 -118t109 -45h6q90 0 124 43t34 127q0 39 -6.5 68t-25 51.5t-51 41t-85.5 38.5q-80 31 -130.5 62.5t-78 66.5t-37.5 74t-10 82q0 117 67.5 191.5t208.5 74.5t209 -70.5t68 -197.5l-131 -19v15q0 75 -38 113q-42 42 -110 42q-45 0 -74.5 -13 t-46 -34.5t-23.5 -48.5t-7 -53q0 -29 7 -52.5t28.5 -45t59.5 -42t99 -41.5q76 -29 122 -59.5t69.5 -67t30.5 -79.5t7 -95q0 -127 -63 -207.5t-213 -80.5q-279 0 -285 266z" />
<glyph unicode="t" horiz-adv-x="460" d="M29 907v101h112v260h125v-260h142v-101h-142v-651q0 -76 29 -107.5t90 -31.5h27v-117h-62q-117 0 -164 65.5t-47 159.5v682h-110z" />
<glyph unicode="u" horiz-adv-x="745" d="M80 254v756h129v-719q0 -86 33.5 -133t119.5 -47q78 0 126.5 56t48.5 136v707h125v-1008h-127v104h-7q-35 -57 -90 -86.5t-123 -29.5q-63 0 -107 19.5t-73 55t-42 84t-13 105.5z" />
<glyph unicode="v" horiz-adv-x="663" d="M10 1008h133q6 -29 20.5 -88.5t29 -126t29 -127t20.5 -86.5q6 -27 18 -85.5t25.5 -123t26 -123t18.5 -84.5h6q6 27 17.5 85t25.5 124.5t26.5 125t18.5 85.5t19.5 86t27.5 124.5t27.5 125t19.5 88.5h133l-250 -1008h-143z" />
<glyph unicode="w" horiz-adv-x="1101" d="M20 1006h132q12 -59 31.5 -153.5t41.5 -203.5q14 -66 27.5 -132t26 -125.5t22.5 -111t16 -83.5h7q14 78 39.5 203.5t52.5 254.5l73 351h129l68 -334q25 -121 48.5 -241t47.5 -238h6l74 372q8 43 20.5 102.5t25 121t24.5 119t20 98.5h131q-59 -254 -116.5 -503 t-114.5 -503h-129l-70 303q-27 115 -51 230.5t-49 230.5h-6l-94 -438l-74 -326h-127z" />
<glyph unicode="x" horiz-adv-x="643" d="M12 0l244 516l-233 492h141l160 -383l155 383h146l-230 -492l238 -516h-141l-168 406l-174 -406h-138z" />
<glyph unicode="y" horiz-adv-x="667" d="M10 1006h133q29 -111 53.5 -220.5t51.5 -220.5q10 -43 22.5 -95t24.5 -104.5t23.5 -99.5t17.5 -78h6q23 98 45.5 206t44.5 206l98 406h127l-303 -1182q-12 -45 -29.5 -86t-44 -72t-65.5 -49t-94 -18h-47v108h32q61 0 92 43t52 135l29 113z" />
<glyph unicode="z" horiz-adv-x="602" d="M39 0v117l387 778h-354v111h491v-111l-389 -778h385v-117h-520z" />
<glyph unicode="{" horiz-adv-x="454" d="M49 567v78q39 8 64.5 32.5t41 61.5t20.5 82t5 92v295q0 104 53.5 161.5t145.5 57.5h41v-84h-35q-31 0 -50.5 -17t-29.5 -45t-14 -60.5t-4 -63.5v-266q0 -66 -12.5 -115t-31 -84t-40 -55.5t-39.5 -26.5v-6q20 -6 41.5 -26.5t40 -54.5t30 -81t11.5 -108v-283q0 -31 4 -62.5 t14 -59t29.5 -45t50.5 -17.5h35v-84h-41q-86 0 -142.5 52t-56.5 163v285q0 121 -24.5 194.5t-106.5 89.5z" />
<glyph unicode="|" horiz-adv-x="395" d="M154 -332v1798h98v-1798h-98z" />
<glyph unicode="}" horiz-adv-x="454" d="M51 -133h33q31 0 51.5 14.5t30.5 38t14 52t4 59.5v303q0 123 40 189.5t81 80.5v6q-39 14 -80 83t-41 198v266q0 31 -4 63.5t-14 60.5t-30.5 45t-51.5 17h-33v84h70q86 0 128 -68.5t42 -166.5v-279q0 -47 6 -92t20.5 -82t39 -61.5t63.5 -32.5v-78q-82 -16 -105.5 -90 t-23.5 -194v-285q0 -100 -49 -157.5t-127 -57.5h-64v84z" />
<glyph unicode="~" horiz-adv-x="751" d="M25 463q33 55 81 94t111 39q49 0 90 -14.5t80 -33t75 -32.5t73 -14q39 0 62.5 16.5t59.5 61.5l72 -45q-35 -59 -82 -101.5t-112 -42.5q-39 0 -78 15.5t-79 33t-80 32.5t-83 15q-37 0 -62.5 -16t-60.5 -57z" />
<glyph unicode="&#xa1;" horiz-adv-x="438" d="M152 883v133h133v-133h-133zM154 -410l12 1078h104l13 -1078h-129z" />
<glyph unicode="&#xa2;" horiz-adv-x="688" d="M68 428v74q0 51 1 105.5t4 101.5t9 86t14 63q23 66 77 108t146 52v217h60v-215q133 -4 195.5 -78t62.5 -203l-129 -18v6q0 82 -34 127t-95 51v-805q20 0 35 9q90 31 94 172l127 -23q-6 -258 -256 -270v-224h-60v224q-109 8 -163 62t-72 122q-10 39 -13 111.5t-3 144.5z M190 455q2 -70 3.5 -141.5t13.5 -108.5q27 -88 112 -103v799q-35 -4 -62.5 -26.5t-43.5 -63.5q-16 -39 -18 -129t-5 -213v-14z" />
<glyph unicode="&#xa3;" horiz-adv-x="780" d="M94 0v115q59 111 93 219t34 248q0 14 -1 28.5t-3 28.5h-123v106h115q-10 61 -25.5 111.5t-31 95.5t-25.5 88t-10 90q0 139 80 223.5t221 84.5q68 0 125 -19.5t99 -57.5t65.5 -96.5t21.5 -136.5l-127 -30q2 111 -45 167t-137 58q-80 0 -126 -51t-46 -131q0 -43 10 -85 t23.5 -88t28 -100.5t24.5 -122.5h207v-106h-197q0 -8 1 -26.5t1 -26.5q0 -145 -30.5 -254t-82.5 -217h472v-115h-611z" />
<glyph unicode="&#xa5;" horiz-adv-x="751" d="M49 1425h121l203 -659h6l201 659h125l-252 -761h223v-82h-242v-136h242v-84h-242v-364h-117v364h-233v84h233v136h-233v82h213z" />
<glyph unicode="&#xa7;" horiz-adv-x="854" d="M98 709q0 78 43 139t109 102q-53 47 -78 97.5t-25 111.5q0 59 21.5 110.5t60.5 88.5t93.5 58.5t119.5 21.5q88 0 159 -28t130 -79l-80 -82q-55 47 -104 65.5t-105 18.5q-82 0 -127 -50t-45 -116q0 -76 56.5 -124t146.5 -101q61 -35 114.5 -70.5t94.5 -77.5t64.5 -90.5 t23.5 -107.5q0 -76 -40 -138.5t-107 -105.5q98 -104 98 -219q0 -131 -91 -209t-245 -78q-76 0 -150.5 30t-130.5 77l68 80q57 -47 106.5 -65.5t108.5 -18.5q104 0 157.5 49t53.5 125q0 72 -57.5 136.5t-186.5 135.5q-66 37 -112.5 70t-79.5 69.5t-48.5 78.5t-15.5 96z M219 717q0 -47 34 -90t83 -80t103.5 -67.5t95.5 -51.5q53 20 84.5 66.5t31.5 95.5q0 82 -73.5 145.5t-233.5 141.5q-53 -16 -89 -58.5t-36 -101.5z" />
<glyph unicode="&#xa8;" horiz-adv-x="722" d="M150 1202v131h114v-131h-114zM459 1202v131h112v-131h-112z" />
<glyph unicode="&#xa9;" horiz-adv-x="1439" d="M104 698q0 154 40 286t118 228.5t193.5 150.5t267.5 54q150 0 264.5 -54t193.5 -150.5t119.5 -228.5t40.5 -286t-40.5 -283.5t-119.5 -226t-193.5 -150.5t-264.5 -54q-152 0 -267.5 54t-193.5 150.5t-118 226.5t-40 283zM201 698q0 -133 34.5 -247.5t101 -199.5t164 -133 t222.5 -48q129 0 227.5 49t164 133t99 198.5t33.5 247.5t-33.5 249t-100 202t-165 135t-225.5 49q-131 0 -229.5 -50t-163 -136t-97 -202t-32.5 -247zM500 481v402q0 109 65.5 166t163.5 57q45 0 87 -13.5t73 -41t48 -68.5t15 -96l-90 -21q0 72 -35.5 112t-101.5 40 q-57 0 -93 -37t-36 -88v-422q0 -53 37 -88t92 -35q129 0 135 150l92 -19q0 -113 -65.5 -167t-157.5 -54t-160.5 55.5t-68.5 167.5z" />
<glyph unicode="&#xaa;" horiz-adv-x="497" d="M29 760q0 39 9 76.5t31.5 68.5t60.5 50.5t97 19.5h111v84q0 41 -18.5 66.5t-75.5 25.5q-35 0 -62.5 -19.5t-38.5 -56.5l-102 31q20 63 72.5 103t134.5 40q96 0 148.5 -41t52.5 -147v-490h-111v45q-29 -31 -65.5 -42t-77.5 -11q-47 0 -79 16.5t-51.5 44t-27.5 63.5t-8 73z M133 764q0 -47 22.5 -74.5t75.5 -27.5q51 0 79 27.5t28 76.5v117h-86q-51 0 -85 -27t-34 -92z" />
<glyph unicode="&#xab;" horiz-adv-x="790" d="M84 475l219 381h125l-217 -381l217 -381h-125zM375 475l219 381h125l-215 -381l215 -381h-125z" />
<glyph unicode="&#xad;" horiz-adv-x="684" d="M100 530v113h506v-113h-506z" />
<glyph unicode="&#xae;" horiz-adv-x="995" d="M109 1004q0 98 25.5 181t74.5 143.5t121.5 94t169.5 33.5q92 0 164.5 -33.5t122 -94t75 -143.5t25.5 -181q0 -96 -25.5 -177.5t-75 -141.5t-122 -94t-164.5 -34q-96 0 -169 34t-122 94t-74.5 141t-25.5 178zM182 1008q0 -84 21.5 -153t61.5 -120t99.5 -78.5t135.5 -27.5 q80 0 139 29.5t98 81t57.5 120t18.5 148.5t-20.5 150.5t-60.5 122.5t-98 82t-134 30q-80 0 -139.5 -30t-99.5 -82t-59.5 -123t-19.5 -150zM362 731v541h134q150 0 149 -164q0 -43 -15.5 -82t-58.5 -61q20 -57 43 -117t45 -117h-84l-77 223h-60v-223h-76zM438 1020h56 q43 0 59 24.5t16 63.5q0 45 -17 69.5t-65 24.5h-49v-182z" />
<glyph unicode="&#xaf;" horiz-adv-x="720" d="M150 1204v111h456v-111h-456z" />
<glyph unicode="&#xb0;" horiz-adv-x="575" d="M98 1231q0 41 15.5 78t42 64.5t62.5 43t77 15.5q86 0 142.5 -58.5t56.5 -142.5t-56.5 -141.5t-142.5 -57.5q-82 0 -139.5 57.5t-57.5 141.5zM176 1231q0 -51 35 -86t84 -35q51 0 86 35t35 86q0 53 -35 88t-86 35q-49 0 -84 -35t-35 -88z" />
<glyph unicode="&#xb2;" horiz-adv-x="489" d="M53 1401q-2 98 47.5 155.5t149.5 57.5q102 0 148 -51.5t46 -137.5q0 -102 -55 -196l-213 -377h260v-96h-379v80l244 438q20 37 28.5 73.5t8.5 75.5t-18.5 70t-71.5 31q-41 0 -65.5 -34t-24.5 -106z" />
<glyph unicode="&#xb3;" horiz-adv-x="489" d="M51 1417q4 84 53.5 139.5t149.5 55.5q53 0 88 -14.5t55.5 -39t28.5 -57.5t8 -69v-72q0 -47 -9 -87t-56 -73q45 -23 55 -59.5t10 -89.5v-117q0 -88 -47 -137t-139 -49q-104 0 -149.5 54t-41.5 148l105 13q-4 -57 16.5 -91t71.5 -34q41 0 62.5 26.5t21.5 69.5v121 q0 53 -23.5 75.5t-70.5 22.5h-52v88h54q45 0 68.5 20.5t23.5 67.5v103q0 35 -17.5 63.5t-66.5 28.5q-51 0 -72.5 -35t-21.5 -88z" />
<glyph unicode="&#xb4;" horiz-adv-x="716" d="M289 1167l137 326l121 -43l-189 -311z" />
<glyph unicode="&#xb6;" horiz-adv-x="821" d="M39 1073q0 74 14.5 144.5t46 125t86 87t133.5 32.5h449v-131h-96v-1499h-115v1499h-131v-1499h-115v866q-14 0 -31.5 2t-27.5 7q-49 6 -89 37.5t-67.5 82t-42 114t-14.5 132.5z" />
<glyph unicode="&#xb7;" horiz-adv-x="335" d="M96 467v151h144v-151h-144z" />
<glyph unicode="&#xb8;" horiz-adv-x="882" d="M209 -387l22 61q35 -16 65 -20t54 -4q37 0 62.5 19.5t25.5 58.5q0 41 -27.5 64.5t-88.5 21.5l-33 26l53 191l66 -4l-37 -148q47 -4 77.5 -19.5t49 -37t25.5 -47t7 -45.5q0 -25 -9 -51.5t-28.5 -48t-50 -36t-75.5 -14.5q-23 0 -69 5t-89 28z" />
<glyph unicode="&#xb9;" horiz-adv-x="409" d="M80 1405v106l139 97h98v-852h-100v745z" />
<glyph unicode="&#xba;" horiz-adv-x="501" d="M37 841.5v57.5q0 68 4 136.5t18 99.5q18 51 66.5 81.5t126.5 30.5q84 0 129 -30.5t63 -77.5q14 -33 17.5 -87.5t3.5 -109.5v-61q0 -37 -2 -74t-6 -76q-6 -47 -27.5 -80t-51.5 -53t-66 -28.5t-68 -8.5q-90 0 -134 38t-61 87q-4 16 -7 41t-4 54.5t-1 60zM143 874 q0 -53 1 -95t10 -64q18 -59 98 -60q39 0 64.5 19.5t33.5 54.5q4 25 7 71t3 97q0 53 -2 112.5t-10 82.5q-10 29 -35.5 45t-60.5 16q-70 0 -92 -53q-10 -23 -13.5 -72t-3.5 -113v-41z" />
<glyph unicode="&#xbb;" horiz-adv-x="790" d="M86 94l215 381l-215 381h123l219 -381l-219 -381h-123zM377 94l217 381l-217 381h125l219 -381l-219 -381h-125z" />
<glyph unicode="&#xbc;" horiz-adv-x="1187" d="M92 1221v106l139 96h99v-852h-101v746zM195 -35l643 1497h86l-643 -1497h-86zM651 135v84l193 633h104l-192 -625h166v232h100v-232h72v-92h-72v-135h-100v135h-271z" />
<glyph unicode="&#xbd;" horiz-adv-x="1187" d="M98 1221v106l140 96h98v-852h-100v746zM166 -35l643 1497h86l-643 -1497h-86zM696 645q-2 98 47.5 155.5t149.5 57.5q102 0 148 -51t46 -137q0 -102 -55 -197l-213 -377h260v-96h-379v80l244 438q20 37 28.5 74t8.5 76t-18.5 69.5t-71.5 30.5q-41 0 -65.5 -34t-24.5 -105 z" />
<glyph unicode="&#xbe;" horiz-adv-x="1187" d="M70 1233q4 84 53 139t149 55q53 0 88 -14t55.5 -38.5t29 -57.5t8.5 -70v-71q0 -47 -9.5 -87t-56.5 -73q45 -23 55.5 -59.5t10.5 -90.5v-116q0 -88 -47.5 -137.5t-139.5 -49.5q-104 0 -149 54.5t-41 148.5l104 12q-4 -57 16.5 -91t71.5 -34q41 0 62.5 27t21.5 70v120 q0 53 -23.5 76t-70.5 23h-51v88h53q45 0 68.5 20.5t23.5 67.5v102q0 35 -17.5 63.5t-66.5 28.5q-51 0 -72.5 -34.5t-21.5 -87.5zM246 -35l643 1497h86l-643 -1497h-86zM674 135v84l192 633h105l-193 -625h166v232h100v-232h72v-92h-72v-135h-100v135h-270z" />
<glyph unicode="&#xbf;" horiz-adv-x="731" d="M96 -90q0 51 4 89t13.5 68.5t23 58.5t31.5 62q35 55 63.5 98.5t49 82.5t32 74.5t13.5 76.5v146h120v-168q0 -43 -12 -84t-35 -82q-47 -82 -79.5 -133.5t-53 -93.5t-31 -83.5t-10.5 -103.5q0 -49 9.5 -90t31 -70.5t57 -46t89.5 -16.5q72 0 125 49t57 160l125 -15 q-4 -156 -91 -234.5t-216 -78.5q-172 0 -244 91t-72 243zM322 879v133h129v-133h-129z" />
<glyph unicode="&#xc0;" horiz-adv-x="790" d="M25 0l307 1425h127l313 -1425h-125l-76 344h-354l-74 -344h-118zM86 1667l86 96l277 -223l-48 -59zM238 463h311l-86 414l-66 340h-6l-67 -345z" />
<glyph unicode="&#xc1;" horiz-adv-x="790" d="M25 0l307 1425h127l313 -1425h-125l-76 344h-354l-74 -344h-118zM238 463h311l-86 414l-66 340h-6l-67 -345zM336 1538l276 223l82 -96l-311 -186z" />
<glyph unicode="&#xc2;" horiz-adv-x="790" d="M25 0l307 1425h127l313 -1425h-125l-76 344h-354l-74 -344h-118zM106 1542l252 227h82l238 -223l-53 -49l-232 154l-231 -156zM238 463h311l-86 414l-66 340h-6l-67 -345z" />
<glyph unicode="&#xc3;" horiz-adv-x="790" d="M25 0l307 1425h127l313 -1425h-125l-76 344h-354l-74 -344h-118zM111 1573q25 51 68.5 93t94.5 42q31 0 57.5 -12.5t54.5 -26.5t56.5 -26.5t61.5 -12.5q51 0 104 80l66 -43q-33 -68 -79 -103.5t-89 -35.5q-31 0 -60.5 12t-58.5 25.5t-55.5 26t-50.5 12.5q-53 0 -103 -72z M238 463h311l-86 414l-66 340h-6l-67 -345z" />
<glyph unicode="&#xc4;" horiz-adv-x="790" d="M25 0l307 1425h127l313 -1425h-125l-76 344h-354l-74 -344h-118zM184 1534v129h115v-129h-115zM238 463h311l-86 414l-66 340h-6l-67 -345zM492 1534v129h112v-129h-112z" />
<glyph unicode="&#xc5;" horiz-adv-x="790" d="M25 0l307 1425h127l313 -1425h-125l-76 344h-354l-74 -344h-118zM219 1634q0 74 51.5 125t124.5 51q72 0 123 -51t51 -125t-51 -125t-123 -51q-74 0 -125 51.5t-51 124.5zM238 463h311l-86 414l-66 340h-6l-67 -345zM291 1632q0 -43 30.5 -73.5t73.5 -30.5q41 0 72 30.5 t31 73.5t-31 74t-72 31q-43 0 -73.5 -31t-30.5 -74z" />
<glyph unicode="&#xc6;" horiz-adv-x="1277" d="M8 0l553 1425h670v-116h-469v-523h409v-116h-409v-553h469v-117h-596v381h-354l-146 -381h-127zM324 500h311v809h-4z" />
<glyph unicode="&#xc7;" horiz-adv-x="786" d="M96 315v752q0 76 16.5 143.5t53.5 117.5t97.5 80t150.5 30q150 0 231.5 -83t81.5 -233l-127 -24q2 111 -47 167t-141 56q-53 0 -89 -20.5t-58.5 -54.5t-33 -77t-10.5 -88v-759q0 -41 10.5 -81t33 -71t58 -49.5t89.5 -18.5q84 0 135 52.5t53 171.5l129 -23 q-4 -145 -77.5 -225t-196.5 -90l-27 -109q47 -4 78 -19.5t49 -37t25.5 -47t7.5 -45.5q0 -25 -9.5 -51.5t-29 -48t-50 -36t-75.5 -14.5q-23 0 -69 5t-89 28l23 61q35 -16 64.5 -20t54.5 -4q37 0 62.5 19.5t25.5 58.5q0 41 -28 64.5t-89 21.5l-33 26l41 148q-143 6 -217 90 t-74 237z" />
<glyph unicode="&#xc8;" horiz-adv-x="739" d="M109 0v1425h596v-116h-472v-523h412v-116h-412v-555h472v-115h-596zM119 1667l86 96l276 -223l-47 -59z" />
<glyph unicode="&#xc9;" horiz-adv-x="739" d="M109 0v1425h596v-116h-472v-523h412v-116h-412v-555h472v-115h-596zM276 1538l277 223l82 -96l-311 -186z" />
<glyph unicode="&#xca;" horiz-adv-x="739" d="M109 0v1425h596v-116h-472v-523h412v-116h-412v-555h472v-115h-596zM109 1542l251 227h82l238 -223l-53 -49l-232 154l-231 -156z" />
<glyph unicode="&#xcb;" horiz-adv-x="739" d="M109 0v1425h596v-116h-472v-523h412v-116h-412v-555h472v-115h-596zM186 1534v129h115v-129h-115zM494 1534v129h112v-129h-112z" />
<glyph unicode="&#xcc;" horiz-adv-x="374" d="M-104 1667l86 96l276 -223l-47 -59zM123 0v1425h129v-1425h-129z" />
<glyph unicode="&#xcd;" horiz-adv-x="374" d="M123 0v1425h129v-1425h-129zM123 1538l276 223l82 -96l-311 -186z" />
<glyph unicode="&#xce;" horiz-adv-x="374" d="M-96 1542l252 227h82l237 -223l-53 -49l-232 154l-231 -156zM123 0v1425h129v-1425h-129z" />
<glyph unicode="&#xcf;" horiz-adv-x="374" d="M-20 1534v129h114v-129h-114zM123 0v1425h129v-1425h-129zM287 1534v129h112v-129h-112z" />
<glyph unicode="&#xd0;" horiz-adv-x="847" d="M12 700v99h97v626h319q129 0 201.5 -44t101.5 -148q23 -84 23 -212v-306v-304t-25 -206q-18 -61 -51 -100t-74 -63t-90 -33t-104 -9h-301v700h-97zM233 115h181q111 0 161 61.5t50 183.5v705q0 55 -10.5 100t-35 77t-65.5 50.5t-102 18.5h-179v-512h183v-99h-183v-585z " />
<glyph unicode="&#xd1;" horiz-adv-x="903" d="M102 0v1425h119q12 -31 36 -88t53.5 -127.5t61 -147.5t61.5 -147.5t53.5 -128t37.5 -88.5l144 -356h8v1083h125v-1425h-119q-12 31 -35.5 87t-53.5 127t-61.5 147.5t-61.5 146.5t-54.5 126t-36.5 87l-146 356h-6v-1077h-125zM168 1561q25 51 69 93t95 42q31 0 57.5 -12.5 t54 -27t56 -26.5t61.5 -12q51 0 105 80l65 -43q-33 -68 -79 -103.5t-89 -35.5q-31 0 -60.5 12t-58 25.5t-55.5 25.5t-51 12q-53 0 -102 -71z" />
<glyph unicode="&#xd2;" horiz-adv-x="837" d="M96 319v750q0 76 16.5 143.5t54.5 117.5t100.5 79t152.5 29q92 0 154.5 -26t99.5 -74t53 -114.5t16 -148.5v-723q0 -180 -80.5 -273t-244.5 -93t-243 88t-79 245zM154 1667l86 96l276 -223l-47 -59zM219 317q0 -41 11.5 -79.5t35 -69.5t61.5 -49.5t91 -18.5 q109 0 153.5 70t44.5 168v756q0 45 -10 86t-32.5 72.5t-60.5 51t-93 19.5q-59 0 -98 -25.5t-61.5 -64.5t-32 -85t-9.5 -87v-744z" />
<glyph unicode="&#xd3;" horiz-adv-x="837" d="M96 319v750q0 76 16.5 143.5t54.5 117.5t100.5 79t152.5 29q92 0 154.5 -26t99.5 -74t53 -114.5t16 -148.5v-723q0 -180 -80.5 -273t-244.5 -93t-243 88t-79 245zM219 317q0 -41 11.5 -79.5t35 -69.5t61.5 -49.5t91 -18.5q109 0 153.5 70t44.5 168v756q0 45 -10 86 t-32.5 72.5t-60.5 51t-93 19.5q-59 0 -98 -25.5t-61.5 -64.5t-32 -85t-9.5 -87v-744zM330 1538l276 223l82 -96l-311 -186z" />
<glyph unicode="&#xd4;" horiz-adv-x="837" d="M96 319v750q0 76 16.5 143.5t54.5 117.5t100.5 79t152.5 29q92 0 154.5 -26t99.5 -74t53 -114.5t16 -148.5v-723q0 -180 -80.5 -273t-244.5 -93t-243 88t-79 245zM133 1542l252 227h82l238 -223l-54 -49l-231 154l-232 -156zM219 317q0 -41 11.5 -79.5t35 -69.5 t61.5 -49.5t91 -18.5q109 0 153.5 70t44.5 168v756q0 45 -10 86t-32.5 72.5t-60.5 51t-93 19.5q-59 0 -98 -25.5t-61.5 -64.5t-32 -85t-9.5 -87v-744z" />
<glyph unicode="&#xd5;" horiz-adv-x="837" d="M96 319v750q0 76 16.5 143.5t54.5 117.5t100.5 79t152.5 29q92 0 154.5 -26t99.5 -74t53 -114.5t16 -148.5v-723q0 -180 -80.5 -273t-244.5 -93t-243 88t-79 245zM135 1573q25 51 69 93t95 42q31 0 57.5 -12.5t54 -26.5t56.5 -26.5t61 -12.5q51 0 105 80l65 -43 q-33 -68 -79 -103.5t-89 -35.5q-31 0 -60.5 12t-58 25.5t-55 26t-51.5 12.5q-53 0 -102 -72zM219 317q0 -41 11.5 -79.5t35 -69.5t61.5 -49.5t91 -18.5q109 0 153.5 70t44.5 168v756q0 45 -10 86t-32.5 72.5t-60.5 51t-93 19.5q-59 0 -98 -25.5t-61.5 -64.5t-32 -85 t-9.5 -87v-744z" />
<glyph unicode="&#xd6;" horiz-adv-x="837" d="M96 319v750q0 76 16.5 143.5t54.5 117.5t100.5 79t152.5 29q92 0 154.5 -26t99.5 -74t53 -114.5t16 -148.5v-723q0 -180 -80.5 -273t-244.5 -93t-243 88t-79 245zM207 1534v129h115v-129h-115zM219 317q0 -41 11.5 -79.5t35 -69.5t61.5 -49.5t91 -18.5q109 0 153.5 70 t44.5 168v756q0 45 -10 86t-32.5 72.5t-60.5 51t-93 19.5q-59 0 -98 -25.5t-61.5 -64.5t-32 -85t-9.5 -87v-744zM514 1534v129h113v-129h-113z" />
<glyph unicode="&#xd8;" horiz-adv-x="837" d="M72 6l57 135q-33 72 -33 178v750q0 76 16.5 143.5t54.5 117.5t100.5 79t152.5 29q82 0 139 -20.5t96 -59.5l39 88l74 -29l-59 -137q18 -43 26 -94t8 -111v-723q0 -180 -80.5 -273t-244.5 -93q-156 0 -238 82l-39 -91zM219 348l375 866q-20 47 -62.5 78t-111.5 31 q-59 0 -98 -25.5t-61.5 -64.5t-32 -85t-9.5 -87v-713zM242 207q23 -47 64.5 -77t111.5 -30q109 0 153.5 70t44.5 168v731z" />
<glyph unicode="&#xd9;" horiz-adv-x="833" d="M92 319v1104h125v-1106q0 -41 11.5 -79.5t35 -69.5t61 -49.5t91.5 -18.5q109 0 153.5 70t44.5 168v1085h125v-1071q0 -180 -79.5 -273t-243.5 -93q-162 0 -243 88t-81 245zM137 1667l86 96l277 -223l-47 -59z" />
<glyph unicode="&#xda;" horiz-adv-x="833" d="M92 319v1104h125v-1106q0 -41 11.5 -79.5t35 -69.5t61 -49.5t91.5 -18.5q109 0 153.5 70t44.5 168v1085h125v-1071q0 -180 -79.5 -273t-243.5 -93q-162 0 -243 88t-81 245zM334 1538l276 223l82 -96l-311 -186z" />
<glyph unicode="&#xdb;" horiz-adv-x="833" d="M92 319v1104h125v-1106q0 -41 11.5 -79.5t35 -69.5t61 -49.5t91.5 -18.5q109 0 153.5 70t44.5 168v1085h125v-1071q0 -180 -79.5 -273t-243.5 -93q-162 0 -243 88t-81 245zM125 1542l252 227h82l237 -223l-53 -49l-231 154l-232 -156z" />
<glyph unicode="&#xdc;" horiz-adv-x="833" d="M92 319v1104h125v-1106q0 -41 11.5 -79.5t35 -69.5t61 -49.5t91.5 -18.5q109 0 153.5 70t44.5 168v1085h125v-1071q0 -180 -79.5 -273t-243.5 -93q-162 0 -243 88t-81 245zM211 1534v129h115v-129h-115zM518 1534v129h113v-129h-113z" />
<glyph unicode="&#xdd;" horiz-adv-x="743" d="M23 1425h131l122 -374q6 -18 18.5 -57.5t27 -84.5t26.5 -84t19 -57h6l90 287l123 370h131q-12 -35 -35 -99t-50.5 -145t-58 -168t-58.5 -167t-49.5 -145.5t-33.5 -98.5v-604h-125v604q-12 33 -33.5 98.5t-49 145.5t-58.5 167t-58.5 168t-50 145.5t-34.5 98.5zM309 1538 l277 223l82 -96l-312 -186z" />
<glyph unicode="&#xde;" horiz-adv-x="800" d="M106 1425h123v-280h164q106 0 177 -29t111 -83t56.5 -131t16.5 -171q0 -90 -16.5 -168t-57.5 -134t-113.5 -88t-183.5 -32h-150v-309h-124zM233 426h144q78 0 127 21.5t77.5 61.5t39 96.5t10.5 123.5q0 63 -9.5 118.5t-37 95.5t-76.5 62.5t-127 22.5h-148v-602z" />
<glyph unicode="&#xdf;" horiz-adv-x="749" d="M78 0v1202q0 66 21.5 118t59.5 89t90 57.5t113 20.5q59 0 110.5 -17.5t90.5 -51.5t60.5 -84t21.5 -117v-123q0 -70 -27.5 -126.5t-95.5 -82.5v-6q51 -16 80 -44t42 -64t16.5 -79t3.5 -86v-321q0 -61 -13.5 -115.5t-42 -95.5t-78 -64.5t-118.5 -23.5h-56v100h21 q92 0 126 47t34 135v381q0 86 -48.5 130t-111.5 40v109q68 8 104.5 48t36.5 109v123q0 72 -43 116t-115 44t-115.5 -47t-43.5 -113v-1208h-123z" />
<glyph unicode="&#xe0;" horiz-adv-x="720" d="M51 274q0 57 12.5 114.5t45 104t86 76t137.5 29.5h178v147q0 72 -33 115t-127 43q-45 0 -93 -25.5t-62 -84.5l-119 36q27 88 98.5 139.5t181.5 51.5q133 0 206 -60.5t73 -211.5v-748h-127v90h-2q-45 -63 -101.5 -82.5t-119.5 -19.5q-66 0 -110 24.5t-71.5 64.5t-40 91 t-12.5 106zM162 1450l119 43l139 -326l-70 -28zM174 281q0 -78 36 -126.5t122 -48.5q82 0 130 45.5t48 131.5v204h-150q-78 0 -132 -46t-54 -160z" />
<glyph unicode="&#xe1;" horiz-adv-x="720" d="M51 274q0 57 12.5 114.5t45 104t86 76t137.5 29.5h178v147q0 72 -33 115t-127 43q-45 0 -93 -25.5t-62 -84.5l-119 36q27 88 98.5 139.5t181.5 51.5q133 0 206 -60.5t73 -211.5v-748h-127v90h-2q-45 -63 -101.5 -82.5t-119.5 -19.5q-66 0 -110 24.5t-71.5 64.5t-40 91 t-12.5 106zM174 281q0 -78 36 -126.5t122 -48.5q82 0 130 45.5t48 131.5v204h-150q-78 0 -132 -46t-54 -160zM293 1167l137 326l121 -43l-189 -311z" />
<glyph unicode="&#xe2;" horiz-adv-x="720" d="M51 274q0 57 12.5 114.5t45 104t86 76t137.5 29.5h178v147q0 72 -33 115t-127 43q-45 0 -93 -25.5t-62 -84.5l-119 36q27 88 98.5 139.5t181.5 51.5q133 0 206 -60.5t73 -211.5v-748h-127v90h-2q-45 -63 -101.5 -82.5t-119.5 -19.5q-66 0 -110 24.5t-71.5 64.5t-40 91 t-12.5 106zM76 1176l252 268h80l239 -264l-55 -50l-230 195l-231 -195zM174 281q0 -78 36 -126.5t122 -48.5q82 0 130 45.5t48 131.5v204h-150q-78 0 -132 -46t-54 -160z" />
<glyph unicode="&#xe3;" horiz-adv-x="720" d="M51 274q0 57 12.5 114.5t45 104t86 76t137.5 29.5h178v147q0 72 -33 115t-127 43q-45 0 -93 -25.5t-62 -84.5l-119 36q27 88 98.5 139.5t181.5 51.5q133 0 206 -60.5t73 -211.5v-748h-127v90h-2q-45 -63 -101.5 -82.5t-119.5 -19.5q-66 0 -110 24.5t-71.5 64.5t-40 91 t-12.5 106zM88 1225q25 51 69 93t95 42q31 0 57.5 -12.5t54 -26.5t56.5 -26.5t61 -12.5q51 0 105 80l65 -43q-33 -68 -79 -103.5t-89 -35.5q-31 0 -60.5 12t-58 25.5t-55 25.5t-51.5 12q-53 0 -102 -71zM174 281q0 -78 36 -126.5t122 -48.5q82 0 130 45.5t48 131.5v204h-150 q-78 0 -132 -46t-54 -160z" />
<glyph unicode="&#xe4;" horiz-adv-x="720" d="M51 274q0 57 12.5 114.5t45 104t86 76t137.5 29.5h178v147q0 72 -33 115t-127 43q-45 0 -93 -25.5t-62 -84.5l-119 36q27 88 98.5 139.5t181.5 51.5q133 0 206 -60.5t73 -211.5v-748h-127v90h-2q-45 -63 -101.5 -82.5t-119.5 -19.5q-66 0 -110 24.5t-71.5 64.5t-40 91 t-12.5 106zM152 1202v131h114v-131h-114zM174 281q0 -78 36 -126.5t122 -48.5q82 0 130 45.5t48 131.5v204h-150q-78 0 -132 -46t-54 -160zM461 1202v131h112v-131h-112z" />
<glyph unicode="&#xe5;" horiz-adv-x="720" d="M51 274q0 57 12.5 114.5t45 104t86 76t137.5 29.5h178v147q0 72 -33 115t-127 43q-45 0 -93 -25.5t-62 -84.5l-119 36q27 88 98.5 139.5t181.5 51.5q133 0 206 -60.5t73 -211.5v-748h-127v90h-2q-45 -63 -101.5 -82.5t-119.5 -19.5q-66 0 -110 24.5t-71.5 64.5t-40 91 t-12.5 106zM174 281q0 -78 36 -126.5t122 -48.5q82 0 130 45.5t48 131.5v204h-150q-78 0 -132 -46t-54 -160zM205 1294q0 74 51 125t125 51q72 0 123 -51t51 -125t-51 -125t-123 -51q-74 0 -125 51.5t-51 124.5zM276 1292q0 -43 31 -73.5t74 -30.5q41 0 71.5 30.5t30.5 73.5 t-30.5 74t-71.5 31q-43 0 -74 -31t-31 -74z" />
<glyph unicode="&#xe6;" horiz-adv-x="1144" d="M47 276q0 57 14.5 113.5t47 103t86 75t131.5 28.5h178v149q0 72 -36 115t-124 43q-55 0 -97 -28.5t-57 -81.5l-118 36q25 88 99.5 140.5t178.5 52.5q92 0 145.5 -26.5t77.5 -73.5q76 100 236 100q141 0 212 -77t71 -218v-240h-455v-60.5t1 -77.5t3 -72.5t6 -45.5 q10 -57 50 -93t108 -36q76 0 113.5 47.5t44.5 110.5l124 -29q-16 -111 -83.5 -178t-206.5 -67q-92 0 -152.5 34.5t-93.5 90.5q-31 -41 -63.5 -66t-64.5 -37t-60.5 -16t-53.5 -4q-78 0 -128 24.5t-79.5 65.5t-42 92t-12.5 106zM170 283q0 -72 39 -123t129 -51q74 0 120 46 t46 130v204h-148q-78 0 -132 -47t-54 -159zM637 594h328v111q0 84 -36 141t-128 57q-121 0 -150 -123q-4 -10 -6 -31.5t-4 -48t-3 -55.5t-1 -51z" />
<glyph unicode="&#xe7;" horiz-adv-x="679" d="M68 492q0 53 1 108t5 104.5t9 89.5t15 64q27 74 91.5 118t175.5 44q141 0 206.5 -74t65.5 -207l-129 -18v2q8 80 -34 132t-116 52q-47 0 -84.5 -22.5t-58.5 -73.5q-16 -39 -19 -129t-6 -213q2 -80 4.5 -153.5t12.5 -110.5q16 -49 53 -78t96 -29q74 0 114 45t38 138 l129 -23q-6 -252 -248 -270l-27 -109q47 -4 78 -19.5t49.5 -37t25.5 -47t7 -45.5q0 -25 -9 -51.5t-28.5 -48t-50.5 -36t-76 -14.5q-23 0 -68.5 5t-88.5 28l22 61q35 -16 64.5 -20t54.5 -4q37 0 62.5 19.5t25.5 58.5q0 41 -27.5 64.5t-89.5 21.5l-32 26l41 148 q-111 8 -165.5 62t-70.5 122q-6 25 -10 62.5t-5 81.5t-2 89.5t-1 86.5z" />
<glyph unicode="&#xe8;" horiz-adv-x="716" d="M66 492q0 53 1 106t5 102.5t9 89t15 66.5q29 76 92.5 120t176.5 44q123 0 191.5 -60.5t80.5 -171.5q2 -23 3 -45t1 -45v-225h-451q0 -20 1.5 -38.5t1.5 -39.5q0 -53 3 -108.5t13 -83.5q33 -102 147 -103q78 0 115 46.5t41 121.5l127 -24q-10 -125 -83 -191.5t-206 -66.5 q-63 0 -109 16t-78 42t-51.5 59.5t-27.5 68.5q-6 25 -10 62.5t-5 81.5t-2 89.5t-1 86.5zM176 1450l119 43l139 -326l-69 -28zM193 575h323v107q0 43 -5 83t-22.5 70.5t-48 49t-82.5 18.5q-45 0 -83.5 -20.5t-61.5 -73.5q-12 -33 -15 -91.5t-5 -142.5z" />
<glyph unicode="&#xe9;" horiz-adv-x="716" d="M66 492q0 53 1 106t5 102.5t9 89t15 66.5q29 76 92.5 120t176.5 44q123 0 191.5 -60.5t80.5 -171.5q2 -23 3 -45t1 -45v-225h-451q0 -20 1.5 -38.5t1.5 -39.5q0 -53 3 -108.5t13 -83.5q33 -102 147 -103q78 0 115 46.5t41 121.5l127 -24q-10 -125 -83 -191.5t-206 -66.5 q-63 0 -109 16t-78 42t-51.5 59.5t-27.5 68.5q-6 25 -10 62.5t-5 81.5t-2 89.5t-1 86.5zM193 575h323v107q0 43 -5 83t-22.5 70.5t-48 49t-82.5 18.5q-45 0 -83.5 -20.5t-61.5 -73.5q-12 -33 -15 -91.5t-5 -142.5zM301 1167l137 326l121 -43l-188 -311z" />
<glyph unicode="&#xea;" horiz-adv-x="716" d="M66 492q0 53 1 106t5 102.5t9 89t15 66.5q29 76 92.5 120t176.5 44q123 0 191.5 -60.5t80.5 -171.5q2 -23 3 -45t1 -45v-225h-451q0 -20 1.5 -38.5t1.5 -39.5q0 -53 3 -108.5t13 -83.5q33 -102 147 -103q78 0 115 46.5t41 121.5l127 -24q-10 -125 -83 -191.5t-206 -66.5 q-63 0 -109 16t-78 42t-51.5 59.5t-27.5 68.5q-6 25 -10 62.5t-5 81.5t-2 89.5t-1 86.5zM74 1176l252 268h80l239 -264l-55 -50l-230 195l-231 -195zM193 575h323v107q0 43 -5 83t-22.5 70.5t-48 49t-82.5 18.5q-45 0 -83.5 -20.5t-61.5 -73.5q-12 -33 -15 -91.5t-5 -142.5z " />
<glyph unicode="&#xeb;" horiz-adv-x="716" d="M66 492q0 53 1 106t5 102.5t9 89t15 66.5q29 76 92.5 120t176.5 44q123 0 191.5 -60.5t80.5 -171.5q2 -23 3 -45t1 -45v-225h-451q0 -20 1.5 -38.5t1.5 -39.5q0 -53 3 -108.5t13 -83.5q33 -102 147 -103q78 0 115 46.5t41 121.5l127 -24q-10 -125 -83 -191.5t-206 -66.5 q-63 0 -109 16t-78 42t-51.5 59.5t-27.5 68.5q-6 25 -10 62.5t-5 81.5t-2 89.5t-1 86.5zM143 1202v131h115v-131h-115zM193 575h323v107q0 43 -5 83t-22.5 70.5t-48 49t-82.5 18.5q-45 0 -83.5 -20.5t-61.5 -73.5q-12 -33 -15 -91.5t-5 -142.5zM453 1202v131h112v-131h-112z " />
<glyph unicode="&#xec;" horiz-adv-x="356" d="M-29 1450l119 43l139 -326l-69 -28zM123 0v1008h127v-1008h-127z" />
<glyph unicode="&#xed;" horiz-adv-x="352" d="M100 0v1008h127v-1008h-127zM121 1167l137 326l121 -43l-189 -311z" />
<glyph unicode="&#xee;" horiz-adv-x="489" d="M-41 1176l252 268h80l239 -264l-55 -50l-229 195l-232 -195zM176 0v1008h127v-1008h-127z" />
<glyph unicode="&#xef;" horiz-adv-x="339" d="M-41 1202v131h115v-131h-115zM109 0v1008h127v-1008h-127zM268 1202v131h113v-131h-113z" />
<glyph unicode="&#xf0;" horiz-adv-x="741" d="M68 487q4 131 10 207t22 121q27 70 89.5 115t160.5 49q16 0 42 -4t53.5 -14.5t53 -29t44.5 -46.5h2v56.5t-2 55.5q0 53 -8.5 102.5t-24.5 90.5l-143 -103l-43 64l149 106q-6 10 -13 17.5t-18 17.5q-39 41 -100 66.5t-127 36.5l12 102q104 -10 175 -40t110 -64 q35 -31 59 -66l125 90l45 -59l-131 -94q35 -61 44.5 -230.5t9.5 -455.5q0 -96 -4.5 -190.5t-8.5 -147.5q-8 -78 -37.5 -127.5t-70.5 -77t-91.5 -38.5t-97.5 -11q-61 0 -107 15t-78 41t-52.5 60.5t-30.5 73.5q-6 23 -9 58.5t-5 78.5t-3 88t-1 86zM193 449q0 -84 2 -147.5 t14 -98.5q16 -51 54 -79t104 -28q55 0 96 32t57 85q10 29 14.5 104.5t4.5 161.5v137q0 41 -4.5 76t-10.5 60q-16 53 -52.5 83.5t-102.5 30.5q-51 0 -91 -23.5t-63 -76.5q-12 -35 -16 -87t-6 -151v-79z" />
<glyph unicode="&#xf1;" horiz-adv-x="741" d="M68 1225q25 51 68.5 93t94.5 42q31 0 57.5 -12.5t54.5 -26.5t56.5 -26.5t61.5 -12.5q51 0 104 80l66 -43q-33 -68 -79 -103.5t-89 -35.5q-31 0 -60.5 12t-58.5 25.5t-55.5 25.5t-50.5 12q-53 0 -103 -71zM78 0v1008h127v-107h4q35 57 91 88t124 31q63 0 107 -20.5 t73 -55.5t42 -84t13 -106v-754h-129v717q0 78 -32.5 127t-118.5 49q-84 0 -130 -56.5t-46 -136.5v-700h-125z" />
<glyph unicode="&#xf2;" horiz-adv-x="729" d="M68 405.5v86.5q0 53 1 107t5 103.5t9 89t15 64.5q27 74 93.5 119t177.5 45q115 0 177 -45t87 -113q18 -53 23.5 -135t5.5 -164v-100q0 -55 -2.5 -109.5t-8.5 -115.5q-8 -76 -37.5 -125.5t-71.5 -77t-91.5 -38.5t-96.5 -11q-125 0 -186.5 54t-81.5 132q-6 25 -10 62.5 t-6 81.5t-2 89.5zM156 1450l118 43l140 -326l-70 -28zM193 455q0 -84 2 -149.5t14 -100.5q31 -104 158 -105q59 0 101 35t56 94q6 37 10.5 109t4.5 149q0 43 -1 90.5t-2 90.5t-5.5 77.5t-10.5 53.5q-16 53 -57 80.5t-96 27.5q-47 0 -88 -20.5t-64 -73.5q-14 -37 -18 -112.5 t-4 -180.5v-65z" />
<glyph unicode="&#xf3;" horiz-adv-x="729" d="M68 405.5v86.5q0 53 1 107t5 103.5t9 89t15 64.5q27 74 93.5 119t177.5 45q115 0 177 -45t87 -113q18 -53 23.5 -135t5.5 -164v-100q0 -55 -2.5 -109.5t-8.5 -115.5q-8 -76 -37.5 -125.5t-71.5 -77t-91.5 -38.5t-96.5 -11q-125 0 -186.5 54t-81.5 132q-6 25 -10 62.5 t-6 81.5t-2 89.5zM193 455q0 -84 2 -149.5t14 -100.5q31 -104 158 -105q59 0 101 35t56 94q6 37 10.5 109t4.5 149q0 43 -1 90.5t-2 90.5t-5.5 77.5t-10.5 53.5q-16 53 -57 80.5t-96 27.5q-47 0 -88 -20.5t-64 -73.5q-14 -37 -18 -112.5t-4 -180.5v-65zM289 1167l137 326 l121 -43l-189 -311z" />
<glyph unicode="&#xf4;" horiz-adv-x="729" d="M68 405.5v86.5q0 53 1 107t5 103.5t9 89t15 64.5q27 74 93.5 119t177.5 45q115 0 177 -45t87 -113q18 -53 23.5 -135t5.5 -164v-100q0 -55 -2.5 -109.5t-8.5 -115.5q-8 -76 -37.5 -125.5t-71.5 -77t-91.5 -38.5t-96.5 -11q-125 0 -186.5 54t-81.5 132q-6 25 -10 62.5 t-6 81.5t-2 89.5zM82 1176l252 268h80l239 -264l-55 -50l-229 195l-232 -195zM193 455q0 -84 2 -149.5t14 -100.5q31 -104 158 -105q59 0 101 35t56 94q6 37 10.5 109t4.5 149q0 43 -1 90.5t-2 90.5t-5.5 77.5t-10.5 53.5q-16 53 -57 80.5t-96 27.5q-47 0 -88 -20.5 t-64 -73.5q-14 -37 -18 -112.5t-4 -180.5v-65z" />
<glyph unicode="&#xf5;" horiz-adv-x="729" d="M68 405.5v86.5q0 53 1 107t5 103.5t9 89t15 64.5q27 74 93.5 119t177.5 45q115 0 177 -45t87 -113q18 -53 23.5 -135t5.5 -164v-100q0 -55 -2.5 -109.5t-8.5 -115.5q-8 -76 -37.5 -125.5t-71.5 -77t-91.5 -38.5t-96.5 -11q-125 0 -186.5 54t-81.5 132q-6 25 -10 62.5 t-6 81.5t-2 89.5zM86 1225q25 51 69 93t95 42q31 0 57.5 -12.5t54 -26.5t56 -26.5t61.5 -12.5q51 0 105 80l65 -43q-33 -68 -79 -103.5t-89 -35.5q-31 0 -60.5 12t-58 25.5t-55 25.5t-51.5 12q-53 0 -102 -71zM193 455q0 -84 2 -149.5t14 -100.5q31 -104 158 -105 q59 0 101 35t56 94q6 37 10.5 109t4.5 149q0 43 -1 90.5t-2 90.5t-5.5 77.5t-10.5 53.5q-16 53 -57 80.5t-96 27.5q-47 0 -88 -20.5t-64 -73.5q-14 -37 -18 -112.5t-4 -180.5v-65z" />
<glyph unicode="&#xf6;" horiz-adv-x="729" d="M68 405.5v86.5q0 53 1 107t5 103.5t9 89t15 64.5q27 74 93.5 119t177.5 45q115 0 177 -45t87 -113q18 -53 23.5 -135t5.5 -164v-100q0 -55 -2.5 -109.5t-8.5 -115.5q-8 -76 -37.5 -125.5t-71.5 -77t-91.5 -38.5t-96.5 -11q-125 0 -186.5 54t-81.5 132q-6 25 -10 62.5 t-6 81.5t-2 89.5zM147 1202v131h115v-131h-115zM193 455q0 -84 2 -149.5t14 -100.5q31 -104 158 -105q59 0 101 35t56 94q6 37 10.5 109t4.5 149q0 43 -1 90.5t-2 90.5t-5.5 77.5t-10.5 53.5q-16 53 -57 80.5t-96 27.5q-47 0 -88 -20.5t-64 -73.5q-14 -37 -18 -112.5 t-4 -180.5v-65zM457 1202v131h112v-131h-112z" />
<glyph unicode="&#xf8;" horiz-adv-x="729" d="M68 405.5v86.5q0 53 1 107t5 103.5t9 89t15 64.5q27 74 93.5 119t177.5 45q63 0 110 -15.5t80 -41.5l35 65l59 -33l-45 -86q14 -20 25 -47q18 -53 23.5 -135t5.5 -164v-100q0 -55 -2.5 -109.5t-8.5 -115.5q-8 -76 -37.5 -125.5t-71.5 -77t-91.5 -38.5t-96.5 -11 q-66 0 -112.5 15t-79.5 44q-10 -16 -18.5 -32.5t-16.5 -32.5l-53 30l43 86q-20 33 -31 76q-6 25 -10 62.5t-6 81.5t-2 89.5zM193 344.5q0 -51.5 4 -90.5l301 590q-45 63 -131 63q-47 0 -88 -20.5t-64 -73.5q-14 -37 -18 -112.5t-4 -180.5v-65v-110.5zM225 166 q41 -66 142 -66q59 0 101 35t56 94q6 37 10.5 109t4.5 149q0 68 -2 141.5t-9 125.5z" />
<glyph unicode="&#xf9;" horiz-adv-x="745" d="M80 254v756h129v-719q0 -86 33.5 -133t119.5 -47q78 0 126.5 56t48.5 136v707h125v-1008h-127v104h-7q-35 -57 -90 -86.5t-123 -29.5q-63 0 -107 19.5t-73 55t-42 84t-13 105.5zM170 1450l119 43l139 -326l-70 -28z" />
<glyph unicode="&#xfa;" horiz-adv-x="745" d="M80 254v756h129v-719q0 -86 33.5 -133t119.5 -47q78 0 126.5 56t48.5 136v707h125v-1008h-127v104h-7q-35 -57 -90 -86.5t-123 -29.5q-63 0 -107 19.5t-73 55t-42 84t-13 105.5zM354 1167l138 326l120 -43l-188 -311z" />
<glyph unicode="&#xfb;" horiz-adv-x="745" d="M80 254v756h129v-719q0 -86 33.5 -133t119.5 -47q78 0 126.5 56t48.5 136v707h125v-1008h-127v104h-7q-35 -57 -90 -86.5t-123 -29.5q-63 0 -107 19.5t-73 55t-42 84t-13 105.5zM82 1176l252 268h80l239 -264l-55 -50l-229 195l-232 -195z" />
<glyph unicode="&#xfc;" horiz-adv-x="745" d="M80 254v756h129v-719q0 -86 33.5 -133t119.5 -47q78 0 126.5 56t48.5 136v707h125v-1008h-127v104h-7q-35 -57 -90 -86.5t-123 -29.5q-63 0 -107 19.5t-73 55t-42 84t-13 105.5zM152 1202v131h114v-131h-114zM461 1202v131h112v-131h-112z" />
<glyph unicode="&#xfd;" horiz-adv-x="667" d="M10 1006h133q29 -111 53.5 -220.5t51.5 -220.5q10 -43 22.5 -95t24.5 -104.5t23.5 -99.5t17.5 -78h6q23 98 45.5 206t44.5 206l98 406h127l-303 -1182q-12 -45 -29.5 -86t-44 -72t-65.5 -49t-94 -18h-47v108h32q61 0 92 43t52 135l29 113zM283 1167l137 326l121 -43 l-189 -311z" />
<glyph unicode="&#xfe;" horiz-adv-x="731" d="M72 -395v1818h123v-503h4q35 47 77.5 73.5t124.5 26.5q33 0 73 -9.5t75 -35t62.5 -73.5t35.5 -126q6 -63 6 -126.5v-123.5v-14q0 -123 -5 -225.5t-38 -171.5q-27 -57 -78 -92t-143 -35q-76 0 -120 30.5t-70 67.5h-4v-481h-123zM195 303q0 -82 39.5 -138t125.5 -56 q119 0 150 116q10 43 13 122t3 171q0 96 -3 166t-15 111q-16 57 -51 80.5t-92 23.5q-80 0 -125 -52t-45 -136v-408z" />
<glyph unicode="&#xff;" horiz-adv-x="667" d="M10 1006h133q29 -111 53.5 -220.5t51.5 -220.5q10 -43 22.5 -95t24.5 -104.5t23.5 -99.5t17.5 -78h6q23 98 45.5 206t44.5 206l98 406h127l-303 -1182q-12 -45 -29.5 -86t-44 -72t-65.5 -49t-94 -18h-47v108h32q61 0 92 43t52 135l29 113zM121 1202v131h115v-131h-115z M430 1202v131h113v-131h-113z" />
<glyph unicode="&#x131;" horiz-adv-x="333" d="M100 0v1008h127v-1008h-127z" />
<glyph unicode="&#x152;" horiz-adv-x="1167" d="M88 317v752q0 76 17.5 143.5t55.5 117.5t99.5 79t151.5 29q14 0 25.5 -1t21.5 -5q47 0 78 -7h585v-116h-471v-525h412v-114h-412v-557h471v-113h-583q-27 -6 -60 -10t-67 -4q-162 0 -243 87t-81 244zM213 315q0 -41 11.5 -79.5t35 -69.5t60 -49.5t90.5 -18.5q72 0 118 29 v1169q-44 27 -116 27q-59 0 -97.5 -25.5t-61 -64.5t-31.5 -85t-9 -87v-746z" />
<glyph unicode="&#x153;" horiz-adv-x="1183" d="M68 492q0 53 1 108t5 104.5t9 90.5t15 65q29 74 94.5 117t176.5 43q92 0 149 -32t88 -81h2q33 53 90.5 83t147.5 30q127 0 194.5 -61.5t79.5 -176.5q2 -20 3 -40.5t1 -43.5v-225h-452q0 -20 1 -38.5t1 -39.5q2 -53 4 -108.5t12 -83.5q16 -47 52 -75t98 -28 q78 0 113.5 47.5t43.5 110.5l123 -29q-16 -111 -83.5 -177t-202.5 -66q-96 0 -150.5 33.5t-81.5 80.5q-43 -66 -111.5 -90t-136.5 -24q-125 0 -185 54t-83 132q-6 25 -10 62.5t-5 81.5t-2 89.5t-1 86.5zM193 455q0 -84 2 -149.5t14 -100.5q16 -51 54 -78t104 -27 q59 0 101 35t56 94q6 37 10.5 109t4.5 149q0 43 -1 90.5t-2 90.5t-5.5 77.5t-10.5 53.5q-16 53 -56 80.5t-97 27.5q-47 0 -88 -20.5t-64 -73.5q-14 -37 -18 -112.5t-4 -180.5v-65zM674 575h323v107v31.5t-2 31.5q-4 68 -39.5 113t-115.5 45q-43 0 -82 -20.5t-62 -73.5 q-14 -33 -17 -91.5t-5 -142.5z" />
<glyph unicode="&#x178;" horiz-adv-x="743" d="M23 1425h131l122 -374q6 -18 18.5 -57.5t27 -84.5t26.5 -84t19 -57h6l90 287l123 370h131q-12 -35 -35 -99t-50.5 -145t-58 -168t-58.5 -167t-49.5 -145.5t-33.5 -98.5v-604h-125v604q-12 33 -33.5 98.5t-49 145.5t-58.5 167t-58.5 168t-50 145.5t-34.5 98.5zM162 1534 v129h114v-129h-114zM469 1534v129h113v-129h-113z" />
<glyph unicode="&#x192;" horiz-adv-x="751" d="M-14 -162q8 29 15 51.5t17 47.5q41 -14 82 -15q76 0 114 64.5t54 212.5l64 549h-148v96h162l29 223q8 74 25.5 139.5t49 114.5t83 77.5t124.5 28.5q29 0 58.5 -5t54.5 -15l-27 -111q-20 10 -44.5 14.5t-47.5 4.5q-139 0 -166 -244l-28 -227h178v-96h-191l-63 -545 q-23 -195 -82 -292t-188 -97q-29 0 -63 6t-62 18z" />
<glyph unicode="&#x2c6;" horiz-adv-x="722" d="M74 1176l252 268h80l239 -264l-55 -50l-230 195l-231 -195z" />
<glyph unicode="&#x2c7;" horiz-adv-x="720" d="M80 1399l55 45l232 -195l231 195l53 -49l-237 -262h-82z" />
<glyph unicode="&#x2d8;" horiz-adv-x="720" d="M104 1393h105q8 -53 50 -98.5t103 -45.5q66 0 108 43t48 101h103q-4 -39 -20.5 -81t-48.5 -78t-79 -58.5t-111 -22.5q-68 0 -115.5 22.5t-78.5 58.5t-46.5 78t-17.5 81z" />
<glyph unicode="&#x2d9;" horiz-adv-x="720" d="M326 1221v131h112v-131h-112z" />
<glyph unicode="&#x2da;" horiz-adv-x="720" d="M205 1294q0 74 51 125t125 51q72 0 123 -51t51 -125t-51 -125t-123 -51q-74 0 -125 51.5t-51 124.5zM276 1292q0 -43 31 -73.5t74 -30.5q41 0 71.5 30.5t30.5 73.5t-30.5 74t-71.5 31q-43 0 -74 -31t-31 -74z" />
<glyph unicode="&#x2db;" horiz-adv-x="768" d="M530 -188q0 41 16.5 88t57.5 104h82l2 -4q-31 -47 -49 -89t-18 -77q0 -55 24.5 -76.5t63.5 -21.5q23 0 48 6t54 22l29 -79q-29 -20 -70 -33.5t-80 -13.5q-72 0 -116 48t-44 126z" />
<glyph unicode="&#x2dc;" horiz-adv-x="741" d="M88 1225q25 51 69 93t95 42q31 0 57.5 -12.5t54 -26.5t56.5 -26.5t61 -12.5q51 0 105 80l65 -43q-33 -68 -79 -103.5t-89 -35.5q-31 0 -60.5 12t-58 25.5t-55 25.5t-51.5 12q-53 0 -102 -71z" />
<glyph unicode="&#x2dd;" horiz-adv-x="720" d="M207 1167l137 326l121 -43l-189 -311zM401 1167l138 326l118 -43l-188 -311z" />
<glyph unicode="&#x401;" horiz-adv-x="739" d="M109 0v1425h596v-116h-472v-523h412v-116h-412v-555h472v-115h-596zM195 1534v129h114v-129h-114zM502 1534v129h112v-129h-112z" />
<glyph unicode="&#x402;" horiz-adv-x="995" d="M31 1311v114h723v-114h-365v-430h4q59 45 121 62.5t113 17.5q76 0 127 -24t81.5 -63.5t44 -94t13.5 -117.5v-332q0 -190 -71.5 -287.5t-237.5 -97.5v108q55 2 91 19.5t56.5 49.5t27.5 75t7 96v346q0 90 -36 145.5t-134 55.5q-45 0 -101.5 -22.5t-105.5 -69.5v-748h-127 v1311h-231z" />
<glyph unicode="&#x403;" horiz-adv-x="724" d="M109 0v1425h573v-116h-449v-1309h-124zM266 1538l277 223l82 -96l-312 -186z" />
<glyph unicode="&#x404;" horiz-adv-x="774" d="M96 315v752q0 76 16.5 143.5t53.5 117.5t97.5 80t150.5 30q137 0 216 -65.5t93 -194.5l-125 -31q-4 88 -54 131t-132 43q-53 0 -89 -20.5t-58.5 -54.5t-33 -77t-10.5 -88v-293h344v-122h-344v-344q0 -41 10.5 -81t33 -71t58 -49.5t89.5 -18.5q76 0 127 42t61 139l127 -27 q-16 -135 -99 -202.5t-214 -67.5q-156 0 -237 85t-81 244z" />
<glyph unicode="&#x405;" horiz-adv-x="790" d="M68 301l127 27q0 -43 10 -83t33.5 -71t61.5 -49.5t95 -18.5q70 0 110 23t60.5 59.5t26.5 86t6 104.5q0 68 -6 112t-28.5 75.5t-64.5 58t-114 57.5q-102 45 -162.5 88t-92.5 89t-42 98.5t-10 113.5q0 80 19.5 147.5t60.5 115.5t102.5 76t145.5 28q92 0 153.5 -28t98 -73 t52 -99t15.5 -105l-127 -31q0 96 -44 156.5t-155 60.5q-61 0 -99 -23.5t-59.5 -59.5t-28.5 -79t-7 -84q0 -47 8 -84t33.5 -69.5t75 -63.5t133.5 -65q92 -37 145 -77t81 -88t36 -107.5t8 -137.5q0 -90 -16.5 -163t-55.5 -124t-102.5 -79.5t-155.5 -28.5q-86 0 -147.5 24.5 t-101.5 66.5t-59 99t-19 125z" />
<glyph unicode="&#x406;" horiz-adv-x="374" d="M123 0v1425h129v-1425h-129z" />
<glyph unicode="&#x407;" horiz-adv-x="374" d="M-25 1569v131h115v-131h-115zM123 0v1425h129v-1425h-129zM285 1569v131h112v-131h-112z" />
<glyph unicode="&#x408;" horiz-adv-x="681" d="M-20 88l86 82q27 -29 69.5 -49.5t83.5 -20.5q84 0 141.5 53.5t57.5 170.5v1101h125v-1089q0 -170 -81 -260t-245 -90q-70 0 -134.5 24.5t-102.5 77.5z" />
<glyph unicode="&#x409;" horiz-adv-x="1302" d="M8 51q43 31 76 66t56.5 96t34.5 159.5t11 258.5v794h539v-602h149q111 0 183.5 -29.5t113.5 -83t57.5 -127t16.5 -161.5q0 -94 -16.5 -172t-56 -133.5t-110.5 -86t-177 -30.5h-285v1309h-299v-600q0 -193 -11 -318t-39 -207t-73 -132t-112 -91q-4 4 -12.5 17.5 t-17.5 27.5t-17.5 27.5t-10.5 17.5zM725 119h147q78 0 127.5 23.5t77 63.5t36.5 95t9 117q0 63 -11 116.5t-40 91.5t-78 58.5t-125 20.5h-143v-586z" />
<glyph unicode="&#x40a;" horiz-adv-x="1306" d="M109 0v1425h124v-622h371v622h125v-622h150q113 0 184.5 -27.5t112.5 -79t57 -122t16 -158.5q0 -94 -16 -171t-56 -131.5t-111 -84t-177 -29.5h-285v684h-371v-684h-124zM729 119h148q78 0 127 22.5t76.5 61.5t36.5 92t9 117q0 63 -11 113t-39.5 85t-78 54.5t-125.5 19.5 h-143v-565z" />
<glyph unicode="&#x40b;" horiz-adv-x="995" d="M29 1311v114h723v-114h-361v-428h4q59 45 119.5 61.5t112.5 16.5q141 0 204.5 -76t63.5 -203v-682h-129v647q0 86 -36 139.5t-134 53.5q-49 0 -105.5 -24.5t-99.5 -67.5v-748h-129v1311h-233z" />
<glyph unicode="&#x40c;" horiz-adv-x="849" d="M109 0v1425h122v-632h115q33 0 69 7t69.5 30.5t61 65.5t44.5 112l100 417h115l-92 -413q-25 -104 -71 -176t-114 -95q88 -25 132.5 -98.5t66.5 -179.5l102 -463h-127l-96 446q-16 72 -41.5 116t-57.5 68.5t-70 33t-77 8.5h-129v-672h-122zM328 1538l276 223l82 -96 l-311 -186z" />
<glyph unicode="&#x40e;" horiz-adv-x="761" d="M20 1423h125l246 -876h6l219 878h121l-297 -1116q-29 -109 -60.5 -172t-65 -95t-71.5 -41t-77 -11h-64v102h60q47 0 88 43t67 146l21 81zM137 1673h105q8 -53 50 -98t103 -45q66 0 108 43t48 100h102q-4 -39 -20.5 -81t-48 -77.5t-78.5 -58t-111 -22.5q-68 0 -116 22.5 t-78.5 58t-46 77.5t-17.5 81z" />
<glyph unicode="&#x40f;" horiz-adv-x="841" d="M109 0v1425h124v-1304h375v1304h127v-1425h-254l2 -291h-125l2 291h-251z" />
<glyph unicode="&#x410;" horiz-adv-x="790" d="M25 0l307 1425h127l313 -1425h-125l-76 344h-354l-74 -344h-118zM238 463h311l-86 414l-66 340h-6l-67 -345z" />
<glyph unicode="&#x411;" horiz-adv-x="800" d="M98 0v1425h568v-116h-443v-486h152q111 0 183.5 -29.5t113.5 -83t57 -127t16 -161.5q0 -94 -16 -172t-57 -133.5t-110.5 -86t-178.5 -30.5h-285zM223 121h150q78 0 126 23.5t75.5 63.5t37 94t9.5 118q0 63 -11.5 115.5t-40 90.5t-77 58.5t-123.5 20.5h-146v-584z" />
<glyph unicode="&#x412;" horiz-adv-x="843" d="M109 0v1425h299q92 0 156.5 -24.5t104.5 -71.5t57 -115.5t17 -154.5q0 -111 -32.5 -184.5t-118.5 -118.5v-8q94 -29 130 -118t36 -212q0 -223 -92.5 -320.5t-272.5 -97.5h-284zM233 115h168q74 0 120 24.5t70.5 67.5t34 100.5t9.5 120.5q0 129 -50 198.5t-173 69.5h-179 v-581zM233 807h168q121 0 170.5 65.5t49.5 188.5q0 121 -53.5 185.5t-182.5 64.5h-152v-504z" />
<glyph unicode="&#x413;" horiz-adv-x="724" d="M109 0v1425h573v-116h-449v-1309h-124z" />
<glyph unicode="&#x414;" horiz-adv-x="937" d="M8 106l72 9q31 31 53.5 66.5t35.5 91t20.5 136t11.5 199.5l20 817h610v-1314h76v-381h-112v270h-674v-270h-113v376zM225 111h482v1202h-371l-19 -705q-4 -176 -22.5 -294.5t-69.5 -202.5z" />
<glyph unicode="&#x415;" horiz-adv-x="739" d="M109 0v1425h596v-116h-472v-523h412v-116h-412v-555h472v-115h-596z" />
<glyph unicode="&#x416;" horiz-adv-x="1341" d="M41 0l102 463q23 106 67 180t130 98q-68 23 -114 94.5t-68 176.5l-95 413h115l101 -417q16 -70 43.5 -112t61.5 -65.5t69.5 -30.5t68.5 -7h84v632h127v-632h84q33 0 69 7t69.5 30.5t61 65.5t44.5 112l100 417h115l-92 -413q-25 -104 -71 -176t-114 -95 q88 -25 132.5 -98.5t66.5 -179.5l102 -463h-126l-97 446q-16 72 -41.5 116t-57.5 68.5t-69 33t-75 8.5h-101v-672h-127v672h-98q-39 0 -77 -8.5t-69.5 -33t-58.5 -68.5t-41 -116l-96 -446h-125z" />
<glyph unicode="&#x417;" horiz-adv-x="772" d="M27 291v8l120 25q0 -125 53.5 -174.5t139.5 -49.5q43 0 78 13.5t61.5 45t41 84t14.5 130.5v65q0 250 -191 250h-74v113h84q66 0 103 22.5t55 61.5t22.5 90t4.5 110q0 66 -15.5 111t-41 72.5t-61.5 40t-77 12.5q-92 0 -143 -59.5t-51 -163.5l-121 28q2 78 28.5 136.5 t69.5 97.5t100.5 58.5t120.5 19.5q133 0 214 -64.5t95 -216.5q4 -20 4.5 -41.5t0.5 -46.5q0 -37 -4.5 -85t-18.5 -94t-39 -84t-68 -56v-5q41 -18 66 -48.5t39 -67.5t18 -77t7 -77v-78v-46t-3 -44q-10 -164 -96 -242.5t-223 -78.5q-66 0 -122 17t-99 55t-67.5 95.5 t-24.5 137.5z" />
<glyph unicode="&#x418;" horiz-adv-x="874" d="M104 0v1425h123v-1122l9 -2l415 1124h121v-1425h-125v1120h-6l-420 -1120h-117z" />
<glyph unicode="&#x419;" horiz-adv-x="874" d="M104 0v1425h123v-1122l9 -2l415 1124h121v-1425h-125v1120h-6l-420 -1120h-117zM164 1702h104q8 -53 50 -98t104 -45q66 0 107.5 43t48.5 100h102q-4 -39 -20.5 -81t-48 -78t-79 -58.5t-110.5 -22.5q-68 0 -116 22.5t-78.5 58.5t-46 78t-17.5 81z" />
<glyph unicode="&#x41a;" horiz-adv-x="849" d="M109 0v1425h122v-632h115q33 0 69 7t69.5 30.5t61 65.5t44.5 112l100 417h115l-92 -413q-25 -104 -71 -176t-114 -95q88 -25 132.5 -98.5t66.5 -179.5l102 -463h-127l-96 446q-16 72 -41.5 116t-57.5 68.5t-70 33t-77 8.5h-129v-672h-122z" />
<glyph unicode="&#x41b;" horiz-adv-x="882" d="M8 53q43 31 76 67t56.5 97.5t34.5 159.5t11 254v794h588v-1425h-125v1309h-348v-600q0 -193 -11 -318t-38 -207t-73 -132t-113 -91z" />
<glyph unicode="&#x41c;" horiz-adv-x="1122" d="M106 0v1425h127q12 -31 37 -94t51.5 -134t51 -134.5t35.5 -93.5l149 -398h6q10 29 30.5 84.5t44.5 117t45.5 117.5t31.5 85q2 6 15 41t31.5 82t40 102t39 102.5t31 81t15.5 41.5h129v-1425h-125v1077h-8q-10 -25 -28.5 -73t-38 -101t-39 -101t-27.5 -73 q-2 -6 -13.5 -35.5t-28 -70.5t-36 -88.5t-35.5 -88t-28.5 -70.5t-14.5 -36h-70q-10 27 -31.5 80t-45 112.5t-45 112.5t-31.5 80l-131 348h-9v-1073h-125z" />
<glyph unicode="&#x41d;" horiz-adv-x="860" d="M109 0v1425h124v-641h392v641h127v-1425h-127v674h-392v-674h-124z" />
<glyph unicode="&#x41e;" horiz-adv-x="837" d="M96 319v750q0 76 16.5 143.5t54.5 117.5t100.5 79t152.5 29q92 0 154.5 -26t99.5 -74t53 -114.5t16 -148.5v-723q0 -180 -80.5 -273t-244.5 -93t-243 88t-79 245zM219 317q0 -41 11.5 -79.5t35 -69.5t61.5 -49.5t91 -18.5q109 0 153.5 70t44.5 168v756q0 45 -10 86 t-32.5 72.5t-60.5 51t-93 19.5q-59 0 -98 -25.5t-61.5 -64.5t-32 -85t-9.5 -87v-744z" />
<glyph unicode="&#x41f;" horiz-adv-x="841" d="M109 0v1425h626v-1425h-127v1307h-375v-1307h-124z" />
<glyph unicode="&#x420;" horiz-adv-x="800" d="M109 0v1425h284q106 0 177 -28.5t111 -82.5t56.5 -131t16.5 -171q0 -90 -16.5 -168t-57.5 -134.5t-113.5 -88t-183.5 -31.5h-150v-590h-124zM233 707h144q78 0 127 21.5t77.5 61t39 96t10.5 124.5q0 63 -9.5 118.5t-37 95.5t-76.5 63.5t-127 23.5h-148v-604z" />
<glyph unicode="&#x421;" horiz-adv-x="786" d="M96 315v752q0 76 16.5 143.5t53.5 117.5t97.5 80t150.5 30q150 0 231.5 -83t81.5 -233l-127 -24q2 111 -47 167t-141 56q-53 0 -89 -20.5t-58.5 -54.5t-33 -77t-10.5 -88v-759q0 -41 10.5 -81t33 -71t58 -49.5t89.5 -18.5q84 0 135 52.5t53 171.5l129 -23 q-4 -158 -89 -237.5t-226 -79.5q-156 0 -237 85t-81 244z" />
<glyph unicode="&#x422;" horiz-adv-x="655" d="M6 1311v114h641v-114h-256v-1311h-129v1311h-256z" />
<glyph unicode="&#x423;" horiz-adv-x="761" d="M20 1423h125l246 -876h6l219 878h121l-297 -1116q-29 -109 -60.5 -172t-65 -95t-71.5 -41t-77 -11h-64v102h60q47 0 88 43t67 146l21 81z" />
<glyph unicode="&#x424;" horiz-adv-x="999" d="M90 453v551q0 82 31 144t80 105t111.5 66.5t123.5 23.5v82h127v-82q63 -4 126 -25.5t113 -63.5t80.5 -104.5t30.5 -145.5v-551q0 -84 -27.5 -146.5t-75.5 -104.5t-111.5 -64.5t-135.5 -26.5v-111h-125v111h-2q-72 2 -134 24.5t-109.5 65.5t-75 105.5t-27.5 146.5z M213 453q0 -55 18.5 -96.5t49 -70t71.5 -44t86 -17.5v1002h-2q-43 -2 -83 -16.5t-70.5 -42t-50 -68.5t-19.5 -96v-551zM563 225q98 4 161.5 60.5t63.5 167.5v551q0 55 -20 96t-52 68.5t-73 43t-80 15.5v-1002z" />
<glyph unicode="&#x425;" horiz-adv-x="741" d="M16 -2l289 739l-274 688h133l207 -563l204 563h136l-281 -688l295 -739h-133l-221 602l-224 -602h-131z" />
<glyph unicode="&#x426;" horiz-adv-x="856" d="M109 0v1425h124v-1306h385v1306h127v-1306h72v-387h-112v268h-596z" />
<glyph unicode="&#x427;" horiz-adv-x="815" d="M72 924v501h121v-499q0 -127 53 -176.5t172 -49.5q33 0 80 8.5t88 24.5v692h127v-1425h-127v633q-41 -16 -96.5 -24.5t-100.5 -8.5q-74 0 -132 16.5t-99 54.5t-63.5 100.5t-22.5 152.5z" />
<glyph unicode="&#x428;" horiz-adv-x="1245" d="M109 0v1425h124v-1304h324v1304h127v-1304h326v1304h127v-1425h-1028z" />
<glyph unicode="&#x429;" horiz-adv-x="1255" d="M109 0v1425h124v-1304h324v1304h127v-1304h326v1304h127v-1304h75v-389h-112v268h-991z" />
<glyph unicode="&#x42a;" horiz-adv-x="1050" d="M27 1309v116h448v-602h150q111 0 183.5 -29.5t113.5 -83t57 -127t16 -161.5q0 -94 -16 -172t-57 -133.5t-111 -86t-178 -30.5h-285v1309h-321zM475 121h148q78 0 127 23.5t76.5 63.5t36.5 94t9 118q0 63 -11 115.5t-39.5 90.5t-78 58.5t-125.5 20.5h-143v-584z" />
<glyph unicode="&#x42b;" horiz-adv-x="1105" d="M104 0v1425h125v-602h152q111 0 183.5 -29.5t113.5 -83t57.5 -127t16.5 -161.5q0 -94 -16.5 -172t-57.5 -133.5t-110.5 -86t-178.5 -30.5h-285zM229 119h150q78 0 126 23.5t75.5 63.5t37 95t9.5 117q0 63 -11.5 116.5t-40 91.5t-76.5 58.5t-124 20.5h-146v-586zM864 0 v1425h127v-1425h-127z" />
<glyph unicode="&#x42c;" horiz-adv-x="800" d="M98 0v1425h125v-602h150q111 0 183.5 -29.5t113.5 -83t57 -127t16 -161.5q0 -94 -16 -172t-56 -133.5t-111 -86t-177 -30.5h-285zM223 119h148q78 0 127 23.5t76.5 63.5t37 95t9.5 117q0 63 -11.5 116.5t-40 91.5t-78 58.5t-124.5 20.5h-144v-586z" />
<glyph unicode="&#x42d;" horiz-adv-x="784" d="M43 256l127 27q10 -96 60.5 -140.5t127.5 -44.5q55 0 91 20.5t58.5 54.5t32 77t9.5 90v328h-344v123h344v307q0 223 -191 223q-80 0 -131 -49t-61 -139l-123 28q16 133 100 205t224 72q86 0 145 -27t95 -74t52.5 -112.5t16.5 -143.5v-745q0 -180 -82 -265t-240 -85 q-131 0 -213 67.5t-98 202.5z" />
<glyph unicode="&#x42e;" horiz-adv-x="1122" d="M109 0v1425h124v-641h170v293q0 76 17.5 141.5t54.5 114.5t96.5 77t143.5 28q86 0 145.5 -26t96 -72t54 -112.5t17.5 -148.5v-735q0 -178 -81 -268t-232 -90q-150 0 -231 86t-81 241v361h-170v-674h-124zM526 315q0 -41 11.5 -79.5t34 -68.5t58.5 -48.5t83 -18.5 q98 0 144 69t46 167v758q0 45 -10 86t-32.5 72.5t-58.5 51t-87 19.5q-55 0 -92 -24.5t-58.5 -62.5t-30 -84t-8.5 -87v-750z" />
<glyph unicode="&#x42f;" horiz-adv-x="851" d="M45 0l88 444q16 84 49 151t105 101q-109 31 -149 116t-40 208q0 193 85 299t272 106h290v-1425h-124v653h-138q-33 0 -67.5 -8t-65.5 -32.5t-55.5 -68.5t-38.5 -118l-84 -426h-127zM223 1020q0 -133 61.5 -194.5t180.5 -61.5h156v545h-146q-72 0 -120 -21.5t-76.5 -59.5 t-42 -91.5t-13.5 -116.5z" />
<glyph unicode="&#x430;" horiz-adv-x="720" d="M51 274q0 57 12.5 114.5t45 104t86 76t137.5 29.5h178v147q0 72 -33 115t-127 43q-45 0 -93 -25.5t-62 -84.5l-119 36q27 88 98.5 139.5t181.5 51.5q133 0 206 -60.5t73 -211.5v-748h-127v90h-2q-45 -63 -101.5 -82.5t-119.5 -19.5q-66 0 -110 24.5t-71.5 64.5t-40 91 t-12.5 106zM174 281q0 -78 36 -126.5t122 -48.5q82 0 130 45.5t48 131.5v204h-150q-78 0 -132 -46t-54 -160z" />
<glyph unicode="&#x431;" horiz-adv-x="735" d="M72 477v223q2 154 14 263.5t40 185.5t72 124t111 83q37 18 69 31.5t64.5 25.5t67.5 25.5t76 31.5q12 -23 23.5 -46t21.5 -46q-41 -23 -73 -35t-62.5 -24t-65.5 -26.5t-80 -39.5q-63 -35 -104 -110q-29 -51 -37 -124t-10 -151h4q20 35 48 56.5t54.5 34t51 16.5t42.5 4 q111 0 164 -47t76 -113q8 -27 13 -68.5t8.5 -92t3.5 -104.5v-105q0 -55 -1 -102.5t-8 -108.5q-8 -76 -37.5 -125.5t-71.5 -77t-90 -38.5t-96 -11q-63 0 -109 14t-78 40t-52.5 59.5t-30.5 72.5q-6 25 -10 59.5t-5 76.5t-2 85t-1 84zM194 546q-1 -42 1 -116q2 -80 4 -135 t12 -90q35 -106 160 -107q66 0 105.5 36t53.5 95q8 35 10.5 100.5t2.5 141.5v74t-2 81t-5.5 73.5t-9.5 54.5q-14 53 -49 82.5t-98 29.5q-106 0 -154 -102q-27 -51 -28 -137q-2 -39 -3 -81z" />
<glyph unicode="&#x432;" horiz-adv-x="757" d="M92 0v1006h266q166 0 239 -70t73 -197q0 -72 -23.5 -123t-81.5 -84h2q66 -29 90.5 -92t24.5 -139q0 -162 -83 -231.5t-243 -69.5h-264zM219 117h148q61 0 99 14t59.5 41t28.5 61.5t7 75.5q0 80 -41 124t-143 44h-158v-360zM219 582h146q98 0 139 41t41 118q0 76 -45 115 t-150 39h-131v-313z" />
<glyph unicode="&#x433;" horiz-adv-x="645" d="M94 0v1008h514v-113h-387v-895h-127z" />
<glyph unicode="&#x434;" horiz-adv-x="849" d="M29 102l63 11q27 29 43.5 57.5t27.5 68.5t16 97t7 147l15 525h540v-895h72v-371h-117v258h-551v-258h-116v360zM236 113h378v782h-295l-14 -422q-4 -129 -19.5 -218t-49.5 -142z" />
<glyph unicode="&#x435;" horiz-adv-x="716" d="M66 492q0 53 1 106t5 102.5t9 89t15 66.5q29 76 92.5 120t176.5 44q123 0 191.5 -60.5t80.5 -171.5q2 -23 3 -45t1 -45v-225h-451q0 -20 1.5 -38.5t1.5 -39.5q0 -53 3 -108.5t13 -83.5q33 -102 147 -103q78 0 115 46.5t41 121.5l127 -24q-10 -125 -83 -191.5t-206 -66.5 q-63 0 -109 16t-78 42t-51.5 59.5t-27.5 68.5q-6 25 -10 62.5t-5 81.5t-2 89.5t-1 86.5zM193 575h323v107q0 43 -5 83t-22.5 70.5t-48 49t-82.5 18.5q-45 0 -83.5 -20.5t-61.5 -73.5q-12 -33 -15 -91.5t-5 -142.5z" />
<glyph unicode="&#x436;" horiz-adv-x="1157" d="M31 0l86 328q20 74 51 127t100 69q-55 16 -88 66.5t-53 124.5l-78 291h121l80 -297q12 -49 33.5 -78t48 -44.5t54.5 -20.5t56 -5h74v445h125v-445h74q27 0 55.5 5t55 20.5t48 44t33.5 78.5l80 297h121l-78 -291q-20 -74 -53 -124t-88 -67q70 -16 100.5 -69.5t50.5 -126.5 l86 -328h-125l-73 295q-12 49 -31.5 81t-44.5 49t-54.5 23.5t-62.5 6.5h-94v-455h-125v455h-94q-35 0 -64.5 -6.5t-54 -23.5t-43 -49t-31.5 -81l-73 -295h-125z" />
<glyph unicode="&#x437;" horiz-adv-x="679" d="M16 238l123 18q4 -82 48 -118t116 -36q31 0 60.5 9.5t53 32t38 58.5t14.5 89q0 180 -127 180h-100v111h106q57 0 89 37.5t32 123.5q0 78 -43 119t-115 41t-113.5 -37t-47.5 -114q-6 2 -23.5 5t-37 8t-37 8t-21.5 5q10 121 88 180.5t192 59.5q63 0 115.5 -15.5t90.5 -47 t58.5 -83t20.5 -122.5q0 -68 -19.5 -131.5t-84.5 -90.5v-4q70 -25 87 -89t17 -146q0 -84 -24.5 -141.5t-66.5 -92.5t-95.5 -50t-110.5 -15q-55 0 -104.5 13t-87 43t-61 77t-30.5 115z" />
<glyph unicode="&#x438;" horiz-adv-x="794" d="M88 0v1006h123v-775h2q92 193 182 388.5t183 386.5h127v-1006h-127v776h-3l-366 -776h-121z" />
<glyph unicode="&#x439;" horiz-adv-x="794" d="M88 0v1006h123v-775h2q92 193 182 388.5t183 386.5h127v-1006h-127v776h-3l-366 -776h-121zM137 1393h105q8 -53 50 -98.5t103 -45.5q66 0 108 43t48 101h102q-4 -39 -20.5 -81t-48 -78t-78.5 -58.5t-111 -22.5q-68 0 -116 22.5t-78.5 58.5t-46 78t-17.5 81z" />
<glyph unicode="&#x43a;" horiz-adv-x="737" d="M76 0v1006h127v-445h100q27 0 55.5 5t55 20.5t48 44t34.5 78.5l79 297h121l-78 -291q-20 -74 -53 -124t-88 -67q70 -16 100.5 -69.5t51.5 -126.5l86 -328h-125l-74 295q-12 49 -31.5 81t-44 49t-54.5 23.5t-62 6.5h-121v-455h-127z" />
<glyph unicode="&#x43b;" horiz-adv-x="755" d="M10 59q43 29 73 60t47 72.5t24.5 101t7.5 149.5v566h518v-1008h-129v895h-275v-463q0 -98 -10 -173t-34.5 -130t-64.5 -95t-99 -69z" />
<glyph unicode="&#x43c;" horiz-adv-x="991" d="M92 0v1006h123q12 -25 30.5 -65t40 -87t45 -99.5t48.5 -103.5q35 -78 66.5 -142.5t48.5 -98.5h2l127 272l157 324h119v-1006h-127v735h-6l-121 -260q-29 -61 -59.5 -121.5t-59.5 -120.5h-67l-117 238q-8 16 -24.5 51t-35 74t-36 74l-25.5 51l-2 -2v-719h-127z" />
<glyph unicode="&#x43d;" horiz-adv-x="761" d="M94 0v1008h127v-437h320v437h131v-1008h-131v461h-320v-461h-127z" />
<glyph unicode="&#x43e;" horiz-adv-x="729" d="M68 405.5v86.5q0 53 1 107t5 103.5t9 89t15 64.5q27 74 93.5 119t177.5 45q115 0 177 -45t87 -113q18 -53 23.5 -135t5.5 -164v-100q0 -55 -2.5 -109.5t-8.5 -115.5q-8 -76 -37.5 -125.5t-71.5 -77t-91.5 -38.5t-96.5 -11q-125 0 -186.5 54t-81.5 132q-6 25 -10 62.5 t-6 81.5t-2 89.5zM193 455q0 -84 2 -149.5t14 -100.5q31 -104 158 -105q59 0 101 35t56 94q6 37 10.5 109t4.5 149q0 43 -1 90.5t-2 90.5t-5.5 77.5t-10.5 53.5q-16 53 -57 80.5t-96 27.5q-47 0 -88 -20.5t-64 -73.5q-14 -37 -18 -112.5t-4 -180.5v-65z" />
<glyph unicode="&#x43f;" horiz-adv-x="770" d="M96 0v1008h580v-1008h-127v897h-326v-897h-127z" />
<glyph unicode="&#x440;" horiz-adv-x="731" d="M72 -395v1401h123v-86h4q35 47 77.5 73.5t124.5 26.5q33 0 73 -9.5t75 -35t62.5 -73.5t35.5 -126q6 -63 6 -127.5v-136.5q0 -113 -4 -208t-28 -163q-25 -68 -77 -110.5t-155 -42.5q-72 0 -120 29.5t-70 68.5h-4v-481h-123zM195 303q0 -82 39.5 -138t125.5 -56 q119 0 150 116q10 43 13 122t3 171q0 96 -3 166t-15 111q-16 57 -51 80.5t-92 23.5q-80 0 -125 -52t-45 -136v-408z" />
<glyph unicode="&#x441;" horiz-adv-x="679" d="M68 492q0 53 1 108t5 104.5t9 89.5t15 64q27 74 91.5 118t175.5 44q141 0 206.5 -74t65.5 -207l-129 -18v2q8 80 -34 132t-116 52q-47 0 -84.5 -22.5t-58.5 -73.5q-16 -39 -19 -129t-6 -213q2 -80 4.5 -153.5t12.5 -110.5q16 -49 53 -78t96 -29q74 0 114 45t38 138 l129 -23q-6 -272 -287 -272q-61 0 -107 15t-78 42t-51.5 59.5t-27.5 69.5q-6 25 -10 62.5t-5 81.5t-2 89.5t-1 86.5z" />
<glyph unicode="&#x442;" horiz-adv-x="581" d="M4 895v113h574v-113h-226v-895h-125v895h-223z" />
<glyph unicode="&#x443;" horiz-adv-x="667" d="M10 1006h133q29 -111 53.5 -220.5t51.5 -220.5q10 -43 22.5 -95t24.5 -104.5t23.5 -99.5t17.5 -78h6q23 98 45.5 206t44.5 206l98 406h127l-303 -1182q-12 -45 -29.5 -86t-44 -72t-65.5 -49t-94 -18h-47v108h32q61 0 92 43t52 135l29 113z" />
<glyph unicode="&#x444;" horiz-adv-x="921" d="M70 403.5v120.5q0 43 2 91.5t6 94.5t11 83.5t17 60.5q35 74 106 119t185 49v389h123q0 -98 1 -194.5t1 -194.5q141 -6 218 -68.5t96 -167.5q10 -55 12 -118.5t2 -130.5v-128t-4 -124q-4 -61 -20.5 -110.5t-51.5 -88.5q-72 -86 -252 -104q0 -96 -1 -190.5t-1 -190.5h-121 v381q-106 12 -175.5 41.5t-110.5 109.5q-23 41 -31 89t-10 104q-2 35 -2 77.5zM193 446q0 -35 1 -73.5t1 -73.5q2 -35 7 -62.5t15 -46.5q23 -43 66 -66.5t114 -29.5v807q-92 -6 -143 -50t-55 -128q-4 -59 -5 -131t-1 -146zM520 94q66 4 112 30t68 66q14 25 19.5 55.5 t7.5 65.5l-2 293q0 61 -4 116.5t-24.5 95.5t-61.5 63.5t-115 21.5v-807z" />
<glyph unicode="&#x445;" horiz-adv-x="643" d="M12 0l244 516l-233 492h141l160 -383l155 383h146l-230 -492l238 -516h-141l-168 406l-174 -406h-138z" />
<glyph unicode="&#x446;" horiz-adv-x="768" d="M94 0v1008h127v-889h320v889h129v-889h67v-377h-116v258h-527z" />
<glyph unicode="&#x447;" horiz-adv-x="712" d="M53 623v385h127v-349q0 -82 29 -123.5t117 -41.5q43 0 93 17t89 46v451h125v-1008h-127v444q-51 -33 -109.5 -49t-109.5 -16q-123 0 -178.5 62.5t-55.5 181.5z" />
<glyph unicode="&#x448;" horiz-adv-x="1132" d="M96 0v1008h125v-889h279v889h127v-889h284v889h125v-1008h-940z" />
<glyph unicode="&#x449;" horiz-adv-x="1157" d="M96 0v1008h123v-889h281v889h127v-889h280v889h127v-889h68v-355h-113v236h-893z" />
<glyph unicode="&#x44a;" horiz-adv-x="931" d="M27 895v113h405v-406h119q100 0 163.5 -23.5t100.5 -63.5t51.5 -92t14.5 -112q0 -68 -14.5 -125t-50.5 -99t-98.5 -64.5t-160.5 -22.5h-254v895h-276zM432 119h117q63 0 104 16.5t63.5 43t31 60t8.5 68.5q0 39 -10.5 71t-35 55.5t-64.5 36.5t-101 13h-113v-364z" />
<glyph unicode="&#x44b;" horiz-adv-x="987" d="M90 0v1008h129v-406h121q100 0 163.5 -23.5t100.5 -63.5t51.5 -92t14.5 -112q0 -68 -14.5 -125t-50.5 -99t-98.5 -64.5t-160.5 -22.5h-256zM219 119h119q63 0 103 16.5t62.5 43t31 60t8.5 68.5q0 39 -10.5 71t-34 55.5t-63.5 36.5t-101 13h-115v-364zM758 0v1008h129 v-1008h-129z" />
<glyph unicode="&#x44c;" horiz-adv-x="710" d="M86 0v1008h127v-406h121q100 0 163.5 -23.5t100.5 -63.5t51.5 -92t14.5 -112q0 -68 -14.5 -125t-50.5 -99t-98.5 -64.5t-158.5 -22.5h-256zM213 119h119q63 0 104 16.5t63.5 43t31 60t8.5 68.5q0 39 -10.5 71t-35 55.5t-64.5 36.5t-99 13h-117v-364z" />
<glyph unicode="&#x44d;" horiz-adv-x="692" d="M45 225q6 0 24.5 3t40 6.5t40 5.5t24.5 4q6 -68 44 -106t106 -38q66 0 100.5 28t50.5 79q10 33 12 94t2 154h-299v114h297q-2 86 -5 148.5t-15 93.5q-23 53 -59.5 74.5t-83.5 21.5q-61 0 -102.5 -39t-45.5 -110l-131 22q10 106 83 174t202 68q113 0 171 -44t85 -118 q8 -25 14 -65.5t9 -90t4 -103.5t1 -107q0 -41 -1 -86.5t-2 -90.5t-5 -82.5t-10 -62.5q-10 -37 -28.5 -69.5t-49.5 -59.5t-78 -42t-110 -15q-133 0 -204 62.5t-81 176.5z" />
<glyph unicode="&#x44e;" horiz-adv-x="974" d="M78 0v1006h125v-437h135q2 88 8 167t21 120q27 74 88 117t172 43q104 0 159.5 -35t79.5 -92q27 -59 33 -157.5t6 -194.5v-66q0 -57 -2 -115.5t-8 -117.5q-8 -76 -36 -125.5t-67.5 -77t-87 -38.5t-92.5 -11q-121 0 -179 54t-79 132q-6 20 -9 53t-4 73t-2 82t-1 81h-135 v-461h-125zM459 412q2 -70 3 -123t11 -84q31 -104 150 -105q23 0 46 7.5t44.5 22.5t37 39t21.5 56q6 37 8 110t2 150q0 90 -3 179.5t-13 130.5q-28 108 -143 108q-43 0 -81 -20.5t-61 -73.5q-10 -29 -15 -103.5t-7 -175.5v-118z" />
<glyph unicode="&#x44f;" horiz-adv-x="747" d="M47 0l82 317q12 53 36.5 98.5t70.5 65.5q-86 29 -123 89.5t-37 144.5q0 133 74.5 213t242.5 80h266v-1008h-127v444h-124q-63 0 -103.5 -31.5t-62.5 -127.5l-68 -285h-127zM205 709q0 -78 50 -117t146 -39h131v342h-122q-115 0 -160 -52t-45 -134z" />
<glyph unicode="&#x451;" horiz-adv-x="716" d="M66 492q0 53 1 106t5 102.5t9 89t15 66.5q29 76 92.5 120t176.5 44q123 0 191.5 -60.5t80.5 -171.5q2 -23 3 -45t1 -45v-225h-451q0 -20 1.5 -38.5t1.5 -39.5q0 -53 3 -108.5t13 -83.5q33 -102 147 -103q78 0 115 46.5t41 121.5l127 -24q-10 -125 -83 -191.5t-206 -66.5 q-63 0 -109 16t-78 42t-51.5 59.5t-27.5 68.5q-6 25 -10 62.5t-5 81.5t-2 89.5t-1 86.5zM152 1217v131h114v-131h-114zM193 575h323v107q0 43 -5 83t-22.5 70.5t-48 49t-82.5 18.5q-45 0 -83.5 -20.5t-61.5 -73.5q-12 -33 -15 -91.5t-5 -142.5zM461 1217v131h112v-131h-112z " />
<glyph unicode="&#x452;" horiz-adv-x="768" d="M0 1182v96h94v209h125v-209h332v-96h-332v-295h4q29 53 85 88t128 35q98 0 149.5 -42t73.5 -110q8 -27 14.5 -74t8.5 -104t3 -118.5t1 -117.5q0 -35 -1 -74.5t-3 -78.5t-5 -75t-9 -62q-20 -98 -97 -154.5t-194 -50.5v108q59 2 103 29t63 86q10 35 12 105.5t2 148.5 q0 131 -4 229.5t-14 130.5q-16 45 -49 71t-95 26q-90 0 -134 -62.5t-44 -142.5v-678h-123v1182h-94z" />
<glyph unicode="&#x453;" horiz-adv-x="645" d="M94 0v1008h514v-113h-387v-895h-127zM236 1167l137 326l121 -43l-189 -311z" />
<glyph unicode="&#x454;" horiz-adv-x="710" d="M90 492q0 53 2 108t5 104.5t9.5 89.5t14.5 64q29 74 94.5 118t175.5 44q133 0 197.5 -65.5t70.5 -178.5l-127 -18q-4 72 -43.5 110.5t-105.5 38.5q-47 0 -85 -22.5t-60 -73.5q-12 -31 -16.5 -95.5t-6.5 -152.5h293v-108h-293v-90q0 -12 1 -35t3 -46.5t5 -46t7 -36.5 q16 -49 52 -76t98 -27q139 0 151 150l127 -19q-10 -119 -80.5 -181t-203.5 -62q-63 0 -109.5 15t-78 42t-51 59.5t-27.5 69.5q-6 25 -10.5 62.5t-5.5 81.5t-2 89.5t-1 86.5z" />
<glyph unicode="&#x455;" horiz-adv-x="677" d="M57 252l127 20q-2 -78 39 -125t115 -45q90 0 124 43t34 127q0 39 -6.5 68t-25 51.5t-51 41t-85.5 38.5q-80 31 -130.5 62.5t-78 66.5t-37.5 74t-10 82q0 117 67.5 191.5t208.5 74.5t209 -70.5t68 -197.5l-131 -19q4 86 -38 128t-110 42q-45 0 -74.5 -13t-46 -34.5 t-23.5 -48.5t-7 -53q0 -29 7 -52.5t28.5 -45t59.5 -42t99 -41.5q76 -29 122 -59.5t69.5 -67t30.5 -79.5t7 -95q0 -127 -63 -207.5t-213 -80.5q-279 0 -285 266z" />
<glyph unicode="&#x456;" horiz-adv-x="333" d="M100 0v1008h127v-1008h-127zM100 1253v131h129v-131h-129z" />
<glyph unicode="&#x457;" horiz-adv-x="333" d="M-47 1202v131h115v-131h-115zM100 0v1008h127v-1008h-127zM262 1202v131h113v-131h-113z" />
<glyph unicode="&#x458;" horiz-adv-x="333" d="M-35 -295h23q76 0 96 45t20 129v1129h127v-1153q0 -55 -9 -103.5t-33.5 -84.5t-67.5 -56.5t-111 -20.5h-45v115zM104 1255v131h129v-131h-129z" />
<glyph unicode="&#x459;" horiz-adv-x="1140" d="M8 59q43 29 72 60t46 72.5t24.5 101t7.5 149.5v566h481v-406h119q100 0 163.5 -23.5t100.5 -63.5t51 -93t14 -115q0 -68 -14 -125t-51 -97t-99.5 -62.5t-158.5 -22.5h-256v895h-234v-463q0 -98 -10 -173t-34.5 -130t-64.5 -95t-102 -69zM639 119h117q63 0 104 15.5 t63.5 42t31 60t8.5 68.5q0 39 -10.5 71t-35 55.5t-64.5 36.5t-101 13h-113v-362z" />
<glyph unicode="&#x45a;" horiz-adv-x="1161" d="M98 0v1008h127v-418h299v418h131v-418h117q100 0 164.5 -21.5t101.5 -60.5t51.5 -90t14.5 -111q0 -68 -14.5 -125t-50 -97t-98 -62.5t-161.5 -22.5h-256v469h-299v-469h-127zM655 119h117q63 0 103 15.5t63 42t31 60t8 68.5q0 74 -44 119t-165 45h-113v-350z" />
<glyph unicode="&#x45b;" horiz-adv-x="768" d="M2 1182v98h94v207h125v-207h330v-98h-330v-295h4q35 57 91.5 88t125.5 31q63 0 107.5 -20.5t72 -56.5t41 -84t13.5 -106v-739h-127v702q0 78 -36 126.5t-122 48.5q-84 0 -128 -53.5t-44 -131.5v-692h-123v1182h-94z" />
<glyph unicode="&#x45c;" horiz-adv-x="739" d="M76 0v1006h127v-445h100q27 0 55.5 5t55 20.5t48 44t34.5 78.5l79 297h121l-78 -291q-20 -74 -53 -124t-88 -67q70 -16 100.5 -69.5t51.5 -126.5l86 -328h-125l-74 295q-12 49 -31.5 81t-44 49t-54.5 23.5t-62 6.5h-121v-455h-127zM287 1167l137 326l121 -43l-189 -311z " />
<glyph unicode="&#x45e;" horiz-adv-x="667" d="M10 1006h133q29 -111 53.5 -220.5t51.5 -220.5q10 -43 22.5 -95t24.5 -104.5t23.5 -99.5t17.5 -78h6q23 98 45.5 206t44.5 206l98 406h127l-303 -1182q-12 -45 -29.5 -86t-44 -72t-65.5 -49t-94 -18h-47v108h32q61 0 92 43t52 135l29 113zM86 1393h104q8 -53 50.5 -98.5 t103.5 -45.5q66 0 108 43t48 101h102q-4 -39 -20.5 -81t-48 -78t-78.5 -58.5t-111 -22.5q-68 0 -116 22.5t-78.5 58.5t-46 78t-17.5 81z" />
<glyph unicode="&#x45f;" horiz-adv-x="765" d="M96 0v1008h127v-887h322v887h127v-1008h-228v-268h-120v268h-228z" />
<glyph unicode="&#x490;" horiz-adv-x="724" d="M109 0v1425h458v246h115v-362h-449v-1309h-124z" />
<glyph unicode="&#x491;" horiz-adv-x="645" d="M94 0v1008h400v231h114v-344h-387v-895h-127z" />
<glyph unicode="&#x4d9;" horiz-adv-x="716" d="M68 309v226h450q0 20 -1 38.5t-1 38.5q0 53 -3 108.5t-13 84.5q-33 102 -148 102q-78 0 -114.5 -46t-40.5 -122l-127 25q10 125 82.5 191.5t205.5 66.5q63 0 109.5 -16.5t78.5 -42t50 -59.5t29 -68q6 -25 10 -63t5 -82t2 -90t1 -85q0 -53 -1 -106.5t-5 -102.5t-10 -89 t-15 -66q-29 -76 -92 -120t-176 -44q-123 0 -191.5 60.5t-80.5 170.5q-2 23 -3 45.5t-1 44.5zM193 326q0 -43 5 -83t22.5 -71t48 -49.5t81.5 -18.5q45 0 84 21t62 74q12 33 15 91t5 142h-323v-106z" />
<glyph unicode="&#x2000;" horiz-adv-x="935" />
<glyph unicode="&#x2001;" horiz-adv-x="1870" />
<glyph unicode="&#x2002;" horiz-adv-x="935" />
<glyph unicode="&#x2003;" horiz-adv-x="1870" />
<glyph unicode="&#x2004;" horiz-adv-x="623" />
<glyph unicode="&#x2005;" horiz-adv-x="467" />
<glyph unicode="&#x2006;" horiz-adv-x="311" />
<glyph unicode="&#x2007;" horiz-adv-x="311" />
<glyph unicode="&#x2008;" horiz-adv-x="233" />
<glyph unicode="&#x2009;" horiz-adv-x="374" />
<glyph unicode="&#x200a;" horiz-adv-x="103" />
<glyph unicode="&#x2010;" horiz-adv-x="684" d="M100 530v113h506v-113h-506z" />
<glyph unicode="&#x2011;" horiz-adv-x="684" d="M100 530v113h506v-113h-506z" />
<glyph unicode="&#x2012;" horiz-adv-x="684" d="M100 530v113h506v-113h-506z" />
<glyph unicode="&#x2013;" horiz-adv-x="1024" d="M41 481v121h942v-121h-942z" />
<glyph unicode="&#x2014;" horiz-adv-x="2048" d="M41 481v121h1966v-121h-1966z" />
<glyph unicode="&#x2018;" horiz-adv-x="397" d="M119 1069v154l80 213h73q-12 -53 -23 -105.5t-22 -103.5h35v-158h-143z" />
<glyph unicode="&#x2019;" horiz-adv-x="397" d="M119 1071q10 51 21.5 103.5t23.5 105.5h-35v156h143v-154l-82 -211h-71z" />
<glyph unicode="&#x201a;" horiz-adv-x="335" d="M88 -219l43 209h-35v155h144v-153l-80 -211h-72z" />
<glyph unicode="&#x201c;" horiz-adv-x="536" d="M86 1069v154l80 213h74q-4 -12 -10.5 -42t-13.5 -63t-13 -62.5t-8 -41.5h34v-158h-143zM299 1069v154l80 213h74q-4 -12 -10.5 -42t-13.5 -63t-13 -62.5t-8 -41.5h34v-158h-143z" />
<glyph unicode="&#x201d;" horiz-adv-x="536" d="M100 1071q10 51 21.5 103.5t23.5 105.5h-34v156h143v-154l-82 -211h-72zM301 1071l43 209h-35v156h144v-154l-80 -211h-72z" />
<glyph unicode="&#x201e;" horiz-adv-x="536" d="M88 -221q10 51 21.5 103t23.5 106h-35v155h144v-153l-82 -211h-72zM289 -221l43 209h-35v155h143v-153l-80 -211h-71z" />
<glyph unicode="&#x2020;" horiz-adv-x="708" d="M16 831v115h279v451h115v-451h278v-115h-278v-1181h-115v1181h-279z" />
<glyph unicode="&#x2021;" horiz-adv-x="708" d="M16 238v112h279v481h-279v115h279v451h115v-451h278v-115h-278v-481h278v-112h-278v-588h-115v588h-279z" />
<glyph unicode="&#x2022;" horiz-adv-x="780" d="M166 547q0 47 18.5 89t49 72.5t72.5 49t89 18.5t89 -18.5t73 -49t49.5 -72.5t18.5 -89t-18.5 -89t-49.5 -73t-73 -49.5t-89 -18.5t-89 18.5t-72.5 49.5t-49 73t-18.5 89z" />
<glyph unicode="&#x2026;" horiz-adv-x="1179" d="M96 0v150h144v-150h-144zM512 0v150h141v-150h-141zM934 0v150h143v-150h-143z" />
<glyph unicode="&#x202f;" horiz-adv-x="374" />
<glyph unicode="&#x2030;" horiz-adv-x="1564" d="M55 737v514q0 82 55.5 130.5t135.5 48.5q76 0 132 -45.5t56 -127.5v-520q0 -82 -56 -128t-132 -46q-86 0 -138.5 46t-52.5 128zM158 741q0 -35 22.5 -56t65.5 -21q41 0 62.5 24.5t21.5 59.5v505q0 33 -21.5 56.5t-62.5 23.5q-47 0 -67.5 -25.5t-20.5 -58.5v-508zM199 -35 l643 1497h86l-643 -1497h-86zM690 166v514q0 82 55.5 130t135.5 48q76 0 132 -45t56 -127v-520q0 -82 -56.5 -128t-131.5 -46q-86 0 -138.5 46t-52.5 128zM793 170q0 -35 22.5 -56.5t65.5 -21.5q41 0 62.5 24.5t21.5 59.5v506q0 33 -21.5 56.5t-62.5 23.5q-47 0 -67.5 -25.5 t-20.5 -58.5v-508zM1126 166v514q0 82 55.5 130t135.5 48q76 0 132 -45t56 -127v-520q0 -82 -56 -128t-132 -46q-86 0 -138.5 46t-52.5 128zM1229 170q0 -35 22.5 -56.5t65.5 -21.5q41 0 62.5 24.5t21.5 59.5v506q0 33 -21.5 56.5t-62.5 23.5q-47 0 -67.5 -25.5t-20.5 -58.5 v-508z" />
<glyph unicode="&#x2039;" horiz-adv-x="509" d="M86 475l219 381h125l-215 -381l215 -381h-125z" />
<glyph unicode="&#x203a;" horiz-adv-x="509" d="M86 94l215 381l-215 381h123l219 -381l-219 -381h-123z" />
<glyph unicode="&#x2044;" horiz-adv-x="356" d="M-195 -35l644 1497h86l-644 -1497h-86z" />
<glyph unicode="&#x205f;" horiz-adv-x="467" />
<glyph unicode="&#x2070;" horiz-adv-x="489" d="M55 922v514q0 82 55.5 130t135.5 48q76 0 132 -45t56 -127v-520q0 -82 -56 -128t-132 -46q-86 0 -138.5 46t-52.5 128zM158 926q0 -35 22.5 -56.5t65.5 -21.5q41 0 62.5 24.5t21.5 59.5v506q0 33 -21.5 56.5t-62.5 23.5q-47 0 -67.5 -26t-20.5 -58v-508z" />
<glyph unicode="&#x2074;" horiz-adv-x="489" d="M25 891v84l192 633h105l-193 -625h166v231h100v-231h72v-92h-72v-135h-100v135h-270z" />
<glyph unicode="&#x2075;" horiz-adv-x="489" d="M59 944l105 12q-4 -53 14.5 -89t71.5 -36q43 0 63.5 26t20.5 71v219q0 41 -22.5 59.5t-63.5 18.5q-63 0 -90 -49h-84v434h360v-86h-270v-248h2q23 18 50.5 25.5t55.5 7.5q78 0 120 -41t42 -107v-231q0 -88 -47 -136.5t-139 -48.5q-100 0 -147.5 53.5t-41.5 145.5z" />
<glyph unicode="&#x2076;" horiz-adv-x="489" d="M55 920v137q0 51 8.5 84t18.5 57q12 31 36.5 87t51.5 117.5t50.5 118t35.5 87.5h106q-25 -55 -49 -115.5t-45.5 -113t-37 -91.5t-17.5 -47q14 4 28.5 8t30.5 4q84 0 123 -45t39 -116v-179q0 -82 -56 -123.5t-132 -41.5q-96 0 -143.5 45t-47.5 127zM158 907 q0 -35 23.5 -52t64.5 -17q37 0 60.5 17t23.5 52v189q0 33 -23.5 51t-58.5 18q-47 0 -68.5 -27.5t-21.5 -62.5v-168z" />
<glyph unicode="&#x2077;" horiz-adv-x="444" d="M31 1421v187h387v-72l-246 -780h-98l237 766h-186v-101h-94z" />
<glyph unicode="&#x2078;" horiz-adv-x="489" d="M55 920v151q0 84 66 129q-66 43 -66 129v115q0 82 57.5 126t133.5 44t132 -44t56 -126v-115q0 -45 -17.5 -75.5t-45.5 -53.5q29 -23 46 -52.5t17 -76.5v-151q0 -82 -56 -127t-132 -45q-96 0 -143.5 45t-47.5 127zM158 913q0 -35 23.5 -55t64.5 -20q37 0 61.5 21.5 t24.5 55.5v164q0 33 -23.5 56.5t-62.5 23.5q-41 0 -64.5 -23.5t-23.5 -56.5v-166zM158 1317q0 -31 23.5 -51.5t64.5 -20.5q37 0 61.5 20.5t24.5 51.5v133q0 33 -24.5 54.5t-61.5 21.5q-41 0 -64.5 -21.5t-23.5 -54.5v-133z" />
<glyph unicode="&#x2079;" horiz-adv-x="489" d="M55 1274v180q0 80 57.5 121t133.5 41t132 -41t56 -121v-147q0 -49 -8 -82t-18 -60q-14 -29 -39 -85t-50.5 -118.5t-49 -119t-36.5 -86.5h-106q20 49 46 108.5t47.5 112.5t36.5 94t19 51q-27 -10 -59 -10q-84 0 -123 45t-39 117zM158 1268q0 -31 21.5 -49.5t64.5 -18.5 q47 0 66.5 28.5t19.5 61.5v158q0 35 -21.5 57.5t-62.5 22.5q-43 0 -65.5 -22.5t-22.5 -57.5v-180z" />
<glyph unicode="&#x207a;" horiz-adv-x="489" d="M8 1077v80h197v193h82v-193h192v-80h-192v-192h-82v192h-197z" />
<glyph unicode="&#x207b;" horiz-adv-x="446" d="M55 1065v88h348v-88h-348z" />
<glyph unicode="&#x207c;" horiz-adv-x="489" d="M8 987v82h471v-82h-471zM8 1165v82h471v-82h-471z" />
<glyph unicode="&#x207d;" horiz-adv-x="282" d="M49 1128q0 147 50.5 276.5t123.5 229.5l56 -26q-61 -104 -97.5 -228.5t-36.5 -244.5q0 -131 36 -257t95 -227l-53 -35q-72 98 -123 229.5t-51 282.5z" />
<glyph unicode="&#x207e;" horiz-adv-x="282" d="M47 651q59 100 96 226.5t37 257.5q0 121 -35.5 244.5t-97.5 228.5l53 26q76 -102 125 -230t49 -276q0 -152 -51 -281.5t-125 -228.5z" />
<glyph unicode="&#x207f;" horiz-adv-x="512" d="M45 571v668h109v-55q23 27 60.5 45t78.5 18q90 0 130 -52t40 -130v-494h-109v465q0 47 -22.5 78t-75.5 31q-49 0 -75.5 -34t-26.5 -81v-459h-109z" />
<glyph unicode="&#x2080;" horiz-adv-x="489" d="M57 -18v514q0 82 55.5 130t135.5 48q76 0 132 -45t56 -127v-520q0 -82 -56 -128.5t-132 -46.5q-86 0 -138.5 46.5t-52.5 128.5zM160 -14q0 -35 22.5 -56.5t65.5 -21.5q41 0 62.5 24.5t21.5 59.5v506q0 33 -21.5 56.5t-62.5 23.5q-47 0 -67.5 -26t-20.5 -58v-508z" />
<glyph unicode="&#x2081;" horiz-adv-x="409" d="M80 465v106l139 97h98v-852h-100v745z" />
<glyph unicode="&#x2082;" horiz-adv-x="489" d="M53 461q-2 98 47.5 155.5t149.5 57.5q102 0 148 -51.5t46 -137.5q0 -102 -55 -196l-213 -377h260v-96h-379v80l244 438q20 37 28.5 73.5t8.5 75.5t-18.5 70t-71.5 31q-41 0 -65.5 -34t-24.5 -106z" />
<glyph unicode="&#x2083;" horiz-adv-x="489" d="M51 477q4 84 53.5 139.5t149.5 55.5q53 0 88 -14.5t55.5 -39t28.5 -57.5t8 -69v-72q0 -47 -9 -87t-56 -73q45 -23 55 -59.5t10 -89.5v-117q0 -88 -47 -137.5t-139 -49.5q-104 0 -149.5 54.5t-41.5 148.5l105 13q-4 -57 16.5 -91t71.5 -34q41 0 62.5 26.5t21.5 69.5v121 q0 53 -23.5 75.5t-70.5 22.5h-52v88h54q45 0 68.5 20.5t23.5 67.5v103q0 35 -17.5 63.5t-66.5 28.5q-51 0 -72.5 -35t-21.5 -88z" />
<glyph unicode="&#x2084;" horiz-adv-x="489" d="M25 35l192 633h105l-193 -625h166v231h100v-231h72v-92h-72v-135h-100v135h-270v84z" />
<glyph unicode="&#x2085;" horiz-adv-x="489" d="M59 4l105 12q-4 -53 14.5 -89t71.5 -36q43 0 63.5 26t20.5 71v219q0 41 -22.5 59.5t-63.5 18.5q-63 0 -90 -49h-84v434h360v-86h-270v-248h2q23 18 50.5 25.5t55.5 7.5q78 0 120 -41t42 -107v-231q0 -88 -47 -136.5t-139 -48.5q-100 0 -147.5 53.5t-41.5 145.5z" />
<glyph unicode="&#x2086;" horiz-adv-x="489" d="M55 -20v137q0 51 8.5 83.5t18.5 57.5q12 31 36.5 87t51.5 117.5t50.5 118t35.5 87.5h106q-25 -55 -49 -115.5t-45.5 -113t-37 -91.5t-17.5 -47q14 4 28.5 8t30.5 4q84 0 123 -45t39 -116v-179q0 -82 -56 -124t-132 -42q-96 0 -143.5 45.5t-47.5 127.5zM158 -33 q0 -35 23.5 -52t64.5 -17q37 0 60.5 17t23.5 52v185q0 33 -23.5 53t-58.5 20q-47 0 -68.5 -29.5t-21.5 -64.5v-164z" />
<glyph unicode="&#x2087;" horiz-adv-x="444" d="M31 481v187h387v-72l-246 -780h-98l237 766h-186v-101h-94z" />
<glyph unicode="&#x2088;" horiz-adv-x="489" d="M55 -20v151q0 84 66 129q-66 43 -66 129v115q0 82 57.5 126t133.5 44t132 -44t56 -126v-115q0 -45 -17.5 -75.5t-45.5 -53.5q29 -23 46 -52.5t17 -76.5v-151q0 -82 -56 -127.5t-132 -45.5q-96 0 -143.5 45.5t-47.5 127.5zM158 -27q0 -35 23.5 -55t64.5 -20 q37 0 61.5 21.5t24.5 55.5v164q0 33 -23.5 56.5t-62.5 23.5q-41 0 -64.5 -23.5t-23.5 -56.5v-166zM158 377q0 -31 23.5 -51.5t64.5 -20.5q37 0 61.5 20.5t24.5 51.5v133q0 33 -24.5 54.5t-61.5 21.5q-41 0 -64.5 -21.5t-23.5 -54.5v-133z" />
<glyph unicode="&#x2089;" horiz-adv-x="489" d="M55 334v180q0 80 57.5 121t133.5 41t132 -41t56 -121v-147q0 -49 -8 -82t-18 -60q-14 -29 -39 -85t-50.5 -118.5t-49 -119t-36.5 -86.5h-106q20 49 46 108.5t47.5 112.5t36.5 94t19 51q-27 -10 -59 -10q-84 0 -123 45t-39 117zM158 328q0 -31 21.5 -49.5t64.5 -18.5 q47 0 66.5 28.5t19.5 61.5v158q0 35 -21.5 57.5t-62.5 22.5q-43 0 -65.5 -22.5t-22.5 -57.5v-180z" />
<glyph unicode="&#x208a;" horiz-adv-x="489" d="M8 199v77h197v193h82v-193h192v-77h-192v-193h-82v193h-197z" />
<glyph unicode="&#x208b;" horiz-adv-x="446" d="M55 186v86h348v-86h-348z" />
<glyph unicode="&#x208c;" horiz-adv-x="489" d="M8 109v79h471v-79h-471zM8 287v80h471v-80h-471z" />
<glyph unicode="&#x208d;" horiz-adv-x="282" d="M49 188q0 147 50.5 276.5t123.5 229.5l56 -26q-61 -104 -97.5 -228.5t-36.5 -244.5q0 -131 36 -257t95 -227l-53 -35q-72 98 -123 229.5t-51 282.5z" />
<glyph unicode="&#x208e;" horiz-adv-x="282" d="M47 -289q59 100 96 226t37 258q0 121 -35.5 244.5t-97.5 228.5l53 26q76 -102 125 -230t49 -276q0 -152 -51 -281.5t-125 -228.5z" />
<glyph unicode="&#x20ac;" horiz-adv-x="751" d="M31 573v80h69v140h-69v79h69v203q0 76 16.5 142.5t53.5 115.5t96.5 77t143.5 28q137 0 218 -71t85 -200l-125 -20q-6 90 -53.5 132t-126.5 42q-49 0 -83 -19.5t-56.5 -51t-33 -74.5t-10.5 -89v-215h322v-79h-322v-140h322v-80h-322v-260q0 -41 10.5 -79.5t33 -67.5 t57 -46.5t82.5 -17.5q78 0 124 42t56 135l129 -19q-12 -135 -94 -204.5t-213 -69.5q-145 0 -227.5 82t-82.5 241v264h-69z" />
<glyph unicode="&#x2105;" horiz-adv-x="1118" d="M82 998.5v58.5q0 74 5 147.5t17 108.5q20 53 66.5 87t126.5 34q102 0 151.5 -56.5t49.5 -158.5l-109 -15q-2 61 -27.5 94t-68.5 33q-29 0 -52.5 -12t-37.5 -45q-8 -20 -11.5 -86t-3.5 -156q0 -45 1 -96t12 -80q18 -59 92 -59q92 0 96 127l107 -21q-2 -100 -54.5 -153.5 t-154.5 -53.5q-92 0 -134 43t-59 97q-4 16 -6 42.5t-4 57.5t-2 62.5zM188 -35l643 1497h89l-644 -1497h-88zM614 287.5v60.5q0 37 1 76t4.5 73.5t7.5 63.5t10 45q20 53 68.5 85t128.5 32q84 0 127 -34t63 -81q8 -20 13 -53t7.5 -69.5t2.5 -75.5v-72q0 -47 -2.5 -86t-6.5 -80 q-6 -53 -27.5 -89t-51 -56.5t-65.5 -28.5t-69 -8q-92 0 -136 39t-60 96q-4 14 -7.5 41t-5.5 58.5t-2 63zM721 324q0 -53 3 -99.5t9 -70.5q10 -29 36 -48.5t62 -19.5q61 0 89 55q10 16 16 72.5t6 130.5q0 61 -3 123.5t-11 87.5q-19 70 -97 70q-25 0 -47 -10.5t-39 -34.5 q-16 -29 -20 -96.5t-4 -159.5z" />
<glyph unicode="&#x2116;" horiz-adv-x="1388" d="M102 0v1425h119q12 -31 36 -88t53.5 -127.5t61 -147.5t61.5 -147.5t53.5 -128t37.5 -88.5l144 -356h8v1083h125v-1425h-119q-12 31 -35.5 87t-53.5 127t-61.5 147.5t-61.5 146.5t-54.5 126t-36.5 87l-146 356h-6v-1077h-125zM891 1026v57q0 68 4 136.5t18 99.5 q18 51 66.5 82t126.5 31q84 0 129 -31t63 -78q14 -33 17.5 -87t3.5 -110v-61q0 -37 -2 -74t-6 -76q-6 -47 -27.5 -79.5t-51.5 -53t-66 -29t-68 -8.5q-90 0 -134 38t-61 87q-4 16 -7 41t-4 54.5t-1 60.5zM911 586v98h385v-98h-385zM997 1059q0 -53 1 -95t10 -65 q18 -59 98 -59q39 0 64.5 19.5t33.5 53.5q4 25 7 71t3 97q0 53 -2 112.5t-10 82.5q-10 29 -35.5 45t-60.5 16q-70 0 -92 -53q-10 -23 -13.5 -72t-3.5 -112v-41z" />
<glyph unicode="&#x2122;" horiz-adv-x="1306" d="M66 1329v96h444v-96h-172v-700h-100v700h-172zM586 627v796h98l213 -520l207 520h96v-796h-100v522h-6l-160 -385h-82l-162 393h-6v-530h-98z" />
<glyph unicode="&#x2153;" horiz-adv-x="1187" d="M104 1221v106l140 96h98v-852h-100v746zM182 -35l643 1497h86l-643 -1497h-86zM698 662q4 84 53.5 139t149.5 55q53 0 88 -14.5t55.5 -39t28.5 -57t8 -69.5v-72q0 -47 -9 -87t-56 -73q45 -23 55 -59.5t10 -89.5v-117q0 -88 -47 -137t-139 -49q-104 0 -149.5 54t-40.5 149 l104 12q-4 -57 16.5 -91t71.5 -34q41 0 62.5 26.5t21.5 69.5v121q0 53 -23.5 75.5t-70.5 22.5h-51v88h53q45 0 68.5 20.5t23.5 67.5v103q0 35 -17.5 63.5t-66.5 28.5q-51 0 -72.5 -35t-21.5 -88z" />
<glyph unicode="&#x2154;" horiz-adv-x="1187" d="M80 1217q-2 98 47 155.5t149 57.5q102 0 148.5 -51.5t46.5 -137.5q0 -102 -55 -197l-213 -376h260v-97h-379v80l244 439q20 37 28.5 73.5t8.5 75.5t-19 69.5t-72 30.5q-41 0 -65.5 -33.5t-24.5 -105.5zM252 -35l643 1497h86l-643 -1497h-86zM727 662q4 84 53 139t150 55 q53 0 88 -14.5t55.5 -39t28.5 -57t8 -69.5v-72q0 -47 -9 -87t-57 -73q45 -23 55.5 -59.5t10.5 -89.5v-117q0 -88 -47 -137t-139 -49q-104 0 -149.5 54t-41.5 149l105 12q-4 -57 16 -91t72 -34q41 0 62.5 26.5t21.5 69.5v121q0 53 -23.5 75.5t-71.5 22.5h-51v88h54 q45 0 68.5 20.5t23.5 67.5v103q0 35 -17.5 63.5t-66.5 28.5q-51 0 -73 -35t-22 -88z" />
<glyph unicode="&#x2155;" horiz-adv-x="1187" d="M98 1221v106l140 96h98v-852h-100v746zM164 -35l643 1497h86l-643 -1497h-86zM715 188l104 13q-4 -53 14.5 -89t71.5 -36q43 0 63.5 25.5t20.5 70.5v219q0 41 -22.5 59.5t-63.5 18.5q-63 0 -90 -49h-84v434h361v-86h-271v-248h2q23 18 50.5 25.5t56.5 7.5q78 0 120 -41 t42 -106v-232q0 -88 -47.5 -136t-139.5 -48q-100 0 -147 53t-41 145z" />
<glyph unicode="&#x2156;" horiz-adv-x="1187" d="M72 1217q-2 98 47 155.5t149 57.5q102 0 148.5 -51.5t46.5 -137.5q0 -102 -55 -197l-213 -376h260v-97h-379v80l243 439q20 37 28.5 73.5t8.5 75.5t-18.5 69.5t-71.5 30.5q-41 0 -65.5 -33.5t-24.5 -105.5zM248 -35l643 1497h86l-643 -1497h-86zM743 188l105 13 q-4 -53 14.5 -89t71.5 -36q43 0 63.5 25.5t20.5 70.5v219q0 41 -22.5 59.5t-63.5 18.5q-63 0 -90 -49h-84v434h360v-86h-270v-248h2q23 18 50.5 25.5t55.5 7.5q78 0 120 -41t42 -106v-232q0 -88 -47 -136t-139 -48q-100 0 -147.5 53t-41.5 145z" />
<glyph unicode="&#x2157;" horiz-adv-x="1187" d="M70 1233q4 84 53 139t149 55q53 0 88 -14t55.5 -38.5t29 -57.5t8.5 -70v-71q0 -47 -9.5 -87t-56.5 -73q45 -23 55.5 -59.5t10.5 -90.5v-116q0 -88 -47.5 -137.5t-139.5 -49.5q-104 0 -149 54.5t-41 148.5l104 12q-4 -57 16.5 -91t71.5 -34q41 0 62.5 27t21.5 70v120 q0 53 -23.5 76t-70.5 23h-51v88h53q45 0 68.5 20.5t23.5 67.5v102q0 35 -17.5 63.5t-66.5 28.5q-51 0 -72.5 -34.5t-21.5 -87.5zM229 -35l643 1497h86l-643 -1497h-86zM741 188l105 13q-4 -53 14.5 -89t71.5 -36q43 0 63.5 25.5t20.5 70.5v219q0 41 -22.5 59.5t-63.5 18.5 q-63 0 -90 -49h-84v434h360v-86h-270v-248h2q23 18 50.5 25.5t55.5 7.5q78 0 120 -41t42 -106v-232q0 -88 -47 -136t-139 -48q-100 0 -147.5 53t-41.5 145z" />
<glyph unicode="&#x2158;" horiz-adv-x="1187" d="M61 707v84l193 632h104l-192 -624h166v231h100v-231h72v-92h-72v-136h-100v136h-271zM262 -35l643 1497h86l-643 -1497h-86zM752 188l104 13q-4 -53 14.5 -89t71.5 -36q43 0 63.5 25.5t20.5 70.5v219q0 41 -22.5 59.5t-63.5 18.5q-63 0 -90 -49h-84v434h360v-86h-270 v-248h2q23 18 50.5 25.5t56.5 7.5q78 0 119.5 -41t41.5 -106v-232q0 -88 -47 -136t-139 -48q-100 0 -147.5 53t-40.5 145z" />
<glyph unicode="&#x2159;" horiz-adv-x="1187" d="M117 1221v106l139 96h98v-852h-100v746zM225 -35l643 1497h86l-643 -1497h-86zM690 164v137q0 51 8.5 84t18.5 57q12 31 36.5 87.5t51 118t50.5 117.5t36 87h106q-25 -55 -49 -115.5t-45.5 -113t-37 -91t-17.5 -47.5q14 4 28.5 8.5t30.5 4.5q84 0 123 -45t39 -117v-178 q0 -82 -56 -124t-132 -42q-96 0 -143.5 45t-47.5 127zM793 152q0 -35 23.5 -52.5t64.5 -17.5q37 0 60.5 17.5t23.5 52.5v184q0 33 -23.5 53.5t-58.5 20.5q-47 0 -68.5 -30t-21.5 -65v-163z" />
<glyph unicode="&#x215a;" horiz-adv-x="1187" d="M102 760l105 12q-4 -53 14.5 -89t71.5 -36q43 0 63.5 25.5t20.5 70.5v220q0 41 -22.5 59t-63.5 18q-63 0 -90 -49h-84v434h360v-86h-270v-247h2q23 18 50.5 25t55.5 7q78 0 120 -41t42 -106v-232q0 -88 -47 -136t-139 -48q-100 0 -147.5 53.5t-41.5 145.5zM281 -35 l643 1497h86l-643 -1497h-86zM709 164v137q0 51 8 84t18 57q12 31 37 87.5t51.5 118t50 117.5t35.5 87h107q-25 -55 -49.5 -115.5t-46 -113t-37 -91t-17.5 -47.5q14 4 28.5 8.5t31.5 4.5q84 0 122.5 -45t38.5 -117v-178q0 -82 -56 -124t-132 -42q-96 0 -143 45t-47 127z M811 152q0 -35 23.5 -52.5t64.5 -17.5q37 0 60.5 17.5t23.5 52.5v184q0 33 -23.5 53.5t-58.5 20.5q-47 0 -68.5 -30t-21.5 -65v-163z" />
<glyph unicode="&#x215b;" horiz-adv-x="1187" d="M104 1221v106l140 96h98v-852h-100v746zM197 -35l643 1497h86l-643 -1497h-86zM702 164v151q0 84 66 129q-66 43 -66 129v115q0 82 57.5 126t133.5 44t132 -44t56 -126v-115q0 -45 -17 -75.5t-46 -53.5q29 -23 46 -52.5t17 -76.5v-151q0 -82 -56 -127t-132 -45 q-96 0 -143.5 45t-47.5 127zM805 158q0 -35 23.5 -55.5t64.5 -20.5q37 0 61.5 21.5t24.5 56.5v164q0 33 -23.5 56t-62.5 23q-41 0 -64.5 -23.5t-23.5 -55.5v-166zM805 561q0 -31 23.5 -51.5t64.5 -20.5q37 0 61.5 20.5t24.5 51.5v133q0 33 -24.5 54.5t-61.5 21.5 q-41 0 -64.5 -21.5t-23.5 -54.5v-133z" />
<glyph unicode="&#x215c;" horiz-adv-x="1187" d="M86 1233q4 84 53 139t150 55q53 0 88 -14t55.5 -38.5t28.5 -57.5t8 -70v-71q0 -47 -9 -87t-57 -73q45 -23 55.5 -59.5t10.5 -90.5v-116q0 -88 -47 -137.5t-139 -49.5q-104 0 -149.5 54.5t-41.5 148.5l105 12q-4 -57 16 -91t72 -34q41 0 62.5 27t21.5 70v120 q0 53 -23.5 76t-71.5 23h-51v88h53q45 0 69 20.5t24 67.5v102q0 35 -17.5 63.5t-66.5 28.5q-51 0 -73 -34.5t-22 -87.5zM242 -35l643 1497h86l-643 -1497h-86zM723 164v151q0 84 65 129q-66 43 -65 129v115q0 82 57.5 126t132.5 44q76 0 132.5 -44t56.5 -126v-115 q0 -45 -17.5 -75.5t-46.5 -53.5q29 -23 46.5 -52.5t17.5 -76.5v-151q0 -82 -56.5 -127t-132.5 -45q-96 0 -143 45t-47 127zM825 158q0 -35 23.5 -55.5t64.5 -20.5q37 0 61.5 21.5t24.5 56.5v164q0 33 -23.5 56t-62.5 23q-41 0 -64.5 -23.5t-23.5 -55.5v-166zM825 561 q0 -31 23.5 -51.5t64.5 -20.5q37 0 61.5 20.5t24.5 51.5v133q0 33 -24.5 54.5t-61.5 21.5q-41 0 -64.5 -21.5t-23.5 -54.5v-133z" />
<glyph unicode="&#x215d;" horiz-adv-x="1187" d="M90 760l105 12q-4 -53 14 -89t72 -36q43 0 63.5 25.5t20.5 70.5v220q0 41 -23 59t-63 18q-63 0 -91 -49h-84v434h361v-86h-270v-247h2q23 18 50 25t56 7q78 0 120 -41t42 -106v-232q0 -88 -47 -136t-139 -48q-100 0 -147.5 53.5t-41.5 145.5zM240 -35l643 1497h86 l-643 -1497h-86zM719 164v151q0 84 65 129q-66 43 -65 129v115q0 82 57.5 126t132.5 44q76 0 132.5 -44t56.5 -126v-115q0 -45 -17.5 -75.5t-46.5 -53.5q29 -23 46.5 -52.5t17.5 -76.5v-151q0 -82 -56.5 -127t-132.5 -45q-96 0 -143 45t-47 127zM821 158q0 -35 23.5 -55.5 t64.5 -20.5q37 0 61.5 21.5t24.5 56.5v164q0 33 -23.5 56t-62.5 23q-41 0 -64.5 -23.5t-23.5 -55.5v-166zM821 561q0 -31 23.5 -51.5t64.5 -20.5q37 0 61.5 20.5t24.5 51.5v133q0 33 -24.5 54.5t-61.5 21.5q-41 0 -64.5 -21.5t-23.5 -54.5v-133z" />
<glyph unicode="&#x215e;" horiz-adv-x="1187" d="M102 1237v186h387v-71l-245 -781h-99l238 766h-186v-100h-95zM184 -35l643 1497h86l-643 -1497h-86zM707 164v151q0 84 65 129q-66 43 -65 129v115q0 82 57 126t133 44t132 -44t56 -126v-115q0 -45 -17 -75.5t-46 -53.5q29 -23 46 -52.5t17 -76.5v-151q0 -82 -56 -127 t-132 -45q-96 0 -143 45t-47 127zM809 158q0 -35 23.5 -55.5t64.5 -20.5q37 0 61.5 21.5t24.5 56.5v164q0 33 -23.5 56t-62.5 23q-41 0 -64.5 -23.5t-23.5 -55.5v-166zM809 561q0 -31 23.5 -51.5t64.5 -20.5q37 0 61.5 20.5t24.5 51.5v133q0 33 -24.5 54.5t-61.5 21.5 q-41 0 -64.5 -21.5t-23.5 -54.5v-133z" />
<glyph unicode="&#x2190;" horiz-adv-x="1691" d="M145 657l443 445l78 -78l-320 -313h1227v-107h-1227l320 -313l-78 -78z" />
<glyph unicode="&#x2191;" horiz-adv-x="993" d="M57 985l445 445l444 -445l-78 -78l-315 316v-1221h-107v1221l-311 -316z" />
<glyph unicode="&#x2192;" horiz-adv-x="1691" d="M147 604v107h1225l-319 313l80 78l442 -445l-442 -444l-80 78l319 313h-1225z" />
<glyph unicode="&#x2193;" horiz-adv-x="993" d="M57 449l78 77l314 -319v1225h104v-1225l315 319l78 -77l-444 -445z" />
<glyph unicode="&#x2196;" horiz-adv-x="1720" d="M254 686v627h629v-107h-449l1127 -1120l-76 -76l-1125 1125v-449h-106z" />
<glyph unicode="&#x2198;" horiz-adv-x="1720" d="M252 1241l76 76l1122 -1124v446h109v-627h-631v109h450z" />
<glyph unicode="&#x21a9;" horiz-adv-x="1720" d="M88 657l440 445l80 -78l-317 -313h1020q61 0 103 18.5t68.5 50t38 75.5t11.5 93v166q0 98 -52.5 153.5t-168.5 55.5h-142v104h152q88 0 149.5 -24.5t100.5 -67.5t55 -102t16 -127v-158q0 -158 -84.5 -251t-263.5 -93h-1003l317 -313l-80 -78z" />
<glyph unicode="&#x21aa;" horiz-adv-x="1703" d="M90 948v158q0 68 16.5 127t54.5 102t99.5 67.5t149.5 24.5h151v-104h-141q-117 0 -168 -55.5t-51 -153.5v-166q0 -49 11 -93t36.5 -75.5t67.5 -50t104 -18.5h1024l-320 313l78 78l443 -445l-443 -444l-78 78l320 313h-1008q-178 0 -262 93.5t-84 250.5z" />
<glyph unicode="&#x21b3;" horiz-adv-x="1720" d="M246 602v815h110v-706h1096l-317 313l75 78l443 -445l-441 -444l-77 78l317 311h-1206z" />
<glyph unicode="&#x21b5;" horiz-adv-x="1720" d="M207 657l438 445l78 -78l-317 -313h1095v706h111v-815h-1206l317 -311l-78 -78z" />
<glyph unicode="&#x21de;" horiz-adv-x="993" d="M66 983l442 442l444 -442l-75 -78l-314 312l2 -459h230v-109h-230v-182h230v-109h-230v-358h-110v358h-230v109h230v182h-230v109h230v459l-314 -312z" />
<glyph unicode="&#x21df;" horiz-adv-x="993" d="M66 442l75 78l314 -315v463h-230v108h230v182h-230v109h230v358h110v-358h230v-109h-230v-182h230v-108h-230l-2 -463l314 315l75 -78l-444 -442z" />
<glyph unicode="&#x21e0;" horiz-adv-x="1687" d="M119 657l221.5 221.5t220.5 221.5q18 -18 39 -37t39 -39l-322 -315h318v-107h-318l322 -313l-78 -76zM758 602v107h182v-107h-182zM1067 602v107h184v-107h-184zM1378 602v107h162v-107h-162z" />
<glyph unicode="&#x21e1;" horiz-adv-x="983" d="M49 981l447 444l442 -444l-76 -78l-315 320v-314h-107v314l-313 -320zM438 2v164h109v-164h-109zM438 293v182h109v-182h-109zM438 602v180h109v-180h-109z" />
<glyph unicode="&#x21e2;" horiz-adv-x="1687" d="M121 602v109h162v-109h-162zM410 602v109h184v-109h-184zM721 602v109h182v-109h-182zM1020 291l323 313h-317v107h317l-323 313l80 78l442 -445l-442 -444z" />
<glyph unicode="&#x21e3;" horiz-adv-x="983" d="M49 442l76 78q78 -80 157.5 -158.5t157.5 -160.5v315h105v-315q78 82 157.5 160.5t157.5 158.5q20 -18 39 -37.5t37 -40.5l-442 -442zM438 641v182h107v-182h-107zM438 948v185h107v-185h-107zM438 1260v163h107v-163h-107z" />
<glyph unicode="&#x21e4;" horiz-adv-x="1662" d="M156 217v881h110v-881h-110zM365 657l442 445l80 -78l-320 -313h1035v-107h-1035l320 -313l-80 -78z" />
<glyph unicode="&#x21e5;" horiz-adv-x="1662" d="M158 604v107h1034l-320 313l80 78l443 -445l-443 -444l-80 78l320 313h-1034zM1495 217v881h109v-881h-109z" />
<glyph unicode="&#x21e7;" horiz-adv-x="1665" d="M92 657l744 770l743 -770h-369v-657h-747v657h-371zM299 739h254v-649h569v649h250l-536 555z" />
<glyph unicode="&#x21ea;" horiz-adv-x="1675" d="M84 657l745 770l744 -770h-371v-489h-747v489h-371zM291 739h254v-481h569v481h250l-535 555zM455 -20h747v-369h-747v369zM545 -109v-190h569v190h-569z" />
<glyph unicode="&#x2303;" horiz-adv-x="1628" d="M221 848l592 592l592 -590l-86 -86l-506 504l-506 -506z" />
<glyph unicode="&#x2318;" horiz-adv-x="1687" d="M113 266q0 57 19.5 107.5t55 88.5t88 60.5t119.5 22.5h164v338h-164q-57 0 -108 22.5t-90 60.5t-61.5 88t-22.5 107t20.5 108.5t58 89.5t90 60.5t113.5 22.5q70 0 122 -22.5t87 -60.5t52.5 -89t17.5 -109v-168h334v168q0 57 20.5 108.5t57 89.5t89 60.5t113.5 22.5 q68 0 120 -22.5t88 -61.5t54.5 -89t18.5 -108q0 -55 -22.5 -105t-60.5 -89t-89 -61.5t-109 -22.5h-166v-338h166q70 0 123 -22.5t88 -60.5t52.5 -89t17.5 -107q0 -55 -17.5 -106t-52.5 -90t-88 -61.5t-123 -22.5q-68 0 -120 22.5t-88 60t-54 89t-18 108.5v168h-334v-168 q0 -55 -17.5 -105t-52.5 -89t-87 -62.5t-122 -23.5q-66 0 -118 21.5t-88.5 60t-56 89t-19.5 109.5zM225 266q0 -72 48.5 -121t121.5 -49q70 0 117 49.5t47 120.5v168h-164q-74 0 -122 -50t-48 -118zM225 1161q0 -72 48.5 -120t121.5 -48h164v168q0 70 -48 118t-116 48 q-72 0 -121 -47t-49 -119zM674 545h334v338h-334v-338zM1122 266q0 -72 48.5 -121t117.5 -49q72 0 120 49.5t48 120.5q0 68 -48 118t-120 50h-166v-168zM1122 993h166q72 0 120 49.5t48 118.5q0 70 -48 118t-120 48q-70 0 -118 -47t-48 -119v-168z" />
<glyph unicode="&#x2324;" horiz-adv-x="1628" d="M242 1305v120h1181v-120h-1181zM248 635l583 616l584 -614l-84 -86l-500 532l-497 -532z" />
<glyph unicode="&#x2325;" horiz-adv-x="2433" d="M88 1247v121h563l701 -1249h964v-119h-1059l-700 1247h-469zM1075 1247v121h1241v-121h-1241z" />
<glyph unicode="&#x2326;" horiz-adv-x="2351" d="M184 0v1423h1350l692 -712l-692 -711h-1350zM295 113h1173l592 598l-592 598h-1173v-1196zM629 387l325 324l-325 325l80 80l323 -325l326 325l78 -80l-324 -325l324 -324l-78 -80l-326 328l-323 -328z" />
<glyph unicode="&#x232b;" horiz-adv-x="2351" d="M186 711l693 712h1347v-1423h-1349zM348 711l592 -598h1174v1196h-1174zM975 387l323 324l-323 325l78 80l327 -325l324 325l78 -80l-326 -325l326 -324l-78 -80l-324 328l-327 -328z" />
<glyph unicode="&#x235f;" horiz-adv-x="1646" d="M94 711q0 150 56.5 281.5t154.5 230t230.5 155t283.5 56.5q150 0 282 -57.5t230.5 -156t154.5 -230.5t56 -281h-2q0 -150 -57.5 -282t-155.5 -230.5t-230 -154.5t-282 -56t-281 56t-229 154.5t-154.5 230.5t-56.5 284zM211 709q0 -125 47 -234.5t129 -191.5t192.5 -129.5 t235.5 -47.5t235.5 47.5t192.5 129.5t129 191.5t47 234.5t-47 235.5t-129 192.5t-192.5 129t-235.5 47t-235.5 -47t-192.5 -129t-129 -192.5t-47 -235.5zM311 848l334 65l154 304l164 -299l335 -70l-231 -232l53 -346l-321 156l-289 -156l43 338z" />
<glyph unicode="&#x23cf;" horiz-adv-x="1748" d="M135 186v279h1438v-279h-1438zM135 643l719 719l719 -719h-1438z" />
<glyph unicode="&#x25a0;" horiz-adv-x="1792" d="M252 82v1296h1296v-1296h-1296z" />
<glyph unicode="&#x25a1;" horiz-adv-x="1722" d="M168 0v1419h1407v-1419h-1407zM272 98h1201v1219h-1201v-1219z" />
<glyph unicode="&#x25b2;" horiz-adv-x="1679" d="M162 360l719 719l718 -719h-1437z" />
<glyph unicode="&#x25b6;" horiz-adv-x="1218" d="M283 0v1436l718 -717z" />
<glyph unicode="&#x25bc;" horiz-adv-x="1679" d="M162 1079h1437l-718 -719z" />
<glyph unicode="&#x25c0;" horiz-adv-x="1218" d="M207 719l719 717v-1436z" />
<glyph unicode="&#x25ca;" horiz-adv-x="690" d="M43 594l229 588h134q57 -147 115.5 -294t117.5 -294l-233 -588h-134zM152 590h2q47 -119 92 -235.5t92 -235.5h4l186 471q-47 119 -95 237.5t-95 237.5h-4q-45 -119 -90 -237.5t-92 -237.5z" />
<glyph unicode="&#x25cf;" horiz-adv-x="1726" d="M227 731q0 135 53.5 253t142.5 205t207 138t247 51t245.5 -51t205.5 -140t142.5 -207t53.5 -249t-51.5 -248.5t-140.5 -207t-206.5 -141.5t-248.5 -52q-133 0 -251 51t-207 140t-140.5 207t-51.5 251z" />
<glyph unicode="&#x25fc;" horiz-adv-x="1003" d="M0 0v1004h1004v-1004h-1004z" />
<glyph unicode="&#x2602;" horiz-adv-x="1597" d="M102 745q0 131 62.5 253t159 217.5t215 152.5t231.5 57v64h59v-66q113 0 231 -56t214 -150.5t157.5 -217t61.5 -254.5q-33 37 -82 58.5t-102 21.5q-47 0 -92.5 -19.5t-83.5 -60.5h-5q-47 80 -153 80q-57 0 -127 -28v-623q0 -86 -52.5 -138t-150.5 -52q-86 0 -142.5 48 t-56.5 152v27h97v-27q0 -57 27.5 -83.5t70.5 -26.5q33 0 53.5 10t31.5 26.5t15 37t4 40.5v607q-29 14 -55 19t-51 5q-53 0 -95 -20.5t-79 -55.5q-35 41 -82 60.5t-96 19.5q-51 0 -99.5 -19.5t-83.5 -60.5zM1493 745l2 -2q-2 0 -2 2z" />
<glyph unicode="&#x2605;" horiz-adv-x="1667" d="M86 874l510 99l233 463l252 -457l512 -105l-354 -354l80 -528l-490 239l-438 -239l66 514z" />
<glyph unicode="&#x2606;" horiz-adv-x="1716" d="M80 887l520 100l231 461l254 -457l521 -104l-361 -361l80 -530l-491 240l-447 -244l68 522zM199 850l313 -313l-55 -443l377 203l421 -203l-71 453l305 303l-436 88l-219 395l-201 -401z" />
<glyph unicode="&#x2610;" horiz-adv-x="1722" d="M168 0v1419h1407v-1419h-1407zM272 98h1201v1219h-1201v-1219z" />
<glyph unicode="&#x2611;" horiz-adv-x="1740" d="M168 0v1419h1407v-1419h-1407zM272 96h1203v1221h-1203v-1221zM403 745q35 27 77 37.5t69 10.5q18 0 43.5 -36t51.5 -92.5t47.5 -126t31.5 -137.5q59 98 142 215t176.5 229.5t191.5 209t188 153.5l17 -14q-53 -41 -114.5 -109.5t-124 -153.5t-124 -178.5t-117 -185.5 t-101.5 -175t-77 -146q-104 -18 -145 -41q-16 61 -44 145t-59.5 164t-65.5 144.5t-63 86.5z" />
<glyph unicode="&#x2612;" horiz-adv-x="1740" d="M170 0v1419h1407v-1419h-1407zM274 98h1201v1219h-1201v-1219zM385 319l395 396l-395 395l84 84l397 -399l391 399l84 -82l-393 -393l400 -400l-88 -81l-396 399l-397 -404z" />
<glyph unicode="&#x2622;" horiz-adv-x="1714" d="M102 719q0 137 53.5 270t152 239.5t236.5 172t308 65.5q160 0 299 -57t241.5 -156.5t161 -233.5t58.5 -290q0 -158 -58.5 -297t-160 -242.5t-239.5 -164t-298 -60.5q-158 0 -295 58.5t-239.5 160t-161 239.5t-58.5 296zM176 719q0 -143 54.5 -267t147.5 -216.5 t218 -144.5t264 -52q135 0 257 54t215 146.5t147.5 212t54.5 250.5q0 162 -58.5 291t-153.5 219.5t-218 139.5t-252 49q-139 0 -262 -54.5t-215 -147.5t-145.5 -217t-53.5 -263zM236 719q0 176 72.5 305t234.5 233l202 -352q-47 -29 -73.5 -77t-32.5 -109h-403zM547 184 l201 348q61 -29 110 -28q41 0 103 28l204 -350q-162 -84 -315 -84q-166 0 -303 86zM692 719q0 70 48 118t116 48q33 0 62.5 -14.5t51 -37t34 -52t12.5 -62.5t-12.5 -61.5t-34 -50t-51 -35t-62.5 -13.5q-63 0 -113.5 45t-50.5 115zM961 909l204 351q147 -82 229.5 -221.5 t82.5 -319.5h-404q-12 127 -112 190z" />
<glyph unicode="&#x2623;" horiz-adv-x="1753" d="M113 494q0 59 16 116.5t54 107.5t98.5 92t150.5 71q0 129 23.5 224t71.5 159.5t122 104.5t176 58l11 -30q-279 -81 -279 -310q0 -139 78 -220t227 -99v-45q-47 -10 -66.5 -38t-19.5 -56q0 -10 2 -19.5t6 -19.5l-39 -21q-123 147 -272 148q-59 0 -115.5 -24.5t-99.5 -66.5 t-69.5 -97.5t-26.5 -116.5q0 -45 12 -115l-22 -10q-16 51 -27.5 103t-11.5 104zM207 180l22 17q139 -123 240 -123q68 0 127 25.5t103 68.5t70 101.5t26 123.5q0 25 -5.5 62t-31.5 84l45 26q14 -23 35.5 -30t42.5 -7q37 0 67 35l47 -24q-35 -84 -34 -148q0 -63 24.5 -119.5 t67.5 -99.5t98 -67.5t117 -24.5q135 0 250 110l24 -16q-39 -53 -78 -87t-81 -53.5t-89 -26.5t-102 -7q-78 0 -158.5 21.5t-156.5 87.5q-86 -66 -166 -87.5t-152 -21.5q-53 0 -100 8t-89 28.5t-82 55.5t-81 88zM463 606q0 43 8 78h25q45 -4 86 -25v-61q0 -156 180 -246 q-4 -29 -15.5 -56t-27.5 -50q-57 25 -104.5 61.5t-81 84.5t-52 102.5t-18.5 111.5zM623 946q66 43 127 65.5t127 22.5q131 0 256 -88q-27 -55 -76 -88q-90 61 -176 62q-84 0 -183 -62q-29 16 -45 38t-30 50zM891 723v45q147 18 225 101.5t78 222.5q0 223 -242 303l11 32 q186 -41 274 -157.5t88 -317.5v-32.5t-2 -34.5q160 -63 237.5 -171t77.5 -245q0 -92 -36 -197l-27 9q16 88 16 133q0 61 -25.5 115.5t-68.5 94.5t-101.5 62.5t-123.5 22.5q-82 0 -146.5 -39t-113.5 -107l-47 27q6 20 6 41q0 33 -18.5 56.5t-61.5 35.5zM991 352 q180 90 180 254v24.5t-2 28.5q23 14 55.5 17.5t55.5 3.5q8 -33 8 -76q0 -111 -68.5 -207t-191.5 -151q-14 25 -23.5 51.5t-13.5 54.5z" />
<glyph unicode="&#x262e;" horiz-adv-x="1708" d="M96 723q0 154 58.5 289t160 234.5t236.5 156.5t289 57q160 0 298 -57t240.5 -156.5t160.5 -232.5t58 -285q0 -158 -59 -295t-162.5 -238.5t-243 -160t-296.5 -58.5q-150 0 -284 59.5t-235.5 161t-161 237.5t-59.5 288zM229 719q0 -55 5.5 -96t15.5 -74t25.5 -64.5 t37.5 -68.5l473 430v489q-123 -16 -225 -67t-176 -132t-115 -187.5t-41 -229.5zM383 324q47 -45 92 -82t92 -67t100.5 -49.5t118.5 -29.5v596zM903 100q121 14 219.5 69.5t190.5 154.5l-410 368v-592zM903 846l479 -428q37 66 58.5 141.5t21.5 169.5q0 119 -39 221.5 t-111.5 181t-176 132t-232.5 71.5v-489z" />
<glyph unicode="&#x262f;" horiz-adv-x="1695" d="M102 729q0 168 64.5 304t169 233.5t238 150.5t272.5 53q168 0 306 -60t236.5 -162.5t151.5 -239t53 -287.5q0 -168 -60 -304t-162.5 -233.5t-237 -149.5t-283.5 -52q-166 0 -304 62t-236.5 165.5t-153 239t-54.5 280.5zM500 1337l10 -8q43 12 86 12q84 0 152.5 -31.5 t116.5 -79.5t75 -104.5t27 -107.5q0 -104 -40 -193.5t-139 -187.5q-43 -43 -59 -105.5t-16 -105.5q0 -152 93 -237t263 -85q88 0 174 48.5t153.5 132.5t109.5 196.5t42 241.5q0 135 -50 263t-142 226.5t-221 159t-289 60.5q-92 0 -179 -24t-167 -71zM518 999 q0 -41 26.5 -71.5t73.5 -30.5q45 0 75 30.5t30 71.5q0 37 -28.5 69t-78.5 32q-35 0 -66.5 -28t-31.5 -73zM977 457q0 47 31.5 76.5t66.5 29.5q45 0 75 -32.5t30 -73.5q0 -45 -32 -73t-73 -28q-43 0 -70.5 32t-27.5 69z" />
<glyph unicode="&#x2672;" horiz-adv-x="1882" d="M102 862h433l174 -375l-123 72l-64 -57q-33 -31 -33 -60q0 -51 64 -51h393v-432h-379q-66 0 -92 21.5t-47 58.5l-231 426q-14 25 -19.5 51.5t-5.5 54.5q0 53 14.5 102.5t51.5 88.5zM188 831l97 -65q-39 -37 -60.5 -87t-21.5 -104q0 -59 19.5 -95t51 -55t70.5 -26.5 t76 -7.5h57q-23 16 -22 49q0 41 39 80l86 78l57 -35l-125 268h-324zM268 391l181 -334q18 -33 39.5 -52t68.5 -19h361v379h-486q-35 0 -58.5 2t-41 5t-32.5 8t-32 11zM365 1026l210 340q23 37 56 57.5t86 20.5h497q41 0 56.5 -5t29.5 -28l109 -178l131 78l-172 -393l-432 43 l123 77l-94 166l-254 -379zM408 1032l294 -170l246 371q-39 76 -97 125t-146 49q-59 0 -99 -57zM801 1417q63 -14 105 -67.5t79 -118.5l115 -205l-76 -47l326 -31l137 297l-82 -53l-121 190q-12 20 -26.5 27.5t-38.5 7.5h-418zM1001 160l226 346v-144h223l-236 400l353 209 l194 -361q18 -37 19 -61q0 -23 -7.5 -42.5t-17.5 -37.5l-221 -397q-18 -33 -31.5 -54.5t-27 -35t-31 -18.5t-43.5 -5h-172v-158zM1036 160l166 -266v92h197q18 0 41.5 10t42.5 43l211 385q-66 -61 -138.5 -76.5t-181.5 -15.5h-172v90zM1251 754l236 -392q39 4 84 20.5 t84 42.5t64.5 58.5t25.5 69.5q0 14 -4 26.5t-8 22.5l-183 326z" />
<glyph unicode="&#x2673;" horiz-adv-x="1779" d="M102 213q0 74 50 160l149 268l-94 51l14 27l242 45l86 -229l-17 -31l-96 59l-131 -237q-27 -49 -26 -88q0 -37 27.5 -62.5t92.5 -25.5h406v-150h-436q-123 0 -195 58.5t-72 154.5zM449 897l217 379q45 78 101 111.5t118 33.5q63 0 121.5 -36.5t95.5 -102.5l149 -264 l105 59l12 -28l-90 -230l-248 43l-12 25l100 55l-145 246q-16 29 -40 45t-52 16q-29 0 -55.5 -20.5t-43.5 -50.5l-202 -357zM739 662v116l86 62h101v-594h-113v467zM913 74l160 200l27 -4v-120h262q74 0 107.5 24.5t33.5 65.5q0 39 -33 94l-204 348l137 80l227 -397 q47 -80 47 -150q0 -98 -83 -156.5t-210 -58.5h-286v-121h-33z" />
<glyph unicode="&#x2674;" horiz-adv-x="1779" d="M102 213q0 74 50 160l149 268l-94 51l14 27l242 45l86 -229l-17 -31l-96 59l-131 -237q-27 -49 -26 -88q0 -37 27.5 -62.5t92.5 -25.5h406v-150h-436q-123 0 -195 58.5t-72 154.5zM449 897l217 379q45 78 101 111.5t118 33.5q63 0 121.5 -36.5t95.5 -102.5l149 -264 l105 59l12 -28l-90 -230l-248 43l-12 25l100 55l-145 246q-16 29 -40 45t-52 16q-29 0 -55.5 -20.5t-43.5 -50.5l-202 -357zM674 254v94l219 275q29 31 29 67q0 23 -16.5 41.5t-47.5 18.5q-29 0 -48 -24t-26 -64l-106 12q12 86 63.5 132t116.5 46q74 0 123 -41t49 -119 q0 -29 -10 -60.5t-33 -60.5l-170 -213h203v-104h-346zM913 74l160 200l27 -4v-120h262q74 0 107.5 24.5t33.5 65.5q0 39 -33 94l-204 348l137 80l227 -397q47 -80 47 -150q0 -98 -83 -156.5t-210 -58.5h-286v-121h-33z" />
<glyph unicode="&#x2675;" horiz-adv-x="1779" d="M102 213q0 74 50 160l149 268l-94 51l14 27l242 45l86 -229l-17 -31l-96 59l-131 -237q-27 -49 -26 -88q0 -37 27.5 -62.5t92.5 -25.5h406v-150h-436q-123 0 -195 58.5t-72 154.5zM449 897l217 379q45 78 101 111.5t118 33.5q63 0 121.5 -36.5t95.5 -102.5l149 -264 l105 59l12 -28l-90 -230l-248 43l-12 25l100 55l-145 246q-16 29 -40 45t-52 16q-29 0 -55.5 -20.5t-43.5 -50.5l-202 -357zM674 406l104 14q8 -39 27.5 -55.5t44.5 -16.5q37 0 58.5 25.5t21.5 62.5q0 39 -21.5 58.5t-54.5 19.5h-59v98h53q33 0 54.5 19.5t21.5 48.5 t-20.5 49.5t-49.5 20.5q-23 0 -41 -19.5t-29 -54.5l-106 12q14 72 63.5 118t112.5 46q92 0 134 -51t42 -119q0 -31 -10 -59.5t-45 -55.5q35 -29 47 -61.5t12 -67.5q0 -86 -50 -138t-136 -52q-29 0 -56.5 7t-51 25.5t-41 49t-25.5 76.5zM913 74l160 200l27 -4v-120h262 q74 0 107.5 24.5t33.5 65.5q0 39 -33 94l-204 348l137 80l227 -397q47 -80 47 -150q0 -98 -83 -156.5t-210 -58.5h-286v-121h-33z" />
<glyph unicode="&#x2676;" horiz-adv-x="1779" d="M102 213q0 74 50 160l149 268l-94 51l14 27l242 45l86 -229l-17 -31l-96 59l-131 -237q-27 -49 -26 -88q0 -37 27.5 -62.5t92.5 -25.5h406v-150h-436q-123 0 -195 58.5t-72 154.5zM449 897l217 379q45 78 101 111.5t118 33.5q63 0 121.5 -36.5t95.5 -102.5l149 -264 l105 59l12 -28l-90 -230l-248 43l-12 25l100 55l-145 246q-16 29 -40 45t-52 16q-29 0 -55.5 -20.5t-43.5 -50.5l-202 -357zM633 342v88l196 422h115l-190 -410h118v144h105v-144h45v-100h-45v-84h-105v84h-239zM913 74l160 200l27 -4v-120h262q74 0 107.5 24.5t33.5 65.5 q0 39 -33 94l-204 348l137 80l227 -397q47 -80 47 -150q0 -98 -83 -156.5t-210 -58.5h-286v-121h-33z" />
<glyph unicode="&#x2677;" horiz-adv-x="1779" d="M102 213q0 74 50 160l149 268l-94 51l14 27l242 45l86 -229l-17 -31l-96 59l-131 -237q-27 -49 -26 -88q0 -37 27.5 -62.5t92.5 -25.5h406v-150h-436q-123 0 -195 58.5t-72 154.5zM449 897l217 379q45 78 101 111.5t118 33.5q63 0 121.5 -36.5t95.5 -102.5l149 -264 l105 59l12 -28l-90 -230l-248 43l-12 25l100 55l-145 246q-16 29 -40 45t-52 16q-29 0 -55.5 -20.5t-43.5 -50.5l-202 -357zM684 397l104 21q16 -78 74 -78q27 0 42.5 11t23.5 28.5t11 38t3 39.5q0 39 -13.5 70.5t-58.5 31.5q-20 0 -36.5 -14.5t-30.5 -36.5h-96v332h309 v-103h-209v-96q20 10 39.5 14t40.5 4q78 0 117.5 -51t39.5 -131v-37q0 -84 -45 -141t-137 -57q-63 0 -111.5 32.5t-66.5 122.5zM913 74l160 200l27 -4v-120h262q74 0 107.5 24.5t33.5 65.5q0 39 -33 94l-204 348l137 80l227 -397q47 -80 47 -150q0 -98 -83 -156.5 t-210 -58.5h-286v-121h-33z" />
<glyph unicode="&#x2678;" horiz-adv-x="1779" d="M102 213q0 74 50 160l149 268l-94 51l14 27l242 45l86 -229l-17 -31l-96 59l-131 -237q-27 -49 -26 -88q0 -37 27.5 -62.5t92.5 -25.5h406v-150h-436q-123 0 -195 58.5t-72 154.5zM449 897l217 379q45 78 101 111.5t118 33.5q63 0 121.5 -36.5t95.5 -102.5l149 -264 l105 59l12 -28l-90 -230l-248 43l-12 25l100 55l-145 246q-16 29 -40 45t-52 16q-29 0 -55.5 -20.5t-43.5 -50.5l-202 -357zM694 426q0 29 7.5 61.5t25.5 67.5q35 68 75 141.5t75 143.5h114l-112 -232h12q72 0 117 -52t45 -124q0 -49 -15.5 -86t-41 -59.5t-58.5 -33.5 t-68 -11q-78 0 -127 46t-49 138zM801 428q0 -41 19.5 -63.5t51.5 -22.5q29 0 49.5 22.5t20.5 63.5t-20.5 61.5t-49.5 20.5t-50 -20.5t-21 -61.5zM913 74l160 200l27 -4v-120h262q74 0 107.5 24.5t33.5 65.5q0 39 -33 94l-204 348l137 80l227 -397q47 -80 47 -150 q0 -98 -83 -156.5t-210 -58.5h-286v-121h-33z" />
<glyph unicode="&#x2679;" horiz-adv-x="1779" d="M102 213q0 74 50 160l149 268l-94 51l14 27l242 45l86 -229l-17 -31l-96 59l-131 -237q-27 -49 -26 -88q0 -37 27.5 -62.5t92.5 -25.5h406v-150h-436q-123 0 -195 58.5t-72 154.5zM449 897l217 379q45 78 101 111.5t118 33.5q63 0 121.5 -36.5t95.5 -102.5l149 -264 l105 59l12 -28l-90 -230l-248 43l-12 25l100 55l-145 246q-16 29 -40 45t-52 16q-29 0 -55.5 -20.5t-43.5 -50.5l-202 -357zM692 641v188h352v-90l-200 -503h-115l195 489h-125v-84h-107zM913 74l160 200l27 -4v-120h262q74 0 107.5 24.5t33.5 65.5q0 39 -33 94l-204 348 l137 80l227 -397q47 -80 47 -150q0 -98 -83 -156.5t-210 -58.5h-286v-121h-33z" />
<glyph unicode="&#x267a;" horiz-adv-x="1779" d="M102 213q0 74 50 160l149 268l-94 51l14 27l242 45l86 -229l-17 -31l-96 59l-131 -237q-27 -49 -26 -88q0 -37 27.5 -62.5t92.5 -25.5h406v-150h-436q-123 0 -195 58.5t-72 154.5zM449 897l217 379q45 78 101 111.5t118 33.5q63 0 121.5 -36.5t95.5 -102.5l149 -264 l105 59l12 -28l-90 -230l-248 43l-12 25l100 55l-145 246q-16 29 -40 45t-52 16q-29 0 -55.5 -20.5t-43.5 -50.5l-202 -357zM913 74l160 200l27 -4v-120h262q74 0 107.5 24.5t33.5 65.5q0 39 -33 94l-204 348l137 80l227 -397q47 -80 47 -150q0 -98 -83 -156.5t-210 -58.5 h-286v-121h-33z" />
<glyph unicode="&#x267b;" horiz-adv-x="1820" d="M102 606q0 16 11 47l102 176l-84 41h330l160 -276l-95 55l-147 -268q-35 -55 -51.5 -97t-16.5 -69l-180 311q-29 49 -29 80zM326 1032l170 299q27 35 67.5 63.5t93.5 28.5q74 0 130.5 -38.5t86.5 -79.5l-247 -451zM358 172q0 37 13.5 73t36.5 77h510v-322h-388 q-23 0 -52 9t-56 28.5t-45.5 52.5t-18.5 82zM823 1421h371q57 0 76.5 -12t32.5 -35l94 -168l98 56l-168 -295h-342l107 67l-152 273q-25 43 -56.5 70.5t-60.5 43.5zM961 164l176 280v-122h305q33 0 90 15t104 46l-204 -311q-31 -47 -66 -59.5t-63 -12.5h-166v-119zM1202 836 l309 178l177 -303q31 -51 30 -107q0 -49 -22.5 -90t-57 -70.5t-80 -46t-88.5 -16.5h-16z" />
<glyph unicode="&#x267c;" horiz-adv-x="1712" d="M102 721q0 156 59.5 293t162 239.5t239.5 162t293 59.5t293 -59.5t239.5 -162t162 -239.5t59.5 -293t-59.5 -293t-162 -239.5t-239.5 -162t-293 -59.5t-293 59.5t-239.5 162t-162 239.5t-59.5 293zM242 651q0 -27 20 -61l141 -228q0 41 48 123l112 199l70 -39l-119 205 h-246l62 -29l-78 -131q-10 -16 -10 -39zM414 971l227 -133l184 338q-25 31 -66.5 59.5t-96.5 28.5q-41 0 -73 -19.5t-48 -50.5zM438 330q0 -37 13.5 -62.5t34 -41t42 -21.5t37.5 -6h291v239h-381q-37 -55 -37 -108zM784 1262q23 -10 46.5 -31t41.5 -53l113 -205l-80 -51h256 l127 221l-74 -41l-69 125q-10 18 -24.5 26.5t-55.5 8.5h-281zM889 324l131 -213v88h125q18 0 46 10t50 45l154 231q-35 -20 -79 -33.5t-67 -13.5h-229v94zM1069 825l188 -340h13q33 0 65.5 12.5t59 34t43 52t16.5 67.5q0 18 -4 39t-18 41l-132 227z" />
<glyph unicode="&#x267d;" horiz-adv-x="1712" d="M102 723q0 156 59.5 293t162 239.5t239.5 162t293 59.5t293 -59.5t239.5 -162t162 -239.5t59.5 -293t-59.5 -293t-162 -239.5t-239.5 -162t-293 -59.5t-293 59.5t-239.5 162t-162 239.5t-59.5 293zM141 723q0 -147 56.5 -278.5t154 -227.5t227.5 -152.5t277 -56.5 t278.5 56.5t227.5 152.5t152.5 227.5t56.5 278.5t-56.5 277t-152.5 227.5t-227 154t-279 56.5q-147 0 -277 -56.5t-227.5 -154t-154 -227.5t-56.5 -277zM246 651q0 23 10 39l78 131l-62 29h246l119 -205l-70 39l-112 -199q-47 -82 -47 -123l-142 228q-20 35 -20 61zM418 971 l127 223q16 31 48 50.5t73 19.5q55 0 97 -29t66 -59l-184 -338zM442 330q0 53 37 108h381v-239h-291q-16 0 -37.5 6t-42 21.5t-34 41t-13.5 62.5zM788 1262h281q41 0 55.5 -8.5t24.5 -26.5l70 -125l73 41l-127 -221h-256l80 51l-112 205q-18 33 -42 53t-47 31zM893 324 l131 208v-94h229q23 0 67 13.5t79 33.5l-154 -231q-23 -35 -50.5 -45t-45.5 -10h-125v-88zM1073 825l232 133l131 -227q14 -20 18 -40.5t4 -39.5q0 -37 -16.5 -67.5t-43 -52t-59 -34t-65.5 -12.5h-12z" />
<glyph unicode="&#x2693;" horiz-adv-x="1429" d="M131 432l291 -84l-82 -72q45 -43 86 -68.5t80 -39.5t74.5 -20.5t70.5 -8.5v813h-262v99h262v24q-55 16 -90 65.5t-35 108.5q0 78 54.5 131.5t130.5 53.5q37 0 69.5 -14.5t57 -39t39 -58.5t14.5 -73q0 -59 -32 -103t-83 -65v-30h266v-99h-266v-813h4q68 6 143.5 30 t166.5 107l-82 72l290 84l-43 -311l-77 84q-111 -113 -227.5 -162t-235.5 -59q-119 10 -236 59t-225 162l-78 -84z" />
<glyph unicode="&#x26a0;" horiz-adv-x="1810" d="M100 94q0 37 23 76l678 1200q23 39 49.5 56.5t54.5 17.5q27 0 52.5 -17.5t46.5 -52.5l677 -1204q20 -35 21 -76q0 -41 -25.5 -67.5t-83.5 -26.5h-1382q-59 0 -85 27.5t-26 66.5zM231 133q0 -10 12.5 -14t47.5 -4h1222q35 0 47.5 4t12.5 14t-8.5 23.5t-18.5 29.5 l-608 1078q-18 35 -39 34q-10 0 -20.5 -10t-18.5 -24l-604 -1080q-10 -16 -17.5 -28.5t-7.5 -22.5zM803 242q0 8 4 22.5t15.5 28.5t28.5 23.5t44 9.5q35 0 60.5 -23.5t25.5 -64.5q0 -39 -25.5 -61.5t-60.5 -22.5q-12 0 -28.5 4t-30 13t-23.5 26.5t-10 44.5zM805 981 q0 33 24.5 63.5t65.5 30.5q49 0 73.5 -27.5t24.5 -66.5l-59 -575q-4 -16 -17.5 -26.5t-23.5 -10.5q-12 0 -25.5 10t-15.5 27z" />
<glyph unicode="&#x2706;" horiz-adv-x="884" d="M215 713q0 231 42 374.5t98.5 223.5t111.5 109.5t82 31.5v-426q-53 0 -73.5 -78t-20.5 -256q0 -25 4 -74t14 -99t28.5 -89t47.5 -43v-412q-18 0 -49 12.5t-68 43t-76 84t-70.5 135.5t-51 195.5t-19.5 267.5zM575 -25v412h123q16 0 28.5 -9t12.5 -32v-328q0 -16 -9 -29.5 t-32 -13.5h-123zM575 1026v426h123q16 0 28.5 -12.5t12.5 -28.5v-334q0 -51 -41 -51h-123z" />
<glyph unicode="&#x2708;" horiz-adv-x="1822" d="M96 858h154l131 -172h393l-229 735h194l424 -735h506q51 0 78 -29.5t27 -64.5q0 -33 -26 -60.5t-77 -27.5h-512l-426 -719h-196l235 719h-391l-125 -164h-154l78 260z" />
<glyph unicode="&#x2709;" horiz-adv-x="2191" d="M131 0v1374h1927v-1374h-1927zM254 213l469 463l-469 467v-930zM332 1249l753 -760l750 760h-1503zM346 131h1487l-455 459l-293 -295l-280 278zM1458 690l465 -465v934z" />
<glyph unicode="&#x2713;" horiz-adv-x="1564" d="M131 729q47 41 106.5 58.5t100.5 17.5q27 0 63.5 -48t72.5 -125t64.5 -171t39.5 -187q76 133 186 292t236 312.5t259.5 285.5t258.5 214l30 -35q-72 -55 -154.5 -148t-167.5 -210t-169 -249t-160 -260t-138.5 -245.5t-103.5 -205.5q-74 -16 -127 -33t-79 -33 q-14 59 -36 136t-48.5 159t-57.5 162t-61.5 146.5t-60 110.5t-54.5 56z" />
<glyph unicode="&#x2716;" horiz-adv-x="1519" d="M51 352l359 353l-359 352l355 356l354 -356l354 356l354 -356l-356 -352l356 -353l-354 -356l-354 358l-354 -358z" />
<glyph unicode="&#x271a;" horiz-adv-x="1531" d="M104 446v472h437v446h471v-446h446v-472h-436v-446h-473v446h-445z" />
<glyph unicode="&#x272a;" horiz-adv-x="1630" d="M86 709q0 150 57.5 282.5t155.5 231t230.5 156t283.5 57.5q152 0 284 -57.5t230 -156t155.5 -231t57.5 -282.5q0 -152 -57.5 -284t-155.5 -230.5t-230 -154.5t-284 -56t-284 56t-230 154.5t-155.5 230.5t-57.5 284zM207 874l289 -286l-50 -408l349 189l387 -189l-66 418 l281 276l-406 84l-196 363l-187 -367z" />
<glyph unicode="&#x2794;" horiz-adv-x="1490" d="M49 623v176h1063l-487 483h249l570 -571l-574 -576l-245 -2l487 490h-1063z" />
<glyph unicode="&#xe000;" horiz-adv-x="751" d="M100 248v926q0 63 22.5 113t60.5 83t88.5 50.5t105.5 17.5q117 0 196.5 -67.5t79.5 -196.5v-926q0 -66 -22.5 -115t-60.5 -82t-88 -49t-105 -16t-105.5 16t-88.5 49t-60.5 82t-22.5 115zM223 244q0 -66 43 -104t111 -38q66 0 107.5 38t41.5 104v934q0 66 -42 103.5 t-107 37.5q-68 0 -111 -38t-43 -103v-934z" />
<glyph unicode="&#xe001;" horiz-adv-x="751" d="M193 1130v136l208 159h129v-1425h-124v1292z" />
<glyph unicode="&#xe002;" horiz-adv-x="751" d="M100 1104q0 160 70 246t213 88q150 0 214.5 -85t64.5 -225q0 -90 -17.5 -166.5t-58.5 -154.5l-344 -690h409v-117h-549v113l381 764q29 59 38 121.5t9 129.5q0 35 -5 70t-21.5 61.5t-46 43t-78.5 16.5q-72 0 -114 -56.5t-42 -181.5z" />
<glyph unicode="&#xe003;" horiz-adv-x="751" d="M96 291l125 24q-4 -98 30 -155.5t122 -57.5q66 0 109.5 39t43.5 131v228q0 98 -40 140t-117 42h-60v113h64q74 0 113.5 38.5t39.5 133.5v192q0 33 -7 61.5t-24.5 50t-45 35t-68.5 13.5q-84 0 -122 -58.5t-38 -150.5q-6 2 -23.5 4t-39 5t-39 6t-23.5 3q2 68 20.5 124.5 t55.5 97.5t91 64.5t126 23.5q74 0 124 -21.5t81 -59.5t44 -89t13 -111v-166q0 -39 -4 -75.5t-17.5 -68.5t-38 -58.5t-65.5 -45.5v-4q43 -16 67.5 -41.5t38 -59.5t16.5 -75t3 -88l-2 -199q0 -147 -76.5 -218.5t-203.5 -71.5q-141 0 -209 78.5t-64 226.5z" />
<glyph unicode="&#xe004;" horiz-adv-x="751" d="M49 236v114l299 1075h125l-301 -1075h297v398h127v-398h109v-114h-109v-236h-127v236h-420z" />
<glyph unicode="&#xe005;" horiz-adv-x="751" d="M94 297l125 18q0 -96 31 -154.5t127 -58.5q66 0 106.5 39t42.5 133l4 381q0 78 -39.5 113t-107.5 35q-51 0 -90 -22.5t-57 -61.5h-111v706h528v-112h-417v-467h8q31 31 78 47t100 16q117 0 175 -65.5t58 -165.5l-4 -399q-2 -147 -76.5 -220t-199.5 -73q-143 0 -210 82 t-71 229z" />
<glyph unicode="&#xe006;" horiz-adv-x="751" d="M100 248v250q0 82 11.5 137t27.5 98l269 692h127q-41 -106 -83 -216.5t-77 -202t-58.5 -153.5t-27.5 -75l6 -4q23 18 55.5 30.5t65.5 12.5q123 0 180 -73.5t57 -184.5v-311q0 -66 -22.5 -115t-60.5 -82t-88 -49t-105 -16t-105.5 16t-88.5 49t-60.5 82t-22.5 115zM223 240 q0 -66 43 -102t111 -36q66 0 107.5 36t41.5 102v325q0 63 -42 99t-107 36q-41 0 -69.5 -15t-47 -39.5t-28 -55.5t-9.5 -62v-288z" />
<glyph unicode="&#xe007;" horiz-adv-x="751" d="M92 1141v284h567v-104l-374 -1321h-123l370 1313h-331v-172h-109z" />
<glyph unicode="&#xe008;" horiz-adv-x="751" d="M100 248v274q0 78 31 133.5t84 87.5q-53 31 -84 86.5t-31 135.5v209q0 63 22.5 113t60.5 83t88.5 50.5t105.5 17.5t105 -17.5t88 -50.5t60.5 -83t22.5 -113v-209q0 -80 -32.5 -134.5t-83.5 -87.5q51 -33 83.5 -88t32.5 -133v-274q0 -66 -22.5 -115t-60.5 -82t-88 -49 t-105 -16t-105.5 16t-88.5 49t-60.5 82t-22.5 115zM223 240q0 -66 43 -102t111 -36q66 0 107.5 36t41.5 102v309q0 63 -42 102t-107 41q-68 0 -111 -40t-43 -103v-309zM223 940q0 -63 43 -101t111 -38q66 0 107.5 38t41.5 101v242q0 66 -42 102.5t-107 36.5q-68 0 -111 -37 t-43 -102v-242z" />
<glyph unicode="&#xe009;" horiz-adv-x="751" d="M100 866v312q0 66 22.5 114.5t60.5 81.5t88.5 49.5t105.5 16.5q125 0 200.5 -65.5t75.5 -196.5v-250q0 -82 -11 -137.5t-28 -98.5l-270 -692h-129q41 106 83 217t77 202t58.5 153.5t27.5 74.5l-6 4q-20 -18 -53 -30.5t-68 -12.5q-123 0 -178.5 74t-55.5 184zM223 860 q0 -63 43 -100t109 -37q39 0 67.5 15.5t47 40t27.5 56t9 62.5v289q0 66 -42 101.5t-107 35.5q-66 0 -110 -36t-44 -101v-326z" />
<glyph unicode="&#xe00a;" horiz-adv-x="751" d="M10 459v84h140l63 352h-119v86h135l88 455h89l-89 -455h207l86 455h88l-86 -455h123v-86h-139l-66 -352h119v-84h-135l-86 -459h-88l86 459h-207l-84 -459h-88l86 459h-123zM236 543h206l66 352h-207z" />
<glyph unicode="&#xe00b;" horiz-adv-x="751" d="M43 301l125 27q0 -41 9 -79t28.5 -67.5t52.5 -49t82 -26.5v586q-94 43 -150.5 85t-87 87t-40 95.5t-9.5 111.5q0 152 70 251t217 114v172h68v-172q84 -4 139 -33t89 -73t48 -96t14 -101l-125 -31q0 88 -37.5 146.5t-127.5 68.5v-518q2 0 10 -3t10 -5q92 -37 145.5 -77 t81 -88t35.5 -107.5t8 -137.5q0 -84 -15 -154.5t-49 -122t-89.5 -81t-136.5 -35.5v-191h-68v191q-78 4 -134 29.5t-92 66.5t-53.5 96.5t-17.5 120.5zM178 1073q0 -41 6 -73.5t22.5 -60.5t48.5 -54.5t85 -53.5v484q-51 -6 -83 -30.5t-49.5 -58.5t-23.5 -75t-6 -78zM408 106 q55 6 87.5 31t49 62t21.5 83t5 97q0 61 -5 102t-21.5 73t-49 56.5t-87.5 51.5v-556z" />
<glyph unicode="&#xe00c;" horiz-adv-x="751" d="M31 573v80h69v140h-69v79h69v203q0 76 16.5 142.5t53.5 115.5t96.5 77t143.5 28q137 0 218 -71t85 -200l-125 -20q-6 90 -53.5 132t-126.5 42q-49 0 -83 -19.5t-56.5 -51t-33 -74.5t-10.5 -89v-215h322v-79h-322v-140h322v-80h-322v-260q0 -41 10.5 -79.5t33 -67.5 t57 -46.5t82.5 -17.5q78 0 124 42t56 135l129 -19q-12 -135 -94 -204.5t-213 -69.5q-145 0 -227.5 82t-82.5 241v264h-69z" />
<glyph unicode="&#xe00d;" horiz-adv-x="751" d="M-14 -162q8 29 15 51.5t17 47.5q41 -14 82 -15q76 0 114 64.5t54 212.5l64 549h-148v96h162l29 223q8 74 25.5 139.5t49 114.5t83 77.5t124.5 28.5q29 0 58.5 -5t54.5 -15l-27 -111q-20 10 -44.5 14.5t-47.5 4.5q-139 0 -166 -244l-28 -227h178v-96h-191l-63 -545 q-23 -195 -82 -292t-188 -97q-29 0 -63 6t-62 18z" />
<glyph unicode="&#xe00e;" horiz-adv-x="780" d="M94 0v115q59 111 93 219t34 248q0 14 -1 28.5t-3 28.5h-123v106h115q-10 61 -25.5 111.5t-31 95.5t-25.5 88t-10 90q0 139 80 223.5t221 84.5q68 0 125 -19.5t99 -57.5t65.5 -96.5t21.5 -136.5l-127 -30q2 111 -45 167t-137 58q-80 0 -126 -51t-46 -131q0 -43 10 -85 t23.5 -88t28 -100.5t24.5 -122.5h207v-106h-197q0 -8 1 -26.5t1 -26.5q0 -145 -30.5 -254t-82.5 -217h472v-115h-611z" />
<glyph unicode="&#xe00f;" horiz-adv-x="679" d="M68 492q0 53 1 108t5 104.5t9 89.5t15 64q25 66 80 109t148 51v217h67v-217q125 -8 184.5 -81t59.5 -198l-129 -18v2q6 70 -24.5 119t-90.5 61v-803q55 10 86 56.5t29 124.5l129 -23q-6 -248 -244 -270v-224h-67v224q-113 6 -168.5 60t-71.5 124q-6 25 -10 62.5t-5 81.5 t-2 89.5t-1 86.5zM190 455q2 -70 5.5 -145t23.5 -130q16 -33 41 -53.5t66 -26.5v805q-37 -6 -66 -29.5t-45 -64.5q-16 -39 -19 -129t-6 -213v-14z" />
<glyph unicode="&#xe010;" horiz-adv-x="751" d="M49 1425h121l203 -659h6l201 659h125l-252 -761h223v-82h-242v-136h242v-84h-242v-364h-117v364h-233v84h233v136h-233v82h213z" />
<glyph unicode="&#xe024;" horiz-adv-x="751" d="M100 248v510q0 63 22.5 113.5t60.5 83t88.5 50t105.5 17.5t105 -17.5t88 -50t60.5 -83t22.5 -113.5v-510q0 -66 -22.5 -115t-60.5 -82t-88 -49t-105 -16t-105.5 16t-88.5 49t-60.5 82t-22.5 115zM223 240q0 -66 43 -101t111 -35q66 0 107.5 35t41.5 101v526 q0 66 -42 101.5t-107 35.5q-68 0 -111 -36t-43 -101v-526z" />
<glyph unicode="&#xe025;" horiz-adv-x="751" d="M104 0v115h213v757l-213 -159v135l209 160h129v-893h217v-115h-555z" />
<glyph unicode="&#xe026;" horiz-adv-x="751" d="M84 702q0 70 18.5 128.5t55.5 101.5t91 66.5t126 23.5q145 0 214.5 -77t69.5 -206q0 -139 -96 -258q-12 -16 -56 -69.5t-96.5 -112.5t-99.5 -112.5t-63 -71.5h422v-115h-584v111q18 20 51 59t74 86t83 97t79 93t61.5 74t30.5 39q35 43 49 91t14 85q0 72 -37.5 120 t-121.5 48q-72 0 -117 -57.5t-43 -165.5z" />
<glyph unicode="&#xe027;" horiz-adv-x="751" d="M106 -49l121 16q-4 -92 29 -146t117 -54q61 0 104 36.5t43 122.5v213q0 92 -39 131t-110 39h-60v109h64q72 0 108.5 37t36.5 123v180q0 59 -29.5 104t-109.5 45q-78 0 -116 -55t-38 -141l-121 18q4 127 73 210t210 83q72 0 121 -20.5t78.5 -56.5t43 -85t13.5 -104v-135 q0 -37 -3 -75t-14.5 -72t-35 -61.5t-66.5 -47.5q41 -16 64.5 -39t35 -52.5t14.5 -67.5t3 -83v-193q0 -139 -74.5 -206.5t-197.5 -67.5q-141 0 -207 75.5t-58 219.5z" />
<glyph unicode="&#xe028;" horiz-adv-x="751" d="M55 0v106q74 225 147.5 449.5t145.5 450.5h123q-76 -225 -148.5 -448.5t-146.5 -448.5h287v372h125v-372h102v-109h-102v-332h-125v332h-408z" />
<glyph unicode="&#xe029;" horiz-adv-x="751" d="M100 -51l125 16q0 -45 6.5 -82t22.5 -63.5t46 -41t77 -14.5q59 0 102 37t43 123v359q0 72 -38 104.5t-101 32.5q-51 0 -89 -21.5t-54 -56.5h-109v666h514v-109h-403v-438h4q29 29 76 45t98 16q115 0 172 -61.5t57 -157.5v-375q0 -141 -76.5 -206.5t-199.5 -65.5 q-139 0 -204 77t-69 216z" />
<glyph unicode="&#xe02a;" horiz-adv-x="751" d="M104 231v236q0 55 7.5 98t17.5 78q6 20 11 38.5t14 35.5l249 620h125l-237 -606q2 -2 6 -2q20 16 52 26.5t63 10.5q121 0 176 -68.5t55 -173.5v-293q0 -61 -21.5 -107t-58.5 -77t-86 -46t-104 -15q-53 0 -102.5 15t-86.5 46t-58.5 77t-21.5 107zM227 225q0 -59 41 -94 t105 -35q63 0 104 35t41 94v303q0 59 -40 93t-103 34q-39 0 -66.5 -14t-46 -36.5t-27 -51.5t-8.5 -59v-269z" />
<glyph unicode="&#xe02b;" horiz-adv-x="751" d="M100 737v271h553v-101l-364 -1239h-121l358 1231h-319v-162h-107z" />
<glyph unicode="&#xe02c;" horiz-adv-x="751" d="M106 233v259q0 74 29 125t80 81q-51 31 -80 82t-29 127v195q0 61 22 108t58.5 78t86 47.5t102.5 16.5q55 0 104 -16.5t86 -47.5t58.5 -78t21.5 -108v-195q0 -76 -30.5 -127t-79.5 -82q49 -31 79.5 -82t30.5 -124v-259q0 -61 -21.5 -107t-58.5 -78t-86 -47t-104 -15 q-53 0 -102.5 15t-86 47t-58.5 78t-22 107zM229 227q0 -59 41 -94t105 -35q61 0 102 35t41 94v289q0 59 -40 95t-103 38q-63 0 -104.5 -37t-41.5 -96v-289zM229 885q0 -59 41 -95t105 -36q61 0 102 35.5t41 95.5v225q0 59 -41 94t-102 35q-63 0 -104.5 -35t-41.5 -94v-225z " />
<glyph unicode="&#xe02d;" horiz-adv-x="751" d="M104 481v293q0 61 21.5 107.5t58.5 77t86 46t103 15.5q123 0 196.5 -60.5t73.5 -185.5v-237q0 -59 -8 -104.5t-19 -82.5l-22 -61l-250 -619h-125q59 154 118.5 303.5t119.5 302.5h-2q-23 -14 -55.5 -25t-65.5 -11q-119 0 -174.5 68.5t-55.5 172.5zM227 477q0 -59 40 -95 t104 -36q76 0 111.5 52.5t35.5 113.5v270q0 59 -40 93t-105 34q-63 0 -104.5 -33.5t-41.5 -93.5v-305z" />
<glyph unicode="&#xe02e;" horiz-adv-x="751" d="M49 391v70h125l59 299h-108v74h123l78 387h80l-80 -387h188l74 387h82l-78 -387h110v-74h-127l-57 -299h107v-70h-121l-78 -391h-78l76 391h-186l-76 -391h-80l78 391h-111zM252 461h186l60 299h-187z" />
<glyph unicode="&#xe02f;" horiz-adv-x="751" d="M80 258l115 23q0 -70 33.5 -123.5t117.5 -63.5v492q-82 37 -133 72.5t-79 74.5t-37 82t-9 94q0 127 64.5 212t193.5 100v145h64v-145q74 -4 124 -30t80.5 -62.5t44 -79.5t13.5 -86l-115 -27q0 72 -34 122t-113 58v-436q80 -29 130 -62.5t79.5 -74.5t41 -94t11.5 -123 q0 -145 -59.5 -234.5t-202.5 -101.5v-162h-64v162q-139 8 -202.5 84t-63.5 184zM205 911q0 -35 6 -61.5t21.5 -51t43 -46t70.5 -43.5v405q-43 -6 -70.5 -25.5t-43 -48t-21.5 -62.5t-6 -67zM410 94q47 6 76.5 26.5t45 51.5t20.5 70t5 82q0 49 -5 83.5t-20.5 61.5t-44 48.5 t-77.5 43.5v-467z" />
<glyph unicode="&#xe030;" horiz-adv-x="751" d="M66 485v72h63v115h-63v71h63v168q0 66 14.5 122.5t48 98.5t86 66.5t130.5 24.5q123 0 196.5 -60.5t77.5 -171.5l-117 -18q-6 78 -47 112.5t-112 34.5q-86 0 -125 -58t-39 -136v-183h290v-71h-290v-115h290v-72h-290v-217q0 -72 40 -125t124 -53q68 0 109.5 36t49.5 114 l121 -17q-10 -117 -84 -176t-194 -59q-131 0 -205 69.5t-74 206.5v221h-63z" />
<glyph unicode="&#xe031;" horiz-adv-x="751" d="M-4 -229l31 92q41 -14 82 -15q72 0 107.5 60.5t51.5 200.5l64 501h-144v105h158l27 209q8 70 24.5 131t48 107t80.5 74t121 28q29 0 57.5 -5.5t51.5 -15.5l-23 -102q-23 8 -46 11t-44 3q-70 0 -108.5 -55.5t-53.5 -171.5l-26 -213h172v-105h-187l-59 -497 q-23 -184 -81 -275.5t-181 -91.5q-29 0 -61.5 6t-61.5 19z" />
<glyph unicode="&#xe032;" horiz-adv-x="751" d="M88 0v96q53 92 84 187.5t31 212.5q0 10 -1 22t-1 25h-113v90h102q-8 53 -22 96t-27.5 81t-22.5 74t-9 77q0 119 71.5 190.5t200.5 71.5q125 0 201.5 -69t79.5 -198l-115 -24q0 186 -164 190q-72 0 -113 -43t-41 -110q0 -31 8.5 -63t18.5 -66q12 -45 27.5 -95.5 t25.5 -111.5h185v-90h-179q2 -12 2 -23.5v-21.5q0 -125 -26.5 -217.5t-73.5 -184.5h424v-96h-553z" />
<glyph unicode="&#xe033;" horiz-adv-x="751" d="M115 508q0 45 2 91t5 87t8 76t13 55q23 57 72 94t127 43v187h59v-183q117 -6 174.5 -69.5t57.5 -171.5q-31 -4 -60.5 -8t-58.5 -9q0 139 -113 152v-670q111 10 113 148l117 -21q-6 -215 -230 -231v-189h-59v189q-94 8 -143 55t-66 103q-6 20 -10 53t-5 70.5t-2 75.5 t-1 73zM231 473q0 -59 2.5 -115.5t12.5 -89.5t34.5 -55.5t61.5 -28.5v664q-29 -4 -49.5 -19.5t-32.5 -37.5q-4 -8 -7 -17.5t-7 -19.5q-8 -37 -10.5 -108t-4.5 -163v-10z" />
<glyph unicode="&#xe034;" horiz-adv-x="751" d="M78 1212h112q47 -141 92.5 -279t92.5 -280q47 141 92 279.5t90 279.5h113q-57 -164 -113.5 -324.5t-112.5 -324.5h201v-71h-219v-113h219v-72h-219v-307h-104v307h-209v72h209v113h-209v71h190q-55 164 -111.5 325t-113.5 324z" />
<glyph unicode="&#xe059;" horiz-adv-x="1069" d="M70 645v402q0 78 52 124t128 46q72 0 125 -43.5t53 -120.5v-408q0 -78 -53 -122t-125 -44q-82 0 -131 44t-49 122zM166 643q0 -33 21.5 -53.5t62.5 -20.5q39 0 59.5 23.5t20.5 56.5v400q0 31 -20.5 53t-59.5 22q-43 0 -63.5 -24.5t-20.5 -52.5v-404zM203 -29l579 1272h76 l-577 -1272h-78zM647 160v401q0 78 52.5 124t127.5 46q72 0 125.5 -43t53.5 -121v-407q0 -78 -53.5 -122t-125.5 -44q-82 0 -131 44t-49 122zM743 158q0 -33 21.5 -53.5t62.5 -20.5q39 0 59.5 23.5t20.5 56.5v399q0 31 -20.5 53.5t-59.5 22.5q-43 0 -63.5 -24.5t-20.5 -53.5 v-403z" />
<glyph unicode="&#xe06c;" horiz-adv-x="497" d="M29 760q0 39 9 76.5t31.5 68.5t60.5 50.5t97 19.5h111v84q0 41 -18.5 66.5t-75.5 25.5q-35 0 -62.5 -19.5t-38.5 -56.5l-102 31q20 63 72.5 103t134.5 40q96 0 148.5 -41t52.5 -147v-490h-111v45q-29 -31 -65.5 -42t-77.5 -11q-47 0 -79 16.5t-51.5 44t-27.5 63.5t-8 73z M133 764q0 -47 22.5 -74.5t75.5 -27.5q51 0 79 27.5t28 76.5v117h-86q-51 0 -85 -27t-34 -92z" />
<glyph unicode="&#xe06d;" horiz-adv-x="505" d="M47 571v975h109v-364q29 35 66.5 49t66.5 14q66 0 101.5 -23.5t53.5 -62.5q16 -35 20.5 -83t4.5 -101v-107q0 -33 -2 -66.5t-6 -72.5q-6 -53 -25.5 -86t-46.5 -50.5t-55 -23.5t-51 -6q-39 0 -73 12.5t-56 40.5v-45h-107zM154 770q0 -47 26.5 -79t77.5 -32q66 0 86 58 q10 25 13 71t3 105q0 72 -3 121t-13 78.5t-29.5 43t-54.5 13.5q-59 0 -82.5 -36t-23.5 -77v-266z" />
<glyph unicode="&#xe06f;" horiz-adv-x="507" d="M37 786.5v57.5v123q0 47 3 87t13 70q16 53 55 87t119 34q45 0 73 -13t48 -38v352h107v-975h-107v47q-20 -29 -51 -42t-78 -13q-25 0 -53.5 6t-54 23.5t-45 50.5t-25.5 86q-4 29 -4 57.5zM143 842q0 -74 9 -107q20 -76 94 -76q49 0 75.5 32t26.5 79v238q0 27 -4 51 t-15.5 43.5t-30.5 32t-52 12.5q-70 0 -90 -72q-8 -27 -10.5 -68.5t-2.5 -97.5v-67z" />
<glyph unicode="&#xe070;" horiz-adv-x="493" d="M37 842.5v54.5q0 70 5 136.5t17 99.5q23 51 65 82.5t126 31.5q88 0 136 -41t60 -119q2 -10 3.5 -26.5t1.5 -32.5v-154h-308v-45v-44t2 -40q4 -41 26 -65.5t75 -24.5q45 0 68.5 31t27.5 80l107 -21q-6 -90 -59.5 -137t-147.5 -47q-90 0 -135.5 40t-57.5 87q-4 18 -7 43 t-4 53.5t-1 58zM143 961h199v94q0 41 -22.5 68.5t-75.5 27.5q-37 0 -56.5 -16.5t-29.5 -38.5q-14 -35 -15 -113v-22z" />
<glyph unicode="&#xe071;" horiz-adv-x="493" d="M37 842.5v54.5q0 70 5 136.5t17 99.5q23 51 65 82.5t126 31.5q88 0 136 -41t60 -119q2 -10 3.5 -26.5t1.5 -32.5v-154h-308v-45v-44t2 -40q4 -41 26 -65.5t75 -24.5q45 0 68.5 31t27.5 80l107 -21q-6 -90 -59.5 -137t-147.5 -47q-90 0 -135.5 40t-57.5 87q-4 18 -7 43 t-4 53.5t-1 58zM117 1497l94 33l100 -221l-59 -25zM143 961h199v94q0 41 -22.5 68.5t-75.5 27.5q-37 0 -56.5 -16.5t-29.5 -38.5q-14 -35 -15 -113v-22z" />
<glyph unicode="&#xe073;" horiz-adv-x="516" d="M49 571v975h109v-364q43 66 133 65q90 0 132 -52t42 -130v-494h-109v465q0 45 -21.5 77t-74.5 32t-78.5 -35t-25.5 -82v-457h-107z" />
<glyph unicode="&#xe074;" horiz-adv-x="229" d="M57 571v668h111v-668h-111zM57 1374v107h111v-107h-111z" />
<glyph unicode="&#xe077;" horiz-adv-x="268" d="M59 727v819h109v-803q0 -41 11 -63.5t52 -22.5h29v-96h-31q-84 0 -127 35t-43 131z" />
<glyph unicode="&#xe078;" horiz-adv-x="821" d="M61 571v668h107v-53q49 61 129 61q55 0 89 -20.5t54 -55.5q29 35 67 55.5t87 20.5q88 0 128 -52t40 -130v-494h-107v465q0 49 -22.5 79t-69.5 30t-72.5 -34t-25.5 -79v-461h-109v465q0 49 -21.5 79t-68.5 30t-74.5 -36t-27.5 -83v-455h-103z" />
<glyph unicode="&#xe079;" horiz-adv-x="501" d="M37 841.5v57.5q0 68 4 136.5t18 99.5q18 51 66.5 81.5t126.5 30.5q84 0 129 -30.5t63 -77.5q14 -33 17.5 -87.5t3.5 -109.5v-61q0 -37 -2 -74t-6 -76q-6 -47 -27.5 -80t-51.5 -53t-66 -28.5t-68 -8.5q-90 0 -134 38t-61 87q-4 16 -7 41t-4 54.5t-1 60zM143 874 q0 -53 1 -95t10 -64q18 -59 98 -60q39 0 64.5 19.5t33.5 54.5q4 25 7 71t3 97q0 53 -2 112.5t-10 82.5q-10 29 -35.5 45t-60.5 16q-70 0 -92 -53q-10 -23 -13.5 -72t-3.5 -113v-41z" />
<glyph unicode="&#xe07c;" horiz-adv-x="346" d="M66 571v668h106v-72q25 41 62.5 61.5t78.5 20.5h15.5t17.5 -2v-121q-16 4 -28.5 6.5t-18.5 2.5q-59 0 -93 -34t-34 -106v-424h-106z" />
<glyph unicode="&#xe07d;" horiz-adv-x="468" d="M33 754l106 16q-2 -53 22.5 -83t71.5 -30q53 0 75 26t22 73q0 45 -20.5 69.5t-86.5 46.5q-109 39 -145.5 86.5t-36.5 108.5q0 78 49 130t152 52q100 0 148 -51t48 -141l-110 -17q4 57 -21.5 84t-66.5 27q-57 0 -75 -26.5t-18 -57.5t25 -54.5t100 -49.5q51 -18 83 -39 t49.5 -46.5t23.5 -55t6 -64.5q0 -86 -45 -141.5t-153 -55.5q-98 0 -149.5 50.5t-53.5 142.5z" />
<glyph unicode="&#xe07e;" horiz-adv-x="317" d="M10 1153v86h78v166h107v-166h96v-86h-96v-405q0 -43 14 -61.5t49 -18.5h35v-97h-57q-84 0 -118 45.5t-34 110.5v426h-74z" />
<glyph unicode="&#xe0d8;" horiz-adv-x="436" d="M90 680q0 248 74 465t184 383l62 -29q-47 -86 -85 -184t-65 -202.5t-41 -212t-14 -212.5q0 -225 55 -439t148 -384l-56 -33q-53 80 -101 175t-84 202.5t-56.5 225.5t-20.5 245z" />
<glyph unicode="&#xe0d9;" horiz-adv-x="436" d="M90 1499q6 2 30.5 13.5t29.5 15.5q111 -166 185.5 -383t74.5 -467q0 -125 -20.5 -243t-56.5 -225.5t-84.5 -202.5t-103.5 -175q-2 2 -9 6t-16 10.5t-17.5 10.5t-10.5 6q92 170 147.5 384t55.5 439q0 104 -14.5 211t-41 211t-64.5 203.5t-85 185.5z" />
<glyph unicode="&#xe0da;" horiz-adv-x="684" d="M100 592v113h506v-113h-506z" />
<glyph unicode="&#xe0db;" horiz-adv-x="417" d="M129 -152v1641h256v-84h-145v-1475h145v-82h-256z" />
<glyph unicode="&#xe0dc;" horiz-adv-x="417" d="M61 -70h146v1475h-146v84h254v-1643h-254v84z" />
<glyph unicode="&#xe0dd;" horiz-adv-x="454" d="M49 629v78q39 8 64.5 32.5t41 61.5t20.5 82t5 92v295q0 104 53.5 161.5t145.5 57.5h41v-84h-35q-31 0 -50.5 -17.5t-29.5 -45t-14 -60.5t-4 -63v-267q0 -66 -12.5 -115t-31 -83.5t-40 -55t-39.5 -26.5v-6q20 -6 41.5 -27t40 -54.5t30 -80.5t11.5 -109v-282q0 -31 4 -63 t14 -59.5t29.5 -45t50.5 -17.5h35v-84h-41q-86 0 -142.5 52.5t-56.5 162.5v285q0 121 -24.5 194.5t-106.5 90.5z" />
<glyph unicode="&#xe0de;" horiz-adv-x="454" d="M51 -72h33q31 0 51.5 14.5t30.5 38t14 52t4 59.5v303q0 123 40 189.5t81 81.5v6q-39 14 -80 82.5t-41 197.5v267q0 31 -4 63.5t-14 60t-30.5 45t-51.5 17.5h-33v84h70q86 0 128 -68.5t42 -167.5v-278q0 -47 6 -92t20.5 -82t39 -61.5t63.5 -32.5v-78q-82 -16 -105.5 -90 t-23.5 -195v-285q0 -100 -49 -157.5t-127 -57.5h-64v84z" />
<glyph unicode="&#xe0df;" horiz-adv-x="1024" d="M41 543v121h942v-121h-942z" />
<glyph unicode="&#xe0e0;" horiz-adv-x="2048" d="M41 543v121h1966v-121h-1966z" />
<glyph unicode="&#xe0e1;" horiz-adv-x="438" d="M152 944v133h133v-133h-133zM154 -348l12 1077h104l13 -1077h-129z" />
<glyph unicode="&#xe0e2;" horiz-adv-x="731" d="M96 -29q0 51 4 89t13.5 69t23 58.5t31.5 62.5q35 55 63.5 98t49 82t32 75t13.5 77v145h120v-168q0 -43 -12 -84t-35 -82q-47 -82 -79.5 -133t-53 -93t-31 -84t-10.5 -103q0 -49 9.5 -90.5t31 -71t57 -46t89.5 -16.5q72 0 125 49.5t57 159.5l125 -14q-4 -156 -91 -234.5 t-216 -78.5q-172 0 -244 91t-72 242zM322 940v133h129v-133h-129z" />
<glyph unicode="&#xe0e3;" horiz-adv-x="790" d="M84 537l219 381h125l-217 -381l217 -381h-125zM375 537l219 381h125l-215 -381l215 -381h-125z" />
<glyph unicode="&#xe0e4;" horiz-adv-x="790" d="M86 156l215 381l-215 381h123l219 -381l-219 -381h-123zM377 156l217 381l-217 381h125l219 -381l-219 -381h-125z" />
<glyph unicode="&#xe0fb;" horiz-adv-x="851" d="M82 260q0 96 49 172t135 143l-39 54q-35 47 -52 100t-17 107q0 98 64 164.5t175 66.5q66 0 132.5 -20.5t111.5 -92.5l-98 -69q-16 39 -52 55t-81 16q-72 0 -104 -39.5t-32 -80.5q0 -33 20.5 -80t55.5 -101q18 -27 55 -78t78 -108t78 -108.5t55 -77.5q20 41 28.5 85 t12.5 89h115q-6 -66 -25.5 -140.5t-54.5 -128.5l137 -188h-149l-70 94q-66 -63 -133 -82.5t-133 -19.5q-53 0 -100 18.5t-83 52t-57.5 84t-21.5 113.5zM199 264q0 -68 43 -115t129 -47q47 0 95 20.5t83 55.5l-217 305q-72 -59 -102.5 -112.5t-30.5 -106.5z" />
<glyph unicode="&#xe0fc;" horiz-adv-x="399" d="M139 -2v127h121v-127h-121zM139 1059h121l-8 -809h-102z" />
<glyph unicode="&#xe0fd;" horiz-adv-x="665" d="M66 813q10 125 81.5 188.5t188.5 63.5q152 0 217 -68.5t68 -177.5q2 -63 -9.5 -106t-33.5 -84q-18 -35 -45 -68t-52.5 -65.5t-43 -64.5t-17.5 -64v-119h-117v135q0 35 11.5 69.5t27.5 57.5q41 51 70.5 89t49 69.5t29 63.5t9.5 73q0 63 -41 104t-123 41 q-61 0 -107.5 -35.5t-48.5 -113.5zM299 0v125h121v-125h-121z" />
<glyph unicode="&#xe0fe;" horiz-adv-x="710" d="M18 0l281 1057h111l286 -1057h-121l-65 250h-311l-64 -250h-117zM225 360h258l-69 283l-60 234h-4l-55 -234z" />
<glyph unicode="&#xe0ff;" horiz-adv-x="759" d="M100 0v1059h267q166 0 233.5 -73t67.5 -208q0 -78 -25 -132t-86 -89q70 -27 96.5 -90.5t26.5 -149.5q0 -170 -83 -243.5t-243 -73.5h-254zM217 113h145q63 0 102.5 16t61 46t28.5 68t7 81q0 86 -43 133t-149 47h-152v-391zM217 612h143q106 0 148.5 43t42.5 125 q0 80 -46 123t-157 43h-131v-334z" />
<glyph unicode="&#xe100;" horiz-adv-x="708" d="M90 293v446q0 57 13.5 115.5t46 106t87 77t134.5 29.5q139 0 211.5 -68.5t76.5 -201.5l-120 -19q-4 90 -43 134t-125 44q-51 0 -83 -21.5t-50.5 -52t-24.5 -67.5t-6 -67v-459q0 -27 6 -60.5t23.5 -62.5t49 -49.5t83.5 -20.5q86 0 123.5 49.5t39.5 135.5l123 -19 q-6 -127 -75.5 -201.5t-210.5 -74.5q-78 0 -131.5 25.5t-86 67.5t-47 97t-14.5 117z" />
<glyph unicode="&#xe101;" horiz-adv-x="761" d="M98 0v1057h285q113 0 178.5 -34t93.5 -118q12 -35 16.5 -87t4.5 -118v-301q0 -98 -4 -152t-21 -93q-37 -94 -112.5 -124t-171.5 -30h-269zM215 111h154q100 0 143 38.5t43 122.5v510q0 72 -39 117t-147 45h-154v-833z" />
<glyph unicode="&#xe102;" horiz-adv-x="667" d="M100 0v1059h533v-115h-416v-348h363v-113h-363v-370h416v-113h-533z" />
<glyph unicode="&#xe103;" horiz-adv-x="665" d="M100 0v1059h533v-115h-416v-348h365v-113h-365v-483h-117z" />
<glyph unicode="&#xe104;" horiz-adv-x="745" d="M92 293v440q0 59 13.5 119.5t46 109t87 78t138.5 29.5q135 0 206.5 -69.5t75.5 -198.5l-120 -25q2 90 -43 135t-125 45q-53 0 -85 -22.5t-49.5 -55t-23.5 -71.5t-6 -72v-446q0 -29 7 -62.5t25.5 -62.5t49 -48.5t80.5 -19.5q47 0 80.5 19.5t56 50.5t33 66.5t10.5 68.5v164 h-150v110h271v-256q0 -86 -22.5 -149.5t-61.5 -104t-92.5 -60t-116.5 -19.5q-78 0 -132.5 24.5t-88 65.5t-49 97t-15.5 120z" />
<glyph unicode="&#xe105;" horiz-adv-x="774" d="M100 0v1059h117v-463h338v463h121v-1059h-121v485h-338v-485h-117z" />
<glyph unicode="&#xe106;" horiz-adv-x="337" d="M109 0v1059h120v-1059h-120z" />
<glyph unicode="&#xe107;" horiz-adv-x="612" d="M-14 82l73 90q23 -23 65 -47.5t81 -24.5q74 0 118 35t44 119v805h118v-797q0 -272 -286 -272q-68 0 -117 21.5t-96 70.5z" />
<glyph unicode="&#xe108;" horiz-adv-x="747" d="M100 0v1057h119v-561l346 561h129l-262 -426l305 -631h-127l-252 524l-141 -225v-299h-117z" />
<glyph unicode="&#xe109;" horiz-adv-x="620" d="M100 0v1059h117v-946h387v-113h-504z" />
<glyph unicode="&#xe10a;" horiz-adv-x="1011" d="M100 0v1057h115l170 -398l119 -288l133 321l154 365h118v-1057h-118v786h-3l-135 -323l-121 -281h-57l-123 277l-135 323v-782h-117z" />
<glyph unicode="&#xe10b;" horiz-adv-x="813" d="M96 0v1057h107q66 -127 127 -253t125 -253l143 -295v801h117v-1057h-107l-250 506q-37 72 -72.5 142.5t-70.5 142.5h-2v-791h-117z" />
<glyph unicode="&#xe10c;" horiz-adv-x="753" d="M90 307v406q0 70 14.5 134t48 113.5t89 79t135.5 29.5q82 0 138 -26.5t90 -73.5t48.5 -111.5t14.5 -138.5v-381q0 -160 -73 -256t-220 -96q-74 0 -127 24.5t-88 67.5t-52.5 101.5t-17.5 127.5zM207 307q0 -39 9 -76.5t28.5 -67.5t51.5 -48.5t79 -18.5q49 0 83 18.5 t53 51.5t27.5 75t8.5 89v405q0 43 -8.5 83t-27.5 71t-52 49t-82 18q-53 0 -86 -24.5t-51.5 -62.5t-25.5 -82t-7 -82v-398z" />
<glyph unicode="&#xe10d;" horiz-adv-x="718" d="M100 0v1059h250q96 0 158.5 -22.5t99.5 -63.5t51.5 -98.5t14.5 -129.5q0 -70 -14.5 -128t-51.5 -101t-101.5 -66.5t-162.5 -23.5h-127v-426h-117zM217 541h121q68 0 109.5 14t66.5 41t33 63.5t8 83.5q0 43 -8 79t-31.5 63.5t-64.5 43t-109 15.5h-125v-403z" />
<glyph unicode="&#xe10e;" horiz-adv-x="751" d="M90 303v416q0 72 14.5 135.5t48 111.5t89 75.5t135.5 27.5q82 0 138 -24.5t90 -69.5t48.5 -109.5t14.5 -142.5v-389q0 -125 -41 -207l106 -78l-49 -84l-115 82q-74 -61 -194 -61q-147 0 -216 85t-69 232zM207 301q0 -39 9 -76t28.5 -65.5t51.5 -46t79 -17.5q59 0 94 27 l-109 80l52 80l112 -86q23 57 23 127v417q0 41 -8.5 80t-27.5 69t-52 48t-82 18q-53 0 -86 -23.5t-51.5 -60t-25.5 -80.5t-7 -83v-408z" />
<glyph unicode="&#xe10f;" horiz-adv-x="747" d="M100 0v1057h248q166 0 238.5 -77t72.5 -220q0 -92 -33.5 -165t-129.5 -112l196 -483h-127q-45 117 -91 231.5t-95 231.5q-10 0 -21.5 -1t-29 -1h-44h-69.5v-461h-115zM215 573h133q98 0 144.5 47.5t46.5 139.5q0 43 -9.5 76.5t-33 57.5t-64.5 37t-104 13h-113v-371z" />
<glyph unicode="&#xe110;" horiz-adv-x="712" d="M63 246l119 22q0 -31 9.5 -60.5t29 -52t53 -37t82.5 -14.5q59 0 93 15.5t51.5 40t22.5 58.5t5 71q0 33 -5 60.5t-23.5 52t-55 46t-98.5 44.5q-90 33 -144.5 65.5t-83 67t-36.5 74.5t-8 87q0 125 71.5 203t221.5 78q82 0 136 -23.5t87 -59.5t46 -80t13 -87l-119 -26 q0 70 -36.5 114.5t-133.5 44.5q-53 0 -85.5 -15t-51 -38t-24.5 -52.5t-6 -56.5q0 -31 6 -55t28.5 -45.5t64.5 -42t116 -45.5q82 -29 130 -62.5t72.5 -71.5t31.5 -82t7 -93q0 -68 -14 -124t-49 -95t-91.5 -60.5t-138.5 -21.5q-78 0 -132 19.5t-90 54t-53.5 82t-17.5 100.5z " />
<glyph unicode="&#xe111;" horiz-adv-x="589" d="M8 946v113h572v-113h-226v-946h-118v946h-228z" />
<glyph unicode="&#xe112;" horiz-adv-x="751" d="M88 295v762h117v-756q0 -31 7 -66.5t26.5 -66.5t52.5 -50.5t82 -19.5q51 0 85 20.5t53 51.5t26.5 66.5t7.5 66.5v754h121v-738q0 -70 -16.5 -131t-51.5 -106t-90 -70.5t-133 -25.5q-80 0 -135.5 25.5t-89 67.5t-48 98t-14.5 118z" />
<glyph unicode="&#xe113;" horiz-adv-x="712" d="M33 1059h121l131 -561l71 -318l68 314l131 565h125l-262 -1061h-127z" />
<glyph unicode="&#xe114;" horiz-adv-x="1071" d="M37 1057h121l84 -479q14 -86 30.5 -176.5t30.5 -176.5h2q6 33 14.5 70t17.5 83t21.5 105.5t28.5 137.5q23 111 47.5 218t48.5 218h105q25 -111 49.5 -218.5t46.5 -215.5l86 -402h2l55 357q23 119 41.5 238.5t40.5 240.5h123q-53 -268 -101 -530.5t-102 -526.5h-114 l-115 510q-16 78 -33.5 154.5t-36.5 154.5h-2q-18 -104 -43 -209q-6 -41 -24.5 -124t-39 -175t-40 -177t-29.5 -134h-112q-51 264 -102.5 526t-100.5 531z" />
<glyph unicode="&#xe115;" horiz-adv-x="636" d="M8 -2l248 547l-236 512h123l174 -408l175 408h122l-241 -512l258 -547h-127l-187 438l-186 -438h-123z" />
<glyph unicode="&#xe116;" horiz-adv-x="671" d="M31 1057h125q6 -14 17 -49t24.5 -75t26 -75t18.5 -49l90 -260h6l80 223q8 20 21.5 59t28.5 83t29.5 83t20.5 60h119l-246 -635v-424h-115v424z" />
<glyph unicode="&#xe117;" horiz-adv-x="577" d="M33 0v102l383 844h-357v113h484v-105l-381 -841h370v-113h-499z" />
<glyph unicode="&#xe119;" horiz-adv-x="1052" d="M88 254v520q0 57 14.5 110.5t47 93.5t88 64.5t137.5 24.5q31 0 58.5 -2t51.5 -6h521v-115h-414v-348h362v-113h-362v-370h414v-113h-519q-51 -10 -112 -10q-147 0 -217 73.5t-70 190.5zM207 254q0 -29 9 -55.5t28.5 -49t51.5 -36t77 -13.5q66 0 102 19v819 q-35 16 -100 16q-51 0 -84 -18t-51.5 -46t-25.5 -60.5t-7 -59.5v-516z" />
<glyph unicode="&#xe11b;" horiz-adv-x="671" d="M31 1057h125q6 -14 17 -49t24.5 -75t26 -75t18.5 -49l90 -260h6l80 223q8 20 21.5 59t28.5 83t29.5 83t20.5 60h119l-246 -635v-424h-115v424zM127 1202v131h115v-131h-115zM436 1202v131h113v-131h-113z" />
<glyph unicode="&#xe11c;" horiz-adv-x="710" d="M18 0l281 1057h111l286 -1057h-121l-65 250h-311l-64 -250h-117zM178 1450l119 43l139 -326l-69 -28zM225 360h258l-69 283l-60 234h-4l-55 -234z" />
<glyph unicode="&#xe11d;" horiz-adv-x="710" d="M18 0l281 1057h111l286 -1057h-121l-65 250h-311l-64 -250h-117zM225 360h258l-69 283l-60 234h-4l-55 -234zM297 1167l137 326l121 -43l-188 -311z" />
<glyph unicode="&#xe11e;" horiz-adv-x="710" d="M18 0l281 1057h111l286 -1057h-121l-65 250h-311l-64 -250h-117zM72 1176l252 268h79l240 -264l-55 -50l-230 195l-231 -195zM225 360h258l-69 283l-60 234h-4l-55 -234z" />
<glyph unicode="&#xe11f;" horiz-adv-x="710" d="M18 0l281 1057h111l286 -1057h-121l-65 250h-311l-64 -250h-117zM66 1225q25 51 68.5 93t94.5 42q31 0 57.5 -12.5t54.5 -26.5t56.5 -26.5t61.5 -12.5q51 0 104 80l66 -43q-33 -68 -79 -103.5t-89 -35.5q-31 0 -60.5 12t-58.5 25.5t-55.5 25.5t-50.5 12q-53 0 -103 -71z M225 360h258l-69 283l-60 234h-4l-55 -234z" />
<glyph unicode="&#xe120;" horiz-adv-x="710" d="M18 0l281 1057h111l286 -1057h-121l-65 250h-311l-64 -250h-117zM141 1202v131h115v-131h-115zM225 360h258l-69 283l-60 234h-4l-55 -234zM451 1202v131h112v-131h-112z" />
<glyph unicode="&#xe121;" horiz-adv-x="710" d="M18 0l281 1057h111l286 -1057h-121l-65 250h-311l-64 -250h-117zM178 1294q0 74 51.5 125t124.5 51q72 0 123 -51t51 -125t-51 -125t-123 -51q-74 0 -125 51.5t-51 124.5zM225 360h258l-69 283l-60 234h-4l-55 -234zM250 1292q0 -43 30.5 -73.5t73.5 -30.5q41 0 72 30.5 t31 73.5t-31 74t-72 31q-43 0 -73.5 -31t-30.5 -74z" />
<glyph unicode="&#xe122;" horiz-adv-x="1148" d="M6 0l500 1059h594v-115h-414v-348h365v-113h-365v-368h414v-115h-535v274h-305q-6 -10 -24.5 -50t-40 -86t-40 -86t-24.5 -52h-125zM309 389h256v553z" />
<glyph unicode="&#xe123;" horiz-adv-x="708" d="M90 293v446q0 57 13.5 115.5t46 106t87 77t134.5 29.5q139 0 211.5 -68.5t76.5 -201.5l-120 -19q-4 90 -43 134t-125 44q-51 0 -83 -21.5t-50.5 -52t-24.5 -67.5t-6 -67v-459q0 -27 6 -60.5t23.5 -62.5t49 -49.5t83.5 -20.5q86 0 123.5 49.5t39.5 135.5l123 -19 q-6 -121 -69.5 -193.5t-188.5 -80.5l-26 -109q47 -4 77.5 -19.5t49 -37t25.5 -47t7 -45.5q0 -25 -9 -51.5t-28.5 -48t-50 -36t-75.5 -14.5q-23 0 -69 5t-89 28l22 61q35 -16 65 -20t54 -4q37 0 62.5 19.5t25.5 58.5q0 41 -27.5 64.5t-88.5 21.5l-33 26l41 148 q-68 6 -114 32.5t-73.5 68.5t-40 94.5t-12.5 109.5z" />
<glyph unicode="&#xe124;" horiz-adv-x="667" d="M100 0v1059h533v-115h-416v-348h363v-113h-363v-370h416v-113h-533zM172 1450l119 43l139 -326l-70 -28z" />
<glyph unicode="&#xe125;" horiz-adv-x="667" d="M100 0v1059h533v-115h-416v-348h363v-113h-363v-370h416v-113h-533zM289 1167l137 326l121 -43l-189 -311z" />
<glyph unicode="&#xe126;" horiz-adv-x="667" d="M78 1176l252 268h80l239 -264l-55 -50l-229 195l-232 -195zM100 0v1059h533v-115h-416v-348h363v-113h-363v-370h416v-113h-533z" />
<glyph unicode="&#xe127;" horiz-adv-x="667" d="M100 0v1059h533v-115h-416v-348h363v-113h-363v-370h416v-113h-533zM160 1202v131h114v-131h-114zM469 1202v131h113v-131h-113z" />
<glyph unicode="&#xe128;" horiz-adv-x="337" d="M-14 1450l118 43l140 -326l-70 -28zM109 0v1059h120v-1059h-120z" />
<glyph unicode="&#xe129;" horiz-adv-x="337" d="M109 0v1059h120v-1059h-120zM133 1167l137 326l121 -43l-188 -311z" />
<glyph unicode="&#xe12a;" horiz-adv-x="337" d="M-109 1176l252 268h80l240 -264l-55 -50l-230 195l-231 -195zM109 0v1059h120v-1059h-120z" />
<glyph unicode="&#xe12b;" horiz-adv-x="337" d="M-41 1202v131h115v-131h-115zM109 0v1059h120v-1059h-120zM268 1202v131h113v-131h-113z" />
<glyph unicode="&#xe12c;" horiz-adv-x="761" d="M14 506v96h84v455h285q113 0 178.5 -34t93.5 -118q12 -35 16.5 -87t4.5 -118v-301q0 -98 -4 -152t-21 -93q-37 -94 -112.5 -124t-171.5 -30h-269v506h-84zM215 111h154q100 0 143 38.5t43 122.5v510q0 72 -39 117t-147 45h-154v-342h160v-96h-160v-395z" />
<glyph unicode="&#xe12d;" horiz-adv-x="813" d="M96 0v1057h107q66 -127 127 -253t125 -253l143 -295v801h117v-1057h-107l-250 506q-37 72 -72.5 142.5t-70.5 142.5h-2v-791h-117zM125 1225q25 51 69 93t95 42q31 0 57.5 -12.5t54 -26.5t56 -26.5t61.5 -12.5q51 0 105 80l65 -43q-33 -68 -79 -103.5t-89 -35.5 q-31 0 -60.5 12t-58 25.5t-55.5 25.5t-51 12q-53 0 -102 -71z" />
<glyph unicode="&#xe12e;" horiz-adv-x="753" d="M90 307v406q0 70 14.5 134t48 113.5t89 79t135.5 29.5q82 0 138 -26.5t90 -73.5t48.5 -111.5t14.5 -138.5v-381q0 -160 -73 -256t-220 -96q-74 0 -127 24.5t-88 67.5t-52.5 101.5t-17.5 127.5zM195 1450l118 43l140 -326l-70 -28zM207 307q0 -39 9 -76.5t28.5 -67.5 t51.5 -48.5t79 -18.5q49 0 83 18.5t53 51.5t27.5 75t8.5 89v405q0 43 -8.5 83t-27.5 71t-52 49t-82 18q-53 0 -86 -24.5t-51.5 -62.5t-25.5 -82t-7 -82v-398z" />
<glyph unicode="&#xe12f;" horiz-adv-x="753" d="M90 307v406q0 70 14.5 134t48 113.5t89 79t135.5 29.5q82 0 138 -26.5t90 -73.5t48.5 -111.5t14.5 -138.5v-381q0 -160 -73 -256t-220 -96q-74 0 -127 24.5t-88 67.5t-52.5 101.5t-17.5 127.5zM207 307q0 -39 9 -76.5t28.5 -67.5t51.5 -48.5t79 -18.5q49 0 83 18.5 t53 51.5t27.5 75t8.5 89v405q0 43 -8.5 83t-27.5 71t-52 49t-82 18q-53 0 -86 -24.5t-51.5 -62.5t-25.5 -82t-7 -82v-398zM322 1167l137 326l121 -43l-189 -311z" />
<glyph unicode="&#xe130;" horiz-adv-x="753" d="M90 307v406q0 70 14.5 134t48 113.5t89 79t135.5 29.5q82 0 138 -26.5t90 -73.5t48.5 -111.5t14.5 -138.5v-381q0 -160 -73 -256t-220 -96q-74 0 -127 24.5t-88 67.5t-52.5 101.5t-17.5 127.5zM96 1176l252 268h80l240 -264l-56 -50l-229 195l-231 -195zM207 307 q0 -39 9 -76.5t28.5 -67.5t51.5 -48.5t79 -18.5q49 0 83 18.5t53 51.5t27.5 75t8.5 89v405q0 43 -8.5 83t-27.5 71t-52 49t-82 18q-53 0 -86 -24.5t-51.5 -62.5t-25.5 -82t-7 -82v-398z" />
<glyph unicode="&#xe131;" horiz-adv-x="753" d="M90 307v406q0 70 14.5 134t48 113.5t89 79t135.5 29.5q82 0 138 -26.5t90 -73.5t48.5 -111.5t14.5 -138.5v-381q0 -160 -73 -256t-220 -96q-74 0 -127 24.5t-88 67.5t-52.5 101.5t-17.5 127.5zM98 1225q25 51 69 93t95 42q31 0 57.5 -12.5t54 -26.5t56.5 -26.5t62 -12.5 q51 0 104 80l66 -43q-33 -68 -79 -103.5t-89 -35.5q-31 0 -61 12t-58.5 25.5t-55 25.5t-51.5 12q-53 0 -102 -71zM207 307q0 -39 9 -76.5t28.5 -67.5t51.5 -48.5t79 -18.5q49 0 83 18.5t53 51.5t27.5 75t8.5 89v405q0 43 -8.5 83t-27.5 71t-52 49t-82 18q-53 0 -86 -24.5 t-51.5 -62.5t-25.5 -82t-7 -82v-398z" />
<glyph unicode="&#xe132;" horiz-adv-x="753" d="M90 307v406q0 70 14.5 134t48 113.5t89 79t135.5 29.5q82 0 138 -26.5t90 -73.5t48.5 -111.5t14.5 -138.5v-381q0 -160 -73 -256t-220 -96q-74 0 -127 24.5t-88 67.5t-52.5 101.5t-17.5 127.5zM166 1202v131h115v-131h-115zM207 307q0 -39 9 -76.5t28.5 -67.5t51.5 -48.5 t79 -18.5q49 0 83 18.5t53 51.5t27.5 75t8.5 89v405q0 43 -8.5 83t-27.5 71t-52 49t-82 18q-53 0 -86 -24.5t-51.5 -62.5t-25.5 -82t-7 -82v-398zM475 1202v131h113v-131h-113z" />
<glyph unicode="&#xe133;" horiz-adv-x="753" d="M90 10l47 99q-47 82 -47 198v406q0 70 14.5 134t48 113.5t89 79t135.5 29.5q66 0 113 -17.5t81 -45.5l35 71l62 -33l-50 -98q27 -47 38.5 -104.5t11.5 -122.5v-381q0 -160 -73 -256t-220 -96q-127 0 -197 69l-39 -78zM207 282.5q0 -12.5 2 -24.5l303 627q-18 33 -51 52 t-84 19q-53 0 -86 -24.5t-51.5 -62.5t-25.5 -82t-7 -82v-398v-24.5zM236 174q20 -35 54 -56.5t85 -21.5q49 0 83 18.5t53 51.5t27.5 75t8.5 89v405q0 14 -1 28.5t-3 29.5z" />
<glyph unicode="&#xe134;" horiz-adv-x="751" d="M88 295v762h117v-756q0 -31 7 -66.5t26.5 -66.5t52.5 -50.5t82 -19.5q51 0 85 20.5t53 51.5t26.5 66.5t7.5 66.5v754h121v-738q0 -70 -16.5 -131t-51.5 -106t-90 -70.5t-133 -25.5q-80 0 -135.5 25.5t-89 67.5t-48 98t-14.5 118zM193 1450l118 43l140 -326l-70 -28z" />
<glyph unicode="&#xe135;" horiz-adv-x="751" d="M88 295v762h117v-756q0 -31 7 -66.5t26.5 -66.5t52.5 -50.5t82 -19.5q51 0 85 20.5t53 51.5t26.5 66.5t7.5 66.5v754h121v-738q0 -70 -16.5 -131t-51.5 -106t-90 -70.5t-133 -25.5q-80 0 -135.5 25.5t-89 67.5t-48 98t-14.5 118zM315 1167l138 326l120 -43l-188 -311z " />
<glyph unicode="&#xe136;" horiz-adv-x="751" d="M88 295v762h117v-756q0 -31 7 -66.5t26.5 -66.5t52.5 -50.5t82 -19.5q51 0 85 20.5t53 51.5t26.5 66.5t7.5 66.5v754h121v-738q0 -70 -16.5 -131t-51.5 -106t-90 -70.5t-133 -25.5q-80 0 -135.5 25.5t-89 67.5t-48 98t-14.5 118zM94 1176l252 268h80l240 -264l-56 -50 l-229 195l-231 -195z" />
<glyph unicode="&#xe137;" horiz-adv-x="751" d="M88 295v762h117v-756q0 -31 7 -66.5t26.5 -66.5t52.5 -50.5t82 -19.5q51 0 85 20.5t53 51.5t26.5 66.5t7.5 66.5v754h121v-738q0 -70 -16.5 -131t-51.5 -106t-90 -70.5t-133 -25.5q-80 0 -135.5 25.5t-89 67.5t-48 98t-14.5 118zM170 1202v131h115v-131h-115zM479 1202 v131h113v-131h-113z" />
<glyph unicode="&#xe138;" horiz-adv-x="671" d="M31 1057h125q6 -14 17 -49t24.5 -75t26 -75t18.5 -49l90 -260h6l80 223q8 20 21.5 59t28.5 83t29.5 83t20.5 60h119l-246 -635v-424h-115v424zM266 1167l137 326l121 -43l-188 -311z" />
<glyph unicode="&#xe139;" horiz-adv-x="718" d="M100 0v1059h113v-203h139q96 0 158.5 -22.5t98.5 -63.5t50.5 -99.5t14.5 -129.5q0 -68 -14.5 -126.5t-51.5 -100.5t-100.5 -66.5t-161.5 -24.5h-129v-223h-117zM217 338h123q68 0 110 15.5t65.5 42t31.5 63.5t8 82q0 41 -8 77.5t-30.5 64.5t-63.5 43t-109 15h-127v-403z " />
<glyph unicode="&#xe152;" horiz-adv-x="337" d="M109 0v1059h120v-1059h-120zM117 1219v131h112v-131h-112z" />
<glyph unicode="&#xe177;" horiz-adv-x="335" d="M106 942v117h125v-117h-125zM109 -2l10 809h100l10 -809h-120z" />
<glyph unicode="&#xe178;" horiz-adv-x="563" d="M43 244q0 98 36 175t75 136q27 41 44 75t17 62v115h113v-129q0 -37 -9.5 -62.5t-25.5 -54.5q-10 -20 -20.5 -36.5t-20.5 -32.5q-25 -37 -43.5 -67t-28.5 -57.5t-15 -55t-5 -62.5q0 -68 27.5 -111t105.5 -43q49 0 87 37t40 119l115 -14q-4 -123 -72 -185.5t-170 -62.5 q-139 0 -194.5 69.5t-55.5 184.5zM215 942v117h115v-117h-115z" />
<glyph unicode="&#xe23f;" horiz-adv-x="751" d="M100 248v926q0 63 22.5 113t60.5 83t88.5 50.5t105.5 17.5q117 0 196.5 -67.5t79.5 -196.5v-926q0 -66 -22.5 -115t-60.5 -82t-88 -49t-105 -16t-105.5 16t-88.5 49t-60.5 82t-22.5 115zM223 240q2 -63 44 -100.5t110 -37.5q66 0 107.5 38t41.5 104v751zM223 412l303 759 v7q0 66 -42 103.5t-107 37.5q-68 0 -111 -38t-43 -103v-766z" />
<glyph unicode="&#xe26a;" horiz-adv-x="856" d="M106 0v1425h125v-647h76q51 0 86 18.5t58.5 52.5t38 79t20.5 98q4 31 8 61.5t8 65.5q16 141 77 212t175 71h39v-111h-35q-43 0 -69.5 -17.5t-42 -47t-23.5 -66.5t-14 -74l-17 -137q-10 -94 -45.5 -166t-111.5 -100q72 -23 111.5 -95.5t52.5 -164.5l22 -156 q6 -41 17.5 -78t29 -65.5t43 -46t62.5 -17.5h37v-106h-48q-213 0 -251 284l-19 138q-6 47 -19.5 92t-38 79.5t-61.5 56t-90 21.5h-76v-659h-125zM289 1538l276 223l82 -96l-311 -186z" />
<glyph unicode="&#xe26b;" horiz-adv-x="1357" d="M35 -14v106h37q37 0 62.5 17.5t42 46t26.5 66.5t16 79q6 39 10 77t11 79q14 92 53 164.5t110 93.5v2q-76 29 -110.5 98.5t-46.5 165.5l-17 139q-4 37 -12 74t-23.5 66.5t-41 47t-64.5 17.5h-37v111h39q115 0 173.5 -72t72.5 -213q8 -72 17 -139.5t31 -119.5t61.5 -83 t109.5 -31h63v647h125v-647h43q16 0 28.5 1t25.5 3q78 10 116.5 78t49.5 168q4 31 8 61.5t8 63.5q16 141 72.5 212t171.5 71h39v-109h-35q-43 0 -68.5 -20.5t-41 -53t-23 -71.5t-13.5 -78q-2 -31 -6 -60.5t-8 -60.5q-10 -96 -45 -167t-113 -99q72 -23 113 -94.5t53 -165.5 q4 -39 9.5 -77t11.5 -79t16 -79t27.5 -66.5t42 -46t61.5 -17.5h37v-104h-47q-111 0 -169 69.5t-79 214.5l-16 136q-6 47 -19.5 92t-37 80.5t-60.5 57t-92 21.5h-60v-659h-125v659h-63q-27 0 -41 -6q-41 -6 -69.5 -28.5t-49 -56t-32 -75.5t-17.5 -87l-18 -136 q-20 -145 -77.5 -214.5t-168.5 -69.5h-47z" />
<glyph unicode="&#xe26c;" horiz-adv-x="856" d="M106 0v1425h125v-647h76q51 0 86 18.5t58.5 52.5t38 79t20.5 98q4 31 8 61.5t8 65.5q16 141 77 212t175 71h39v-111h-35q-43 0 -69.5 -17.5t-42 -47t-23.5 -66.5t-14 -74l-17 -137q-10 -94 -45.5 -166t-111.5 -100q72 -23 111.5 -95.5t52.5 -164.5l22 -156 q6 -41 17.5 -78t29 -65.5t43 -46t62.5 -17.5h37v-106h-48q-213 0 -251 284l-19 138q-6 47 -19.5 92t-38 79.5t-61.5 56t-90 21.5h-76v-659h-125z" />
<glyph unicode="&#xe26d;" horiz-adv-x="851" d="M12 -14v104h17q78 0 115.5 58.5t48.5 144.5q6 39 10 78t10 78q10 61 30.5 118.5t69.5 94.5q-113 47 -165 132t-52 224q0 193 85 300t274 107h288v-1425h-122v639h-103q-51 0 -85 -15.5t-55.5 -46t-33.5 -74.5t-20 -102l-19 -131q-20 -143 -80.5 -213.5t-171.5 -70.5h-41z M221 1016q0 -268 244 -268h156v561h-146q-72 0 -120 -21.5t-77.5 -60.5t-43 -93.5t-13.5 -117.5z" />
<glyph unicode="&#xe26e;" horiz-adv-x="1134" d="M27 -12v98h36q53 0 76 37t33 96l21 113q12 61 35.5 109t76.5 67q-53 25 -75.5 74t-32.5 112l-17 99q-4 25 -10 48t-16.5 41.5t-29 30t-48.5 11.5h-35v98h41q100 0 148.5 -52t64.5 -157l14 -88q6 -33 16.5 -61.5t28 -50t44 -35t67.5 -13.5h39v449h125v-449h39 q41 0 68.5 13.5t45 35t26.5 50t15 61.5l17 88q16 104 64 156.5t149 52.5h41v-98h-35q-31 0 -50.5 -11.5t-29.5 -30t-16.5 -42t-10.5 -47.5l-16 -99q-10 -63 -32.5 -112.5t-76.5 -73.5q53 -18 78 -66.5t35 -109.5l23 -113q10 -59 32.5 -96t75.5 -37h37v-98h-51 q-94 0 -141.5 48t-69.5 163l-17 94q-6 31 -16 60.5t-27.5 53t-46 38t-71.5 14.5h-39v-459h-125v459h-39q-43 0 -70.5 -14.5t-46 -38t-29 -53t-16.5 -60.5l-16 -94q-20 -115 -67.5 -163t-143.5 -48h-49z" />
<glyph unicode="&#xe26f;" horiz-adv-x="739" d="M76 -4v1018h127v-449h67q41 0 69 13.5t45 35t26.5 50t15.5 61.5l14 88q16 104 65.5 156.5t147.5 52.5h43v-98h-34q-31 0 -50.5 -11.5t-30 -30t-16.5 -42t-10 -47.5l-16 -99q-12 -63 -35 -112.5t-76 -73.5q55 -18 78.5 -66.5t36.5 -109.5l20 -113q10 -59 34 -96t77 -37h37 v-98h-49q-96 0 -144.5 48t-68.5 163l-17 94q-6 31 -16 60.5t-28.5 53t-46.5 38t-71 14.5h-67v-463h-127z" />
<glyph unicode="&#xe270;" horiz-adv-x="747" d="M8 -12v98h37q55 0 75.5 37t33.5 96l20 103q10 43 24.5 81.5t41.5 59.5q-92 37 -128 100.5t-36 149.5q0 135 74.5 215t242.5 80h266v-1008h-127v436h-116q-33 0 -54.5 -13t-37 -34.5t-24.5 -49.5t-15 -56l-17 -84q-23 -115 -68.5 -163t-142.5 -48h-49zM205 707 q0 -80 50 -121t146 -41h131v350h-122q-115 0 -160 -52t-45 -136z" />
<glyph unicode="&#xe271;" horiz-adv-x="739" d="M76 -4v1018h127v-449h67q41 0 69 13.5t45 35t26.5 50t15.5 61.5l14 88q16 104 65.5 156.5t147.5 52.5h43v-98h-34q-31 0 -50.5 -11.5t-30 -30t-16.5 -42t-10 -47.5l-16 -99q-12 -63 -35 -112.5t-76 -73.5q55 -18 78.5 -66.5t36.5 -109.5l20 -113q10 -59 34 -96t77 -37h37 v-98h-49q-96 0 -144.5 48t-68.5 163l-17 94q-6 31 -16 60.5t-28.5 53t-46.5 38t-71 14.5h-67v-463h-127zM289 1167l137 326l121 -43l-189 -311z" />
<glyph unicode="&#xe2d0;" horiz-adv-x="489" d="M55 737v514q0 82 55.5 130.5t135.5 48.5q76 0 132 -45.5t56 -127.5v-520q0 -82 -56 -128t-132 -46q-86 0 -138.5 46t-52.5 128zM158 741q0 -35 22.5 -56t65.5 -21q41 0 62.5 24.5t21.5 59.5v505q0 33 -21.5 56.5t-62.5 23.5q-47 0 -67.5 -25.5t-20.5 -58.5v-508z" />
<glyph unicode="&#xe2d1;" horiz-adv-x="409" d="M80 1221v106l139 96h98v-852h-100v746z" />
<glyph unicode="&#xe2d2;" horiz-adv-x="489" d="M53 1217q-2 98 47.5 155.5t149.5 57.5q102 0 148 -51.5t46 -137.5q0 -102 -55 -197l-213 -376h260v-97h-379v80l244 439q20 37 28.5 73.5t8.5 75.5t-18.5 69.5t-71.5 30.5q-41 0 -65.5 -33.5t-24.5 -105.5z" />
<glyph unicode="&#xe2d3;" horiz-adv-x="489" d="M51 1233q4 84 53.5 139t149.5 55q53 0 88 -14t55.5 -38.5t28.5 -57.5t8 -70v-71q0 -47 -9 -87t-56 -73q45 -23 55 -59.5t10 -90.5v-116q0 -88 -47 -137.5t-139 -49.5q-104 0 -149.5 54.5t-41.5 148.5l105 12q-4 -57 16.5 -91t71.5 -34q41 0 62.5 27t21.5 70v120 q0 53 -23.5 76t-70.5 23h-52v88h54q45 0 68.5 20.5t23.5 67.5v102q0 35 -17.5 63.5t-66.5 28.5q-51 0 -72.5 -34.5t-21.5 -87.5z" />
<glyph unicode="&#xe2d4;" horiz-adv-x="489" d="M25 707v84l192 632h105l-193 -624h166v231h100v-231h72v-92h-72v-136h-100v136h-270z" />
<glyph unicode="&#xe2d5;" horiz-adv-x="489" d="M59 760l105 12q-4 -53 14.5 -89t71.5 -36q43 0 63.5 25.5t20.5 70.5v220q0 41 -22.5 59t-63.5 18q-63 0 -90 -49h-84v434h360v-86h-270v-247h2q23 18 50.5 25t55.5 7q78 0 120 -41t42 -106v-232q0 -88 -47 -136t-139 -48q-100 0 -147.5 53.5t-41.5 145.5z" />
<glyph unicode="&#xe2d6;" horiz-adv-x="489" d="M55 735v137q0 51 8.5 84t18.5 58q12 31 36.5 87t51.5 117.5t50.5 118t35.5 86.5h106q-25 -55 -49 -115.5t-45.5 -112.5t-37 -91t-17.5 -47q14 4 28.5 8t30.5 4q84 0 123 -45t39 -117v-178q0 -82 -56 -124t-132 -42q-96 0 -143.5 45t-47.5 127zM158 723q0 -35 23.5 -52.5 t64.5 -17.5q37 0 60.5 17.5t23.5 52.5v188q0 33 -23.5 51.5t-58.5 18.5q-47 0 -68.5 -27.5t-21.5 -62.5v-168z" />
<glyph unicode="&#xe2d7;" horiz-adv-x="444" d="M31 1237v186h387v-71l-246 -781h-98l237 766h-186v-100h-94z" />
<glyph unicode="&#xe2d8;" horiz-adv-x="489" d="M55 735v152q0 84 66 129q-66 43 -66 129v115q0 82 57.5 126t133.5 44t132 -44.5t56 -125.5v-115q0 -45 -17.5 -76t-45.5 -53q29 -23 46 -52.5t17 -76.5v-152q0 -82 -56 -127t-132 -45q-96 0 -143.5 45t-47.5 127zM158 729q0 -35 23.5 -55.5t64.5 -20.5q37 0 61.5 21.5 t24.5 56.5v164q0 33 -23.5 56.5t-62.5 23.5q-41 0 -64.5 -23.5t-23.5 -56.5v-166zM158 1133q0 -31 23.5 -51.5t64.5 -20.5q37 0 61.5 20.5t24.5 51.5v133q0 33 -24.5 54t-61.5 21q-41 0 -64.5 -21.5t-23.5 -53.5v-133z" />
<glyph unicode="&#xe2d9;" horiz-adv-x="489" d="M55 1090v180q0 80 57.5 121t133.5 41t132 -41t56 -121v-148q0 -49 -8 -81.5t-18 -59.5q-14 -29 -39 -85t-50.5 -118.5t-49 -119t-36.5 -87.5h-106q20 49 46 108.5t47.5 113t36.5 94.5t19 51q-27 -10 -59 -10q-84 0 -123 45t-39 117zM158 1083q0 -31 21.5 -49t64.5 -18 q47 0 66.5 28.5t19.5 61.5v158q0 35 -21.5 57t-62.5 22q-43 0 -65.5 -22.5t-22.5 -56.5v-181z" />
<glyph unicode="&#xe2da;" horiz-adv-x="282" d="M49 944q0 147 50.5 276.5t123.5 229.5l56 -27q-61 -104 -97.5 -228t-36.5 -245q0 -131 36 -257t95 -226l-53 -35q-72 98 -123 229.5t-51 282.5z" />
<glyph unicode="&#xe2db;" horiz-adv-x="282" d="M47 467q59 100 96 226t37 257q0 121 -35.5 245t-97.5 228l53 27q76 -102 125 -230t49 -276q0 -152 -51 -282t-125 -228z" />
<glyph unicode="&#xe2dc;" horiz-adv-x="219" d="M43 449l31 122h-21v115h113v-106l-53 -131h-70z" />
<glyph unicode="&#xe2dd;" horiz-adv-x="219" d="M53 571v111h113v-111h-113z" />
<glyph unicode="&#xe2f4;" horiz-adv-x="489" d="M57 166v514q0 82 55.5 130t135.5 48q76 0 132 -45t56 -127v-520q0 -82 -56 -128t-132 -46q-86 0 -138.5 46t-52.5 128zM160 170q0 -35 22.5 -56.5t65.5 -21.5q41 0 62.5 24.5t21.5 59.5v506q0 33 -21.5 56.5t-62.5 23.5q-47 0 -67.5 -25.5t-20.5 -58.5v-508z" />
<glyph unicode="&#xe2f5;" horiz-adv-x="409" d="M80 649v107l139 96h98v-852h-100v745z" />
<glyph unicode="&#xe2f6;" horiz-adv-x="489" d="M53 645q-2 98 47.5 155.5t149.5 57.5q102 0 148 -51t46 -137q0 -102 -55 -197l-213 -377h260v-96h-379v80l244 438q20 37 28.5 74t8.5 76t-18.5 69.5t-71.5 30.5q-41 0 -65.5 -34t-24.5 -105z" />
<glyph unicode="&#xe2f7;" horiz-adv-x="489" d="M51 662q4 84 53.5 139t149.5 55q53 0 88 -14.5t55.5 -39t28.5 -57t8 -69.5v-72q0 -47 -9 -87t-56 -73q45 -23 55 -59.5t10 -89.5v-117q0 -88 -47 -137t-139 -49q-104 0 -149.5 54t-41.5 149l105 12q-4 -57 16.5 -91t71.5 -34q41 0 62.5 26.5t21.5 69.5v121 q0 53 -23.5 75.5t-70.5 22.5h-52v88h54q45 0 68.5 20.5t23.5 67.5v103q0 35 -17.5 63.5t-66.5 28.5q-51 0 -72.5 -35t-21.5 -88z" />
<glyph unicode="&#xe2f8;" horiz-adv-x="489" d="M25 135v84l192 633h105l-193 -625h166v232h100v-232h72v-92h-72v-135h-100v135h-270z" />
<glyph unicode="&#xe2f9;" horiz-adv-x="489" d="M59 188l105 13q-4 -53 14.5 -89t71.5 -36q43 0 63.5 25.5t20.5 70.5v219q0 41 -22.5 59.5t-63.5 18.5q-63 0 -90 -49h-84v434h360v-86h-270v-248h2q23 18 50.5 25.5t55.5 7.5q78 0 120 -41t42 -106v-232q0 -88 -47 -136t-139 -48q-100 0 -147.5 53t-41.5 145z" />
<glyph unicode="&#xe2fa;" horiz-adv-x="489" d="M55 164v137q0 51 8.5 84t18.5 57q12 31 36.5 87.5t51.5 118t50.5 117.5t35.5 87h106q-25 -55 -49 -115.5t-45.5 -113t-37 -91t-17.5 -47.5q14 4 28.5 8.5t30.5 4.5q84 0 123 -45t39 -117v-178q0 -82 -56 -124t-132 -42q-96 0 -143.5 45t-47.5 127zM158 152 q0 -35 23.5 -52.5t64.5 -17.5q37 0 60.5 17.5t23.5 52.5v184q0 33 -23.5 53.5t-58.5 20.5q-47 0 -68.5 -30t-21.5 -65v-163z" />
<glyph unicode="&#xe2fb;" horiz-adv-x="444" d="M31 666v186h387v-72l-246 -780h-98l237 766h-186v-100h-94z" />
<glyph unicode="&#xe2fc;" horiz-adv-x="489" d="M55 164v151q0 84 66 129q-66 43 -66 129v115q0 82 57.5 126t133.5 44t132 -44t56 -126v-115q0 -45 -17.5 -75.5t-45.5 -53.5q29 -23 46 -52.5t17 -76.5v-151q0 -82 -56 -127t-132 -45q-96 0 -143.5 45t-47.5 127zM158 158q0 -35 23.5 -55.5t64.5 -20.5q37 0 61.5 21.5 t24.5 56.5v164q0 33 -23.5 56t-62.5 23q-41 0 -64.5 -23.5t-23.5 -55.5v-166zM158 561q0 -31 23.5 -51.5t64.5 -20.5q37 0 61.5 20.5t24.5 51.5v133q0 33 -24.5 54.5t-61.5 21.5q-41 0 -64.5 -21.5t-23.5 -54.5v-133z" />
<glyph unicode="&#xe2fd;" horiz-adv-x="489" d="M55 518v180q0 80 57.5 121t133.5 41t132 -41t56 -121v-147q0 -49 -8 -82t-18 -59q-14 -29 -39 -85.5t-50.5 -119t-49 -118.5t-36.5 -87h-106q20 49 46 108.5t47.5 112.5t36.5 94t19 52q-27 -10 -59 -11q-84 0 -123 45t-39 117zM158 512q0 -31 21.5 -49.5t64.5 -18.5 q47 0 66.5 29t19.5 62v157q0 35 -21.5 57.5t-62.5 22.5q-43 0 -65.5 -22.5t-22.5 -57.5v-180z" />
<glyph unicode="&#xe2fe;" horiz-adv-x="282" d="M49 373q0 147 50.5 275t123.5 231l56 -27q-61 -104 -97.5 -228t-36.5 -247q0 -129 36 -255t95 -226l-53 -35q-72 98 -123 229t-51 283z" />
<glyph unicode="&#xe2ff;" horiz-adv-x="282" d="M47 -104q59 100 96 226t37 255q0 123 -35.5 247t-97.5 228l53 27q76 -102 125 -230.5t49 -275.5q0 -152 -51 -282t-125 -230z" />
<glyph unicode="&#xe300;" horiz-adv-x="219" d="M43 -123l31 123h-21v113h113v-105l-53 -131h-70z" />
<glyph unicode="&#xe301;" horiz-adv-x="219" d="M53 0v109h113v-109h-113z" />
<glyph unicode="&#xe360;" horiz-adv-x="546" d="M8 571l211 934h107l217 -934h-109l-51 224h-223l-49 -224h-103zM180 891h185l-95 428z" />
<glyph unicode="&#xe361;" horiz-adv-x="583" d="M68 571v934h215q133 0 185 -63t52 -180q0 -72 -21.5 -120t-74.5 -77q55 -27 80.5 -84t25.5 -127q0 -158 -65.5 -220.5t-194.5 -62.5h-202zM174 668h102q47 0 77 15t46.5 41t21.5 60.5t5 73.5q0 76 -33 118t-110 42h-109v-350zM174 1110h102q76 0 108 39t32 111 q0 74 -35 112.5t-117 38.5h-90v-301z" />
<glyph unicode="&#xe362;" horiz-adv-x="585" d="M68 571v934h227q90 0 143.5 -30.5t73.5 -102.5q10 -35 13 -83t3 -109v-252q0 -72 -3 -126t-13 -91q-29 -78 -90.5 -109t-138.5 -31h-215zM174 668h111q133 0 133 145v451q0 66 -28 106.5t-105 40.5h-111v-743z" />
<glyph unicode="&#xe363;" horiz-adv-x="509" d="M68 571v934h426v-96h-320v-311h281v-97h-281v-333h320v-97h-426z" />
<glyph unicode="&#xe364;" horiz-adv-x="593" d="M68 571v934h106v-409h244v409h108v-934h-108v433h-244v-433h-106z" />
<glyph unicode="&#xe365;" horiz-adv-x="258" d="M74 571v934h110v-934h-110z" />
<glyph unicode="&#xe366;" horiz-adv-x="477" d="M66 571v934h108v-837h301v-97h-409z" />
<glyph unicode="&#xe367;" horiz-adv-x="774" d="M68 571v934h104l121 -295l94 -229l94 229l121 295h107v-934h-107v662l-78 -191l-106 -251h-66q-6 16 -20.5 49.5t-30.5 72.5t-30.5 74t-20.5 51l-78 179v-646h-104z" />
<glyph unicode="&#xe368;" horiz-adv-x="624" d="M63 571v934h99q16 -39 39.5 -93t51.5 -115.5t58.5 -128t59.5 -130.5q29 -59 50 -109t32 -73v649h106v-934h-100q-53 119 -103.5 237t-103.5 236q-23 47 -44.5 95.5t-43.5 95.5q2 -166 3 -332t1 -332h-105z" />
<glyph unicode="&#xe369;" horiz-adv-x="579" d="M57 788v480q0 51 12.5 96t39 78t70.5 52t110 19q131 0 181 -65.5t50 -175.5v-463q0 -121 -57 -184.5t-174 -63.5t-174.5 60.5t-57.5 166.5zM166 786q0 -49 28.5 -89t94.5 -40t94.5 42t28.5 102v481q0 53 -27 95t-96 42q-37 0 -60.5 -15t-38 -39t-19.5 -51.5t-5 -51.5 v-476z" />
<glyph unicode="&#xe36a;" horiz-adv-x="573" d="M68 571v934h208q135 0 191.5 -66.5t56.5 -195.5q0 -80 -30.5 -144.5t-102.5 -94.5l150 -433h-111l-139 410h-119v-410h-104zM172 1073h94q86 0 119 43t33 127q0 76 -32 122t-124 46h-90v-338z" />
<glyph unicode="&#xe36b;" horiz-adv-x="546" d="M39 784l108 21q0 -57 28 -100t97 -43q43 0 69 13t38 36.5t16 53.5t4 62q0 74 -28.5 111t-108.5 72q-129 57 -173 117.5t-44 140.5q0 109 57.5 177t178.5 68q66 0 109.5 -19t69 -51t37 -70t11.5 -75l-107 -24q0 66 -28.5 104.5t-96.5 38.5q-39 0 -62.5 -14t-36.5 -35.5 t-17 -47.5t-4 -50q0 -55 31.5 -93t129.5 -77q61 -25 99.5 -51.5t59 -58.5t26.5 -71t6 -90q0 -61 -11.5 -110t-39 -84t-72.5 -54.5t-113 -19.5q-123 0 -177 64.5t-56 158.5z" />
<glyph unicode="&#xe36c;" horiz-adv-x="452" d="M-4 1411v94h457v-94h-172v-840h-111v840h-174z" />
<glyph unicode="&#xe374;" horiz-adv-x="509" d="M68 571v934h426v-96h-320v-311h281v-97h-281v-333h320v-97h-426zM74 1692l69 73l197 -151l-41 -47z" />
<glyph unicode="&#xe378;" horiz-adv-x="1275" d="M63 588v250l574 567l573 -571l2 -248l-487 489v-1065h-178v1063z" />
<glyph unicode="&#xe379;" horiz-adv-x="1275" d="M63 580v247l484 -485v1063h178v-1063l487 487l-2 -245l-573 -574z" />
<glyph unicode="&#xe37a;" horiz-adv-x="1490" d="M49 711l567 571h250l-485 -483h1063v-176h-1065l489 -490l-247 2z" />
<glyph unicode="&#xe37b;" horiz-adv-x="1193" d="M86 313l766 762h-702l182 182h821v-829l-174 -180v704l-764 -768z" />
<glyph unicode="&#xe37c;" horiz-adv-x="1193" d="M86 428v829h823l181 -182h-703l768 -762l-129 -129l-766 768v-704z" />
<glyph unicode="&#xe37d;" horiz-adv-x="1839" d="M166 715l719 719v-1438zM944 715l717 719v-1438z" />
<glyph unicode="&#xe37e;" horiz-adv-x="1839" d="M248 -2v1438l717 -719zM1026 -2v1438l717 -719z" />
<glyph unicode="&#xe37f;" horiz-adv-x="2048" d="M162 -6v1438h143v-1438h-143zM336 713l715 719v-1438zM1110 713l713 719v-1438z" />
<glyph unicode="&#xe380;" horiz-adv-x="2048" d="M197 -8v1438l718 -719zM971 -8v1438l719 -719zM1718 -8v1438h142v-1438h-142z" />
<glyph unicode="&#xe381;" horiz-adv-x="1519" d="M326 0v1438h284v-1438h-284zM901 0v1438h287v-1438h-287z" />
<glyph unicode="&#xe382;" horiz-adv-x="1036" d="M137 469v477h248l463 455v-1387l-463 455h-248z" />
<glyph unicode="&#xe383;" horiz-adv-x="1460" d="M147 469v473h248q117 115 230.5 226.5t228.5 228.5v-1383l-459 455h-248zM1069 279q0 25 21 43v-3q74 66 109.5 168.5t35.5 219.5q0 119 -35 226t-106 175q-20 18 -21 43q0 23 17.5 41t39.5 18q12 0 26.5 -8t25.5 -24q86 -90 128 -213t42 -254q0 -137 -45.5 -262.5 t-145.5 -217.5q-18 -14 -35 -14q-23 0 -40 19.5t-17 42.5z" />
<glyph unicode="&#xe384;" horiz-adv-x="1863" d="M129 469v473h246q117 115 230.5 228.5t230.5 228.5v-1385q-117 115 -230.5 227.5t-230.5 227.5h-246zM1022 252q0 23 25 45v-2q82 66 120.5 176.5t38.5 230.5q0 125 -39 237t-120 183q-20 18 -21 43q0 23 19.5 44.5t46.5 21.5q23 0 41 -19q100 -96 152 -231t52 -281 q0 -143 -50 -273t-159 -224q-23 -16 -43 -17q-27 0 -45 20.5t-18 45.5zM1288 29q0 29 27 51q119 94 185.5 259t66.5 357q0 186 -64.5 355.5t-189.5 281.5q-20 18 -21 47q0 23 18.5 40.5t45.5 17.5t43 -19q147 -143 221 -332.5t74 -394.5t-75 -389t-224 -311q-20 -20 -43 -21 q-25 0 -44.5 17.5t-19.5 40.5z" />
<glyph unicode="&#xe385;" horiz-adv-x="2193" d="M123 469v473h248l458 457v-1385l-458 455h-248zM1077 219q0 27 25 43q84 66 125 184.5t41 253.5q0 133 -41 256t-125 193q-18 18 -19 43q0 27 20.5 47.5t47.5 20.5q19 -1 35 -17q104 -104 156.5 -250.5t52.5 -300.5q0 -150 -53.5 -290t-163.5 -236q-10 -6 -17.5 -10 t-17.5 -4q-27 0 -46.5 21.5t-19.5 45.5zM1325 -18q0 25 25 47q63 51 112 123.5t83 159.5t50.5 183.5t16.5 196.5v33q-2 94 -19.5 188.5t-51.5 180.5t-82 160.5t-111 131.5q-10 8 -14.5 19.5t-4.5 24.5q0 25 18.5 44t45.5 19q23 0 41 -18q20 -20 39 -45q135 -147 200.5 -344 t65.5 -402q0 -219 -78 -418.5t-238 -335.5q-16 -14 -37 -14q-25 0 -43 20.5t-18 45.5zM1579 -240q0 27 16 43q88 70 156 167.5t113 213t67.5 243.5t22.5 259q0 129 -22.5 258t-67.5 249t-113 226.5t-156 188.5q-16 20 -16 41q0 27 19.5 46t43.5 19q23 0 41 -18l25 -27 q92 -94 161.5 -210t118 -245t72 -266t23.5 -272q0 -141 -25.5 -278.5t-76 -263.5t-127 -235.5t-179.5 -195.5q-16 -14 -35 -14q-25 0 -43 21.5t-18 49.5z" />
<glyph unicode="&#xe386;" horiz-adv-x="1712" d="M109 739q0 82 19 158t50 140.5t70 114.5t76 83q39 33 73 35q35 0 58 -21q25 -20 28 -53v-6q0 -27 -20 -47q-27 -25 -59.5 -59.5t-62.5 -83t-50.5 -111t-20.5 -144.5q0 -127 46 -238.5t126 -194.5t188.5 -131t233.5 -48q123 0 230.5 48t186.5 131t125 194.5t46 238.5 q0 63 -12.5 116.5t-31.5 99t-44 81t-47 64.5l-6 8q-16 23 -26.5 42.5t-10.5 39.5q0 31 22.5 50.5t51.5 19.5q14 0 30 -6q37 -16 79 -61.5t77 -114t58.5 -157t23.5 -188.5q0 -156 -59.5 -293t-162 -238.5t-238.5 -160.5t-292 -59q-158 0 -295 59t-239.5 160.5t-161.5 239 t-59 292.5zM793 817v664q0 33 21 55.5t56 22.5q31 0 53.5 -23t22.5 -55v-664q0 -33 -22.5 -55.5t-53.5 -22.5q-35 0 -56 21.5t-21 56.5z" />
<glyph unicode="&#xe387;" horiz-adv-x="1642" d="M111 893q20 63 58 113.5t81 85t84 53t72 22.5q23 -12 56.5 -41.5t66 -69.5t58 -91.5t31.5 -106.5q-29 -43 -73.5 -71.5t-81.5 -45.5q6 -18 54 -79.5t118 -132t147.5 -132t143.5 -78.5q16 39 43.5 83t72.5 75q43 -2 93.5 -23.5t94.5 -53t78 -66.5t46 -66 q-4 -29 -23.5 -71.5t-53.5 -85.5t-83 -82t-113 -60q-129 35 -248.5 105.5t-225 159t-193.5 185.5t-152.5 188t-104.5 166t-46 120zM705 662q0 45 30.5 75.5t73.5 30.5q45 0 74.5 -30.5t29.5 -75.5q0 -43 -29.5 -74t-74.5 -31q-43 0 -73.5 30.5t-30.5 74.5zM887 969l47 49 l237 -236l-49 -47zM1130 1092q0 43 31 73.5t76 30.5q43 0 73.5 -30.5t30.5 -73.5q0 -45 -30.5 -76t-73.5 -31q-45 0 -76 31t-31 76zM1305 1403l47 47l235 -236l-45 -47z" />
<glyph unicode="&#xe388;" horiz-adv-x="2119" d="M51 518l506 504l107 -107l-400 -397l412 -412l-107 -106zM547 516q0 57 39 96t96 39t97 -39t40 -96t-40 -96t-97 -39t-96 39t-39 96zM922 516q0 57 39.5 96t97.5 39q57 0 96 -39t39 -96t-39 -96t-96 -39t-97 39t-40 96zM1296 516q0 57 41 96t95 39q55 0 96 -39t41 -96 t-41 -96t-96 -39q-53 0 -94.5 39t-41.5 96zM1444 106l414 412l-402 397l107 107l505 -504l-518 -518z" />
<glyph unicode="&#xe389;" horiz-adv-x="1748" d="M135 721q0 154 58.5 287t159 233t234.5 157.5t283 57.5q150 0 284 -57.5t234.5 -157.5t159 -233t58.5 -287t-58.5 -287t-159 -233.5t-234.5 -157.5t-284 -57t-283.5 57t-234 157.5t-159 233.5t-58.5 287zM254 721q0 -127 49 -238.5t133 -196.5t195.5 -134.5t238.5 -49.5 q125 0 237 49.5t195.5 133.5t132 196.5t48.5 239.5q0 125 -48.5 237.5t-131 196.5t-194.5 133t-239 49t-238.5 -49t-195.5 -133t-133 -196.5t-49 -237.5zM719 1100q0 59 45 100t106 41q59 0 105.5 -41t46.5 -100t-46 -100.5t-106 -41.5q-61 0 -106 41t-45 101zM748 172v702 h245v-702h-245z" />
<glyph unicode="&#xe38a;" horiz-adv-x="1781" d="M100 223l80 29l-26 84l180 63l-23 86l181 64l-27 86l182 63l-22 76l-95 -33l-26 84l-94 -32l-25 84l-78 -27l-28 94l1392 496l27 -94l-86 -31l26 -88l-94 -33l25 -84l-94 -33l24 -86l-94 -33l25 -84l-95 -34l27 -86l-94 -33l24 -84l-94 -35l25 -84l-97 -33l27 -86 l-94 -34l24 -84l-94 -33l27 -86l-88 -31l-94 315l-95 -34l27 -86l-180 -62l24 -86l-182 -63l27 -86l-191 -68l-22 86l-80 -29z" />
<glyph unicode="&#xe38b;" horiz-adv-x="1781" d="M100 1346l27 94l1393 -496l-29 -94l-78 27l-24 -84l-95 32l-26 -84l-94 33l-23 -76l182 -63l-26 -86l180 -64l-23 -86l181 -63l-27 -84l80 -29l-62 -205l-80 29l-22 -86l-191 68l27 86l-182 63l24 86l-180 62l27 86l-94 34l-95 -315l-88 31l27 86l-94 33l24 84l-94 34 l27 86l-97 33l25 84l-94 35l24 84l-94 33l27 86l-94 34l24 84l-94 33l25 86l-95 33l25 84l-94 33l26 88z" />
<glyph unicode="&#xe38c;" horiz-adv-x="1781" d="M100 219l80 29l-26 84l180 63l-23 86l181 64l-27 86l182 63l-22 76l-95 -33l-26 84l-94 -33l-25 84l-78 -26l-28 94l1392 496l27 -95l-86 -30l26 -88l-94 -33l25 -84l-94 -33l24 -86l-94 -33l25 -84l-95 -34l27 -86l-94 -33l24 -84l-94 -35l25 -84l-97 -33l27 -86 l-94 -35l24 -84l-94 -32l27 -86l-88 -31l-94 315l-95 -34l27 -86l-180 -62l24 -86l-182 -63l27 -86l-191 -68l-22 86l-80 -29zM190 242l56 -187l172 62l-25 84l180 63l-24 86l180 64l-24 86l188 65l68 -227l88 31l-27 84l94 32l-24 86l94 33l-25 84l94 35l-24 84l94 33 l-25 86l95 35l-27 83l94 33l-22 86l92 33l-23 80l-1022 -367l23 -75l94 34l25 -86l94 35l29 -94l-95 -35l27 -84l-182 -63l24 -86l-180 -64l25 -86z" />
<glyph unicode="&#xe38d;" horiz-adv-x="1781" d="M100 1341l27 95l1393 -496l-29 -94l-78 26l-24 -84l-95 33l-26 -84l-94 33l-23 -76l182 -63l-26 -86l180 -64l-23 -86l181 -63l-27 -84l80 -29l-62 -205l-80 29l-22 -86l-191 68l27 86l-182 63l24 86l-180 62l27 86l-94 34l-95 -315l-88 31l27 86l-94 32l24 84l-94 35 l27 86l-97 33l25 84l-94 35l24 84l-94 33l27 86l-94 34l24 84l-94 33l25 86l-95 33l25 84l-94 33l26 88zM266 1196l92 -33l-22 -86l94 -33l-27 -83l95 -35l-25 -86l94 -33l-24 -84l94 -35l-25 -84l95 -33l-25 -86l94 -32l-26 -84l88 -31l67 227l189 -65l-25 -86l180 -64 l-24 -86l180 -63l-25 -84l172 -62l56 187l-181 63l25 86l-180 64l24 86l-182 63l27 84l-94 35l28 94l94 -35l25 86l94 -34l23 75l-1022 367z" />
<glyph unicode="&#xe38e;" horiz-adv-x="1576" d="M47 -12v141q43 0 68 10q12 6 20 13q39 25 84 24q20 0 43 -8t46.5 -17.5t48 -16.5t53.5 -7q55 0 101 22.5t85 22.5q18 0 39.5 -7t46.5 -15.5t51.5 -15.5t50.5 -7q53 0 102.5 22.5t88.5 22.5t85 -22.5t99 -22.5q29 0 55.5 7t50 16.5t45 17.5t42.5 8q43 0 84 -24 q8 -6 20 -13q25 -10 68 -10v-141q-31 0 -51.5 7t-39 15t-38 15.5t-47.5 7.5q-20 0 -45 -7.5t-50.5 -15.5t-50 -15t-45.5 -7q-25 0 -48.5 7t-47 16t-45 17.5t-39.5 8.5q-16 0 -37.5 -6.5t-50.5 -16.5q-49 -23 -96 -22q-25 0 -51.5 7t-52 15.5t-50.5 15.5t-43 7t-39.5 -8.5 t-44.5 -17.5t-46.5 -16t-45.5 -7q-23 0 -48.5 7t-51 15t-51 15.5t-46.5 7.5q-31 0 -50 -7.5t-37.5 -15.5t-39 -15t-49.5 -7zM47 197v137q20 0 37.5 2t28.5 6q12 4 22 8q29 16 52.5 21.5t43.5 5.5q47 0 91.5 -17.5t78.5 -17.5v326l-92 229q-4 10 -6 18.5t-2 16.5q0 33 31 43 l71 29v198h97v107h184v139h203v-139h186v-107h96v-198l70 -29q33 -14 33 -43q0 -8 -2 -16.5t-6 -18.5l-93 -229v-326q35 0 79 19.5t91 19.5q20 0 43 -5t52 -22q10 -4 22 -8q10 -4 26.5 -7t39.5 -5v-137q-29 2 -47.5 9t-37 15t-39 14.5t-50.5 6.5q-23 0 -46.5 -7.5t-49 -15.5 t-50 -15t-47.5 -7q-25 0 -48.5 7t-47 16t-46 16.5t-42.5 7.5q-41 0 -84 -23q-29 -14 -53.5 -19t-47.5 -5t-43 7t-41.5 16t-47 16.5t-58.5 7.5q-23 0 -44.5 -7.5t-45 -16.5t-47 -16t-47.5 -7q-23 0 -47.5 7t-49 15t-50 15.5t-46.5 7.5q-31 0 -51 -6.5t-38.5 -14.5t-38 -15 t-46.5 -9zM492 1042l294 121l295 -121v82h-96v101h-397v-101h-96v-82z" />
<glyph unicode="&#xe38f;" horiz-adv-x="1286" d="M203 0l219 319q-59 10 -104.5 58.5t-45.5 120.5v659q0 74 52.5 129t132.5 55h461q80 0 133 -55t53 -129v-659q0 -35 -12.5 -66t-33 -53.5t-46 -37.5t-51.5 -22l213 -319h-119l-158 219h-420l-147 -219h-127zM373 938q0 -45 27.5 -68.5t64.5 -23.5h446q90 0 90 92v121 q0 37 -21.5 64.5t-68.5 27.5h-446q-45 0 -68.5 -27.5t-23.5 -64.5v-121zM379 498q0 -33 23.5 -55.5t54.5 -22.5q33 0 59.5 22.5t26.5 55.5t-27 59.5t-59 26.5q-31 0 -54.5 -27t-23.5 -59zM569 1221q0 -10 9.5 -22.5t19.5 -12.5h184q12 0 20.5 12t8.5 23v51q0 10 -8 18t-21 8 h-184q-10 0 -19.5 -8t-9.5 -18v-51zM569 1413q0 23 14.5 36t34.5 13q23 0 37.5 -13t14.5 -36t-14.5 -36t-37.5 -13q-20 0 -34.5 13.5t-14.5 35.5zM705 1413q0 23 15 36t42 13q20 0 34.5 -13t14.5 -36t-14.5 -36t-34.5 -13q-27 0 -42 13.5t-15 35.5zM842 498 q0 -33 21.5 -55.5t54.5 -22.5q39 0 61 22.5t22 55.5t-22.5 59.5t-60.5 26.5q-33 0 -54.5 -27t-21.5 -59z" />
<glyph unicode="&#xe390;" horiz-adv-x="1380" d="M141 174v567l58 414q6 47 48 84t108.5 61.5t155.5 38t191 13.5q100 0 186.5 -13.5t152 -38t105.5 -61.5t46 -84l57 -414v-567h-92v-84q0 -43 -25.5 -64.5t-54.5 -21.5q-33 0 -58.5 21.5t-25.5 64.5v84h-596v-84q0 -43 -25.5 -64.5t-56.5 -21.5t-56.5 21.5t-25.5 64.5v84 h-92zM242 430q0 -33 22 -55.5t55 -22.5q27 0 49.5 22.5t22.5 55.5t-22.5 56.5t-49.5 23.5q-33 0 -55 -23.5t-22 -56.5zM242 758q0 -23 8 -40.5t35 -17.5h823q27 0 35 17.5t8 40.5l-43 299q-4 25 -17.5 43t-48.5 18h-694q-35 0 -47 -18.5t-16 -42.5zM438 1219 q0 -12 7.5 -23.5t23.5 -11.5h453q16 0 24 11t8 24q0 14 -8 24t-24 10h-453q-16 0 -23.5 -10t-7.5 -24zM999 430q0 -33 22.5 -55.5t49.5 -22.5q33 0 56.5 22.5t23.5 55.5t-23.5 56.5t-56.5 23.5q-27 0 -49.5 -23.5t-22.5 -56.5z" />
<glyph unicode="&#xe391;" horiz-adv-x="1435" d="M88 188v322q0 33 11.5 58.5t28.5 43t35.5 26.5t31.5 13l98 248q16 37 49 64.5t86 27.5h141v66q0 41 43 41h164q35 0 35 -41v-66h141q53 0 86 -27.5t43 -64.5l99 -248q16 -4 35.5 -13t37 -26.5t29.5 -43t12 -58.5v-322h-98v-98q0 -47 -27.5 -70.5t-60.5 -23.5 q-35 0 -62.5 23.5t-27.5 70.5v98h-656v-98q0 -47 -26.5 -70.5t-59.5 -23.5q-35 0 -62.5 23.5t-27.5 70.5v98h-98zM195 473q0 -37 23.5 -61.5t62.5 -24.5q33 0 54 24.5t21 61.5t-21.5 61.5t-53.5 24.5q-39 0 -62.5 -24.5t-23.5 -61.5zM301 657h780l-63 193q-18 49 -66 49 h-524q-27 0 -37 -13.5t-18 -35.5zM1018 473q0 -37 26.5 -61.5t59.5 -24.5q37 0 60.5 24.5t23.5 61.5t-23.5 61.5t-60.5 24.5q-33 0 -59.5 -24.5t-26.5 -61.5z" />
<glyph unicode="&#xe392;" horiz-adv-x="1617" d="M190 135v619q0 53 41 89t95 36h90v-879h-90q-53 0 -94.5 35t-41.5 100zM485 0v879h172v129q0 39 27 58t68 19h190q31 0 57.5 -19t26.5 -58v-129h178v-879h-719zM721 879h244v137h-244v-137zM1268 0v879h100q53 0 90 -36t37 -89v-619q0 -66 -40 -100.5t-87 -34.5h-100z " />
<glyph unicode="&#xe393;" horiz-adv-x="1212" d="M258 993v449q0 12 8 18t19 6q29 0 28 -32v-326h43v334q0 14 9.5 19t19.5 5t20.5 -5t10.5 -19v-334h49v334q0 25 22 24q10 0 18.5 -7t8.5 -25v-326h49v334q0 25 25 24q8 0 16 -7t8 -25v-447q0 -33 -28.5 -65.5t-69.5 -32.5v-803q0 -43 -24.5 -64.5t-55.5 -21.5 q-29 0 -53.5 21.5t-24.5 64.5v803q-37 0 -67.5 28.5t-30.5 75.5zM788 584v749q0 68 39 100.5t84 32.5q47 0 84 -32.5t37 -100.5v-1247q0 -41 -24.5 -62.5t-53.5 -21.5t-54.5 21.5t-25.5 62.5v498h-86z" />
<glyph unicode="&#xe395;" horiz-adv-x="1474" d="M80 1296h1290l-563 -694v-440h309q41 0 60.5 -23.5t19.5 -56.5q0 -29 -19.5 -55.5t-60.5 -26.5h-772q-41 0 -60.5 26.5t-19.5 55.5q0 33 19.5 56.5t60.5 23.5h307v440zM711 870q0 -35 31.5 -66.5t76.5 -31.5q35 0 65.5 32t30.5 66q0 43 -30.5 74t-65.5 31 q-45 0 -76.5 -31t-31.5 -74z" />
<glyph unicode="&#xe396;" horiz-adv-x="1802" d="M152 705q0 4 1 8t1 8l108 336q4 12 11.5 30.5t23.5 36t44 29.5t73 12h135q45 0 73.5 -12t46 -29.5t24.5 -36t9 -30.5l107 -336q2 -6 2 -16q0 -25 -13.5 -39.5t-35.5 -14.5q-14 0 -27.5 8.5t-21.5 30.5l-90 309h-23l152 -540h-146v-410q0 -27 -16.5 -40t-34.5 -13 q-23 0 -39 13.5t-16 39.5v410h-33v-410q0 -27 -16.5 -40t-36.5 -13t-37 13.5t-17 39.5v410h-151l158 540h-25l-90 -309q-4 -23 -18.5 -31t-30.5 -8q-18 0 -34.5 14.5t-16.5 39.5zM367 1311q0 49 33.5 81.5t80.5 32.5q51 0 85 -32.5t34 -81.5t-34 -82t-85 -33q-47 0 -80.5 33 t-33.5 82zM901 0v1411h131v-1411h-131zM1163 649v359q0 61 39 109t129 48h205q51 0 84 -14t51.5 -36.5t25.5 -50.5t7 -56v-359q0 -27 -14.5 -38t-36.5 -11q-18 0 -33.5 11.5t-15.5 37.5v328h-23v-914q0 -33 -20.5 -49t-44.5 -16q-25 0 -45.5 16.5t-20.5 48.5v551h-25v-551 q0 -33 -21.5 -49t-47.5 -16q-25 0 -47.5 16.5t-22.5 48.5v914h-16v-328q0 -27 -17.5 -38t-33.5 -11q-23 0 -39.5 11.5t-16.5 37.5zM1321 1311q0 49 32.5 81.5t80.5 32.5q51 0 82.5 -32.5t31.5 -81.5t-31.5 -82t-82.5 -33q-47 0 -80 33t-33 82z" />
<glyph unicode="&#xe397;" horiz-adv-x="1112" d="M74 963q25 117 91 185.5t138 86.5q-12 8 -23.5 27.5t-11.5 44.5q0 51 35 80.5t76 29.5q45 0 72.5 -28.5t27.5 -57.5h45v-61h170v41l320 80v-310l-320 68v35h-170v-60q18 -2 47 -17t56.5 -44t47 -71t19.5 -97v-838q0 -16 -10 -36.5t-43 -20.5h-373q-29 0 -39 20.5 t-10 36.5v838q0 55 20.5 97t48 71t57.5 44t46 17v64q-55 -4 -99 -25.5t-75 -55.5t-50.5 -76t-27.5 -85z" />
<glyph unicode="&#xe398;" horiz-adv-x="1724" d="M100 729q0 154 59.5 290t161 237.5t237.5 161t292 59.5q154 0 291 -59.5t238.5 -161t160.5 -237.5t59 -290q0 -156 -59 -292t-160.5 -237.5t-238.5 -159.5t-291 -58q-156 0 -292 58t-237.5 159.5t-161 237.5t-59.5 292zM250 729q0 -125 47 -234.5t128 -190.5t190.5 -128 t234.5 -47q102 0 196.5 33t172.5 96l-840 842q-129 -164 -129 -371zM362 584v133h359l133 -133h-492zM489 1208l842 -837q53 76 87 169t34 189q0 125 -47 234.5t-129 191.5t-191.5 130t-234.5 48q-98 0 -190.5 -33.5t-170.5 -91.5zM783 1153q-3 37 14 66l80 -25 q-14 -27 -15.5 -54.5t8 -50t26.5 -37t42 -14.5q45 0 45 -18q0 -10 -8 -19.5t-8 -33.5q0 -23 14 -43.5t45 -20.5h123q55 0 88 -29.5t33 -80.5v-56h-45v56q0 41 -24.5 54t-51.5 13h-123q-47 0 -74.5 31t-27.5 70v17t2 17q-39 4 -71 29t-50.5 58.5t-21.5 70.5zM979 1186v43 q68 0 111 -44t43 -110q0 -14 -5.5 -32.5t-15.5 -32.5h41q86 0 135 -56.5t49 -142.5v-74h-43v74q0 59 -35.5 107.5t-105.5 48.5h-74q-23 0 -22 18q0 14 15 31.5t15 58.5q0 43 -30.5 77t-77.5 34zM1022 717h178v-133h-43zM1225 584v135h45v-135h-45zM1296 584v135h41v-135h-41 z" />
<glyph unicode="&#xe399;" horiz-adv-x="2013" d="M121 244q0 39 15.5 80t43 74.5t68.5 54t94 20.5h115q68 0 90 25l207 202v312q0 63 36.5 94t81.5 31q41 0 78 -31t37 -94v-76l291 285q33 35 85 52t95 17h279q39 0 77.5 -16.5t68.5 -46t48.5 -72.5t18.5 -94t-20.5 -95t-51.5 -78t-67.5 -53.5t-67.5 -19.5h-176 q-20 0 -30.5 -2t-20.5 -12l-723 -719q-47 -47 -96.5 -62.5t-92.5 -15.5h-254q-55 0 -98 22.5t-71.5 57.5t-44 77t-15.5 83zM238 244q0 -47 34.5 -86t77.5 -39h248q37 0 62.5 12t50.5 29l729 739q33 25 57.5 33t75.5 8h158q27 0 45 13.5t29.5 33t16.5 40t5 34.5t-5 33.5 t-16.5 37t-30 28.5t-44.5 11h-258q-41 0 -66 -4t-49 -28l-746 -750q-18 -18 -42.5 -28.5t-61.5 -10.5h-166q-37 0 -70.5 -25.5t-33.5 -80.5zM743 1290q0 51 36 88t87 37t88 -37t37 -88t-36.5 -88t-88.5 -37q-51 0 -87 37t-36 88zM1147 66l270 266h-200l106 104h272v-274 l-102 -107v201l-268 -268z" />
<glyph unicode="&#xe39a;" horiz-adv-x="2013" d="M96 244q0 39 15.5 80t44 74.5t69.5 54t92 20.5h115q66 0 90 25l211 207v311q0 63 37 94t84 31q43 0 80 -31t37 -94v-76l280 281q31 35 85.5 52t97.5 17h276q41 0 80 -16.5t69.5 -46t49 -72.5t18.5 -94t-21.5 -95t-52 -78t-67.5 -53.5t-68 -19.5h-178q-18 0 -28.5 -2 t-20.5 -12l-725 -719q-47 -47 -94 -62.5t-92 -15.5h-252q-55 0 -98.5 22.5t-73 57.5t-45 77t-15.5 83zM209 244q0 -25 10 -47.5t26.5 -40t38 -27.5t44.5 -10h243q39 0 65 12t52 29l729 739q31 25 55.5 33t75.5 8h156q27 0 46 13.5t29.5 33t15.5 40t5 34.5t-7 33.5t-20.5 37 t-31 28.5t-37.5 11h-264q-39 0 -61.5 -4t-45.5 -28l-745 -750q-18 -18 -43 -28.5t-64 -10.5h-164q-37 0 -72.5 -25.5t-35.5 -80.5zM727 1290q0 51 36 88t87 37t88 -37t37 -88t-37 -88t-88 -37t-87 37t-36 88zM1126 -4v274l103 107v-201l268 268l78 -77l-270 -267h200 l-106 -104h-273z" />
<glyph unicode="&#xe39b;" horiz-adv-x="1789" d="M113 2v150h297v284h280v299h295v295h289v283h422v-144h-285v-297h-287v-288h-286v-293h-289v-289h-436zM1008 76l270 266h-201l107 104h272v-274l-102 -106v200l-269 -268z" />
<glyph unicode="&#xe39c;" horiz-adv-x="1779" d="M113 2v150h297v284h280v299h295v295h289v283h422v-144h-285v-297h-287v-288h-286v-293h-289v-289h-436zM1012 -4v274l102 107v-201l268 268l78 -77l-270 -267h201l-107 -104h-272z" />
<glyph unicode="&#xe39d;" horiz-adv-x="1464" d="M127 469q0 147 78 264t205 176l16 -125q-86 -49 -133 -133t-47 -182q0 -76 29.5 -142.5t80 -116.5t117 -79t141.5 -29q61 0 119 20.5t105 56.5t81.5 85t53.5 109l65 -140q-63 -113 -174.5 -181t-249.5 -68q-102 0 -191 37.5t-154.5 103t-103.5 154t-38 190.5zM424 1290 q0 53 35 90t88 37t90 -37t37 -90t-37 -90t-90 -37t-88 37t-35 90zM455 1004q-4 33 5 57t24.5 40.5t35 25t37.5 10.5q51 4 86 -20.5t43 -78.5l14 -112h238q39 0 51 -21.5t12 -25.5q0 -23 -13 -44.5t-58 -21.5h-215l10 -72h258q53 0 73.5 -16t39.5 -47l121 -291l30 12 q23 10 45.5 6t36.5 -30q10 -18 8 -42t-37 -38l-118 -47q-29 -10 -55.5 -8t-43.5 41l-116 266h-334q-70 0 -99.5 41t-41.5 125z" />
<glyph unicode="&#xe39e;" horiz-adv-x="1574" d="M113 1423h923l-151 -204l69 -129l-133 -238l269 238l-58 120l207 213h287q-2 -133 -48 -251.5t-127 -211t-190.5 -155t-234.5 -82.5v-557l374 -111v-55h-964v55l383 111v555q-129 18 -239.5 78.5t-192.5 154t-128 213t-46 256.5z" />
<glyph unicode="&#xe39f;" horiz-adv-x="1351" d="M68 0v152h1177v-152h-1177zM74 1040l280 414l258 -414h-178v-819h-166v819h-194zM709 1040l276 414l258 -414h-174v-819h-166v819h-194z" />
<glyph unicode="&#xe3a0;" horiz-adv-x="1683" d="M94 731q0 143 58.5 274.5t158 232.5t229.5 161.5t271 60.5q156 0 293 -54t240.5 -151.5t164 -233.5t60.5 -298q0 -164 -60.5 -300t-163 -233.5t-238.5 -151.5t-288 -54q-158 0 -291 61t-229 164.5t-150.5 239t-54.5 282.5zM233 598q0 -158 54.5 -269.5t139.5 -182 t189.5 -104.5t202.5 -34q143 0 273.5 53.5t229.5 147.5t158.5 222t59.5 280q0 119 -35 229.5t-97 201.5t-151.5 157.5t-197.5 101.5q135 -53 212 -132t115.5 -160t49 -151.5t10.5 -107.5q0 -115 -26.5 -203t-70.5 -153.5t-104.5 -112.5t-127 -78t-138.5 -49t-139 -27 q-4 -18 -6.5 -37.5t-2.5 -37.5q0 -25 2.5 -44.5t6.5 -31.5q-111 37 -182.5 95t-112.5 116.5t-58.5 103.5t-19.5 55q29 92 76 156t101 105t106.5 62.5t89.5 29.5q-2 -10 -3 -22.5t-1 -28.5q0 -27 3 -56.5t11 -56.5q72 31 135.5 80t112.5 101t82.5 103.5t44.5 86.5 q-25 61 -66 121.5t-93 108.5t-111.5 80t-120.5 36q6 -25 6 -70q0 -23 -1 -44t-5 -48q-170 -12 -302 -80q-55 -29 -109 -72t-96 -105.5t-68 -145t-26 -189.5z" />
</font>
</defs>
</svg>
